NotoSansMath-Regular.ufo
<glyph name="exclam" format="2">
  <advance width="269"/>
  <unicode hex="0021"/>
  <outline>
    <contour>
      <point x="106" y="201" type="line"/>
      <point x="163" y="201" type="line"/>
      <point x="188" y="714" type="line"/>
      <point x="81" y="714" type="line"/>
    </contour>
    <contour>
      <point x="134" y="-14" type="curve" smooth="yes"/>
      <point x="167" y="-14"/>
      <point x="196" y="6"/>
      <point x="196" y="54" type="curve" smooth="yes"/>
      <point x="196" y="103"/>
      <point x="167" y="121"/>
      <point x="134" y="121" type="curve" smooth="yes"/>
      <point x="99" y="121"/>
      <point x="72" y="103"/>
      <point x="72" y="54" type="curve" smooth="yes"/>
      <point x="72" y="6"/>
      <point x="99" y="-14"/>
    </contour>
  </outline>
</glyph>
<glyph name="plus" format="2">
  <advance width="572"/>
  <unicode hex="002B"/>
  <outline>
    <contour>
      <point x="249" y="111" type="line"/>
      <point x="321" y="111" type="line"/>
      <point x="321" y="317" type="line"/>
      <point x="520" y="317" type="line"/>
      <point x="520" y="388" type="line"/>
      <point x="321" y="388" type="line"/>
      <point x="321" y="595" type="line"/>
      <point x="249" y="595" type="line"/>
      <point x="249" y="388" type="line"/>
      <point x="50" y="388" type="line"/>
      <point x="50" y="317" type="line"/>
      <point x="249" y="317" type="line"/>
    </contour>
  </outline>
</glyph>
<glyph name="comma" format="2">
  <advance width="268"/>
  <unicode hex="002C"/>
  <outline>
    <contour>
      <point x="41" y="-129" type="curve"/>
      <point x="106" y="-129" type="line"/>
      <point x="138" y="-57"/>
      <point x="174" y="34"/>
      <point x="192" y="105" type="curve"/>
      <point x="185" y="116" type="line"/>
      <point x="91" y="116" type="line"/>
      <point x="81" y="46"/>
      <point x="60" y="-53"/>
    </contour>
  </outline>
</glyph>
<glyph name="hyphen" format="2">
  <advance width="322"/>
  <unicode hex="002D"/>
  <outline>
    <contour>
      <point x="40" y="229" type="line"/>
      <point x="282" y="229" type="line"/>
      <point x="282" y="307" type="line"/>
      <point x="40" y="307" type="line"/>
    </contour>
  </outline>
</glyph>
<glyph name="period" format="2">
  <advance width="268"/>
  <unicode hex="002E"/>
  <outline>
    <contour>
      <point x="133" y="-14" type="curve" smooth="yes"/>
      <point x="167" y="-14"/>
      <point x="196" y="6"/>
      <point x="196" y="54" type="curve" smooth="yes"/>
      <point x="196" y="103"/>
      <point x="167" y="121"/>
      <point x="133" y="121" type="curve" smooth="yes"/>
      <point x="99" y="121"/>
      <point x="72" y="103"/>
      <point x="72" y="54" type="curve" smooth="yes"/>
      <point x="72" y="6"/>
      <point x="99" y="-14"/>
    </contour>
  </outline>
</glyph>
<glyph name="seven" format="2">
  <advance width="572"/>
  <unicode hex="0037"/>
  <outline>
    <contour>
      <point x="136" y="0" type="line"/>
      <point x="233" y="0" type="line"/>
      <point x="523" y="646" type="line"/>
      <point x="523" y="714" type="line"/>
      <point x="44" y="714" type="line"/>
      <point x="44" y="634" type="line"/>
      <point x="429" y="634" type="line"/>
    </contour>
  </outline>
</glyph>
<glyph name="less" format="2">
  <advance width="572"/>
  <unicode hex="003C"/>
  <outline>
    <contour>
      <point x="521" y="116" type="line"/>
      <point x="521" y="194" type="line"/>
      <point x="144" y="352" type="line"/>
      <point x="521" y="530" type="line"/>
      <point x="521" y="608" type="line"/>
      <point x="50" y="373" type="line"/>
      <point x="50" y="323" type="line"/>
    </contour>
  </outline>
</glyph>
<glyph name="equal" format="2">
  <advance width="572"/>
  <unicode hex="003D"/>
  <outline>
    <contour>
      <point x="57" y="416" type="line"/>
      <point x="515" y="416" type="line"/>
      <point x="515" y="487" type="line"/>
      <point x="57" y="487" type="line"/>
    </contour>
    <contour>
      <point x="57" y="217" type="line"/>
      <point x="515" y="217" type="line"/>
      <point x="515" y="288" type="line"/>
      <point x="57" y="288" type="line"/>
    </contour>
  </outline>
</glyph>
<glyph name="greater" format="2">
  <advance width="572"/>
  <unicode hex="003E"/>
  <outline>
    <contour>
      <point x="50" y="116" type="line"/>
      <point x="521" y="323" type="line"/>
      <point x="521" y="373" type="line"/>
      <point x="50" y="608" type="line"/>
      <point x="50" y="530" type="line"/>
      <point x="427" y="351" type="line"/>
      <point x="50" y="194" type="line"/>
    </contour>
  </outline>
</glyph>
<glyph name="at" format="2">
  <advance width="899"/>
  <unicode hex="0040"/>
  <outline>
    <contour>
      <point x="433" y="-89" type="curve" smooth="yes"/>
      <point x="519" y="-89"/>
      <point x="591" y="-72"/>
      <point x="648" y="-48" type="curve"/>
      <point x="648" y="20" type="line"/>
      <point x="591" y="-2"/>
      <point x="514" y="-23"/>
      <point x="433" y="-23" type="curve" smooth="yes"/>
      <point x="237" y="-23"/>
      <point x="130" y="86"/>
      <point x="130" y="283" type="curve" smooth="yes"/>
      <point x="130" y="495"/>
      <point x="254" y="648"/>
      <point x="482" y="648" type="curve" smooth="yes"/>
      <point x="648" y="648"/>
      <point x="771" y="543"/>
      <point x="771" y="358" type="curve" smooth="yes"/>
      <point x="771" y="255"/>
      <point x="736" y="171"/>
      <point x="674" y="171" type="curve" smooth="yes"/>
      <point x="641" y="171"/>
      <point x="612" y="187"/>
      <point x="612" y="257" type="curve" smooth="yes"/>
      <point x="612" y="261"/>
      <point x="612" y="269"/>
      <point x="613" y="293" type="curve" smooth="yes"/>
      <point x="623" y="496" type="line"/>
      <point x="591" y="508"/>
      <point x="529" y="520"/>
      <point x="470" y="520" type="curve" smooth="yes"/>
      <point x="340" y="520"/>
      <point x="258" y="426"/>
      <point x="258" y="295" type="curve" smooth="yes"/>
      <point x="258" y="183"/>
      <point x="315" y="109"/>
      <point x="417" y="109" type="curve" smooth="yes"/>
      <point x="488" y="109"/>
      <point x="534" y="147"/>
      <point x="558" y="196" type="curve"/>
      <point x="563" y="196" type="line"/>
      <point x="571" y="150"/>
      <point x="607" y="109"/>
      <point x="668" y="109" type="curve" smooth="yes"/>
      <point x="784" y="109"/>
      <point x="841" y="235"/>
      <point x="841" y="357" type="curve" smooth="yes"/>
      <point x="841" y="578"/>
      <point x="690" y="714"/>
      <point x="482" y="714" type="curve" smooth="yes"/>
      <point x="218" y="714"/>
      <point x="58" y="529"/>
      <point x="58" y="280" type="curve" smooth="yes"/>
      <point x="58" y="48"/>
      <point x="197" y="-89"/>
    </contour>
    <contour>
      <point x="430" y="171" type="curve" smooth="yes"/>
      <point x="372" y="171"/>
      <point x="336" y="207"/>
      <point x="336" y="293" type="curve" smooth="yes"/>
      <point x="336" y="375"/>
      <point x="372" y="457"/>
      <point x="471" y="457" type="curve" smooth="yes"/>
      <point x="499" y="457"/>
      <point x="527" y="452"/>
      <point x="545" y="447" type="curve"/>
      <point x="539" y="322" type="line" smooth="yes"/>
      <point x="535" y="233"/>
      <point x="504" y="171"/>
    </contour>
  </outline>
</glyph>
<glyph name="J" format="2">
  <advance width="273"/>
  <unicode hex="004A"/>
  <anchor x="-4" y="-170" name="bottom"/>
  <anchor x="137" y="714" name="top"/>
  <anchor x="253" y="714" name="topright"/>
  <outline>
    <contour>
      <point x="-4" y="-190" type="curve" smooth="yes"/>
      <point x="108" y="-190"/>
      <point x="182" y="-127"/>
      <point x="182" y="11" type="curve" smooth="yes"/>
      <point x="182" y="714" type="line"/>
      <point x="92" y="714" type="line"/>
      <point x="92" y="4" type="line" smooth="yes"/>
      <point x="92" y="-87"/>
      <point x="44" y="-111"/>
      <point x="-6" y="-111" type="curve" smooth="yes"/>
      <point x="-33" y="-111"/>
      <point x="-57" y="-107"/>
      <point x="-78" y="-101" type="curve"/>
      <point x="-78" y="-177" type="line"/>
      <point x="-60" y="-185"/>
      <point x="-36" y="-190"/>
    </contour>
  </outline>
</glyph>
<glyph name="L" format="2">
  <advance width="524"/>
  <unicode hex="004C"/>
  <anchor x="300" y="0" name="bottom"/>
  <anchor x="262" y="357" name="center"/>
  <anchor x="140" y="714" name="top"/>
  <anchor x="364" y="714" name="topright"/>
  <outline>
    <contour>
      <point x="97" y="0" type="line"/>
      <point x="499" y="0" type="line"/>
      <point x="499" y="80" type="line"/>
      <point x="187" y="80" type="line"/>
      <point x="187" y="714" type="line"/>
      <point x="97" y="714" type="line"/>
    </contour>
  </outline>
</glyph>
<glyph name="Q" format="2">
  <advance width="781"/>
  <unicode hex="0051"/>
  <anchor x="391" y="-170" name="bottom"/>
  <anchor x="391" y="714" name="top"/>
  <anchor x="761" y="714" name="topright"/>
  <outline>
    <contour>
      <point x="554" y="-170" type="line"/>
      <point x="683" y="-170" type="line"/>
      <point x="512" y="8" type="line"/>
      <point x="649" y="54"/>
      <point x="720" y="183"/>
      <point x="720" y="358" type="curve" smooth="yes"/>
      <point x="720" y="580"/>
      <point x="606" y="725"/>
      <point x="392" y="725" type="curve" smooth="yes"/>
      <point x="168" y="725"/>
      <point x="61" y="578"/>
      <point x="61" y="359" type="curve" smooth="yes"/>
      <point x="61" y="138"/>
      <point x="168" y="-10"/>
      <point x="391" y="-10" type="curve" smooth="yes"/>
      <point x="399" y="-10"/>
      <point x="402" y="-10"/>
      <point x="416" y="-9" type="curve"/>
    </contour>
    <contour>
      <point x="391" y="68" type="curve" smooth="yes"/>
      <point x="230" y="68"/>
      <point x="156" y="178"/>
      <point x="156" y="358" type="curve" smooth="yes"/>
      <point x="156" y="538"/>
      <point x="230" y="646"/>
      <point x="392" y="646" type="curve" smooth="yes"/>
      <point x="553" y="646"/>
      <point x="625" y="538"/>
      <point x="625" y="358" type="curve" smooth="yes"/>
      <point x="625" y="178"/>
      <point x="553" y="68"/>
    </contour>
  </outline>
</glyph>
<glyph name="asciicircum" format="2">
  <advance width="572"/>
  <unicode hex="005E"/>
  <outline>
    <contour>
      <point x="38" y="267" type="line"/>
      <point x="116" y="267" type="line"/>
      <point x="276" y="626" type="line"/>
      <point x="456" y="267" type="line"/>
      <point x="534" y="267" type="line"/>
      <point x="300" y="719" type="line"/>
      <point x="250" y="719" type="line"/>
    </contour>
  </outline>
</glyph>
<glyph name="underscore" format="2">
  <advance width="444"/>
  <unicode hex="005F"/>
  <outline>
    <contour>
      <point x="-2" y="-154" type="line"/>
      <point x="446" y="-154" type="line"/>
      <point x="446" y="-90" type="line"/>
      <point x="-2" y="-90" type="line"/>
    </contour>
  </outline>
</glyph>
<glyph name="grave" format="2">
  <advance width="281"/>
  <unicode hex="0060"/>
  <outline>
    <contour>
      <point x="182" y="606" type="curve"/>
      <point x="241" y="606" type="line"/>
      <point x="241" y="618" type="line"/>
      <point x="210" y="655"/>
      <point x="167" y="721"/>
      <point x="145" y="766" type="curve"/>
      <point x="40" y="766" type="line"/>
      <point x="40" y="756" type="line"/>
      <point x="63" y="719"/>
      <point x="136" y="642"/>
    </contour>
  </outline>
</glyph>
<glyph name="c" format="2">
  <advance width="480"/>
  <unicode hex="0063"/>
  <anchor x="281" y="0" name="bottom"/>
  <anchor x="284" y="536" name="top"/>
  <anchor x="460" y="536" name="topright"/>
  <outline>
    <contour>
      <point x="300" y="-10" type="curve" smooth="yes"/>
      <point x="361" y="-10"/>
      <point x="402" y="0"/>
      <point x="438" y="19" type="curve"/>
      <point x="438" y="97" type="line"/>
      <point x="401" y="80"/>
      <point x="357" y="66"/>
      <point x="299" y="66" type="curve" smooth="yes"/>
      <point x="198" y="66"/>
      <point x="146" y="137"/>
      <point x="146" y="266" type="curve" smooth="yes"/>
      <point x="146" y="400"/>
      <point x="197" y="469"/>
      <point x="304" y="469" type="curve" smooth="yes"/>
      <point x="341" y="469"/>
      <point x="388" y="456"/>
      <point x="420" y="444" type="curve"/>
      <point x="447" y="517" type="line"/>
      <point x="415" y="533"/>
      <point x="360" y="546"/>
      <point x="306" y="546" type="curve" smooth="yes"/>
      <point x="162" y="546"/>
      <point x="55" y="463"/>
      <point x="55" y="265" type="curve" smooth="yes"/>
      <point x="55" y="75"/>
      <point x="157" y="-10"/>
    </contour>
  </outline>
</glyph>
<glyph name="d" format="2">
  <advance width="615"/>
  <unicode hex="0064"/>
  <anchor x="292" y="0" name="bottom"/>
  <anchor x="308" y="268" name="center"/>
  <anchor x="275" y="760" name="top"/>
  <anchor x="553" y="760" name="topright"/>
  <outline>
    <contour>
      <point x="275" y="-10" type="curve" smooth="yes"/>
      <point x="359" y="-10"/>
      <point x="410" y="26"/>
      <point x="442" y="72" type="curve"/>
      <point x="446" y="72" type="line"/>
      <point x="459" y="0" type="line"/>
      <point x="530" y="0" type="line"/>
      <point x="530" y="760" type="line"/>
      <point x="442" y="760" type="line"/>
      <point x="442" y="546" type="line" smooth="yes"/>
      <point x="442" y="526"/>
      <point x="446" y="484"/>
      <point x="448" y="467" type="curve"/>
      <point x="442" y="467" type="line"/>
      <point x="409" y="511"/>
      <point x="359" y="546"/>
      <point x="276" y="546" type="curve" smooth="yes"/>
      <point x="143" y="546"/>
      <point x="55" y="451"/>
      <point x="55" y="267" type="curve" smooth="yes"/>
      <point x="55" y="83"/>
      <point x="142" y="-10"/>
    </contour>
    <contour>
      <point x="289" y="63" type="curve" smooth="yes"/>
      <point x="193" y="63"/>
      <point x="146" y="137"/>
      <point x="146" y="265" type="curve" smooth="yes"/>
      <point x="146" y="392"/>
      <point x="193" y="473"/>
      <point x="288" y="473" type="curve" smooth="yes"/>
      <point x="407" y="473"/>
      <point x="443" y="399"/>
      <point x="443" y="266" type="curve" smooth="yes"/>
      <point x="443" y="250" type="line" smooth="yes"/>
      <point x="443" y="125"/>
      <point x="402" y="63"/>
    </contour>
  </outline>
</glyph>
<glyph name="l" format="2">
  <advance width="258"/>
  <unicode hex="006C"/>
  <anchor x="129" y="0" name="bottom"/>
  <anchor x="129" y="268" name="center"/>
  <anchor x="129" y="760" name="top"/>
  <anchor x="202" y="760" name="topright"/>
  <outline>
    <contour>
      <point x="85" y="0" type="line"/>
      <point x="173" y="0" type="line"/>
      <point x="173" y="760" type="line"/>
      <point x="85" y="760" type="line"/>
    </contour>
  </outline>
</glyph>
<glyph name="v" format="2">
  <advance width="508"/>
  <unicode hex="0076"/>
  <anchor x="252" y="0" name="bottom"/>
  <anchor x="252" y="536" name="top"/>
  <anchor x="488" y="536" name="topright"/>
  <outline>
    <contour>
      <point x="203" y="0" type="line"/>
      <point x="304" y="0" type="line"/>
      <point x="508" y="536" type="line"/>
      <point x="414" y="536" type="line"/>
      <point x="300" y="220" type="line" smooth="yes"/>
      <point x="285" y="177"/>
      <point x="262" y="111"/>
      <point x="255" y="78" type="curve"/>
      <point x="251" y="78" type="line"/>
      <point x="245" y="111"/>
      <point x="224" y="176"/>
      <point x="208" y="220" type="curve" smooth="yes"/>
      <point x="94" y="536" type="line"/>
      <point x="0" y="536" type="line"/>
    </contour>
  </outline>
</glyph>
<glyph name="braceleft" format="2">
  <advance width="380"/>
  <unicode hex="007B"/>
  <outline>
    <contour>
      <point x="348" y="-158" type="curve"/>
      <point x="348" y="-86" type="line"/>
      <point x="277" y="-85"/>
      <point x="237" y="-58"/>
      <point x="237" y="7" type="curve" smooth="yes"/>
      <point x="237" y="154" type="line" smooth="yes"/>
      <point x="237" y="222"/>
      <point x="202" y="263"/>
      <point x="128" y="276" type="curve"/>
      <point x="128" y="282" type="line"/>
      <point x="201" y="295"/>
      <point x="237" y="336"/>
      <point x="237" y="404" type="curve" smooth="yes"/>
      <point x="237" y="548" type="line" smooth="yes"/>
      <point x="237" y="613"/>
      <point x="279" y="640"/>
      <point x="348" y="642" type="curve"/>
      <point x="348" y="714" type="line"/>
      <point x="231" y="714"/>
      <point x="150" y="662"/>
      <point x="150" y="556" type="curve" smooth="yes"/>
      <point x="150" y="408" type="line" smooth="yes"/>
      <point x="150" y="341"/>
      <point x="107" y="316"/>
      <point x="28" y="315" type="curve"/>
      <point x="28" y="242" type="line"/>
      <point x="107" y="242"/>
      <point x="150" y="216"/>
      <point x="150" y="148" type="curve" smooth="yes"/>
      <point x="150" y="1" type="line" smooth="yes"/>
      <point x="150" y="-106"/>
      <point x="225" y="-157"/>
    </contour>
  </outline>
</glyph>
<glyph name="bar" format="2">
  <advance width="433"/>
  <unicode hex="007C"/>
  <outline>
    <contour>
      <point x="180" y="-175" type="line"/>
      <point x="253" y="-175" type="line"/>
      <point x="253" y="825" type="line"/>
      <point x="180" y="825" type="line"/>
    </contour>
  </outline>
</glyph>
<glyph name="asciitilde" format="2">
  <advance width="572"/>
  <unicode hex="007E"/>
  <outline>
    <contour>
      <point x="50" y="287" type="line"/>
      <point x="82" y="320"/>
      <point x="127" y="346"/>
      <point x="164" y="346" type="curve" smooth="yes"/>
      <point x="193" y="346"/>
      <point x="221" y="340"/>
      <point x="269" y="319" type="curve" smooth="yes"/>
      <point x="329" y="293"/>
      <point x="363" y="287"/>
      <point x="401" y="287" type="curve" smooth="yes"/>
      <point x="449" y="287"/>
      <point x="489" y="306"/>
      <point x="521" y="341" type="curve"/>
      <point x="521" y="418" type="line"/>
      <point x="489" y="385"/>
      <point x="445" y="359"/>
      <point x="406" y="359" type="curve" smooth="yes"/>
      <point x="378" y="359"/>
      <point x="350" y="365"/>
      <point x="302" y="386" type="curve" smooth="yes"/>
      <point x="241" y="412"/>
      <point x="208" y="418"/>
      <point x="170" y="418" type="curve" smooth="yes"/>
      <point x="122" y="418"/>
      <point x="82" y="400"/>
      <point x="50" y="365" type="curve"/>
    </contour>
  </outline>
</glyph>
<glyph name="section" format="2">
  <advance width="513"/>
  <unicode hex="00A7"/>
  <outline>
    <contour>
      <point x="228" y="-5" type="curve" smooth="yes"/>
      <point x="365" y="-5"/>
      <point x="446" y="48"/>
      <point x="446" y="140" type="curve" smooth="yes"/>
      <point x="446" y="191"/>
      <point x="419" y="225"/>
      <point x="372" y="250" type="curve"/>
      <point x="411" y="273"/>
      <point x="447" y="315"/>
      <point x="447" y="383" type="curve" smooth="yes"/>
      <point x="447" y="463"/>
      <point x="388" y="505"/>
      <point x="284" y="543" type="curve" smooth="yes"/>
      <point x="182" y="580"/>
      <point x="152" y="601"/>
      <point x="152" y="638" type="curve" smooth="yes"/>
      <point x="152" y="675"/>
      <point x="181" y="697"/>
      <point x="261" y="697" type="curve" smooth="yes"/>
      <point x="325" y="697"/>
      <point x="365" y="682"/>
      <point x="411" y="664" type="curve"/>
      <point x="438" y="731" type="line"/>
      <point x="388" y="751"/>
      <point x="342" y="765"/>
      <point x="267" y="765" type="curve" smooth="yes"/>
      <point x="140" y="765"/>
      <point x="70" y="716"/>
      <point x="70" y="636" type="curve" smooth="yes"/>
      <point x="70" y="582"/>
      <point x="98" y="547"/>
      <point x="146" y="521" type="curve"/>
      <point x="105" y="501"/>
      <point x="67" y="461"/>
      <point x="67" y="395" type="curve" smooth="yes"/>
      <point x="67" y="307"/>
      <point x="128" y="270"/>
      <point x="233" y="231" type="curve" smooth="yes"/>
      <point x="342" y="190"/>
      <point x="362" y="170"/>
      <point x="362" y="133" type="curve" smooth="yes"/>
      <point x="362" y="95"/>
      <point x="331" y="62"/>
      <point x="232" y="62" type="curve" smooth="yes"/>
      <point x="169" y="62"/>
      <point x="102" y="83"/>
      <point x="59" y="103" type="curve"/>
      <point x="59" y="28" type="line"/>
      <point x="101" y="7"/>
      <point x="154" y="-5"/>
    </contour>
    <contour>
      <point x="307" y="279" type="curve"/>
      <point x="285" y="287" type="line" smooth="yes"/>
      <point x="178" y="327"/>
      <point x="142" y="356"/>
      <point x="142" y="405" type="curve" smooth="yes"/>
      <point x="142" y="449"/>
      <point x="177" y="481"/>
      <point x="214" y="491" type="curve"/>
      <point x="337" y="452"/>
      <point x="371" y="420"/>
      <point x="371" y="370" type="curve" smooth="yes"/>
      <point x="371" y="325"/>
      <point x="338" y="297"/>
    </contour>
  </outline>
</glyph>
<glyph name="plusminus" format="2">
  <advance width="572"/>
  <unicode hex="00B1"/>
  <outline>
    <contour>
      <point x="50" y="0" type="line"/>
      <point x="521" y="0" type="line"/>
      <point x="521" y="71" type="line"/>
      <point x="50" y="71" type="line"/>
    </contour>
    <component base="plus" yOffset="3"/>
  </outline>
</glyph>
<glyph name="multiply" format="2">
  <advance width="572"/>
  <unicode hex="00D7"/>
  <outline>
    <contour>
      <point x="118" y="132" type="line"/>
      <point x="285" y="301" type="line"/>
      <point x="456" y="132" type="line"/>
      <point x="506" y="183" type="line"/>
      <point x="337" y="353" type="line"/>
      <point x="507" y="523" type="line"/>
      <point x="457" y="574" type="line"/>
      <point x="286" y="403" type="line"/>
      <point x="117" y="574" type="line"/>
      <point x="65" y="522" type="line"/>
      <point x="235" y="353" type="line"/>
      <point x="66" y="183" type="line"/>
    </contour>
  </outline>
</glyph>
<glyph name="divide" format="2">
  <advance width="572"/>
  <unicode hex="00F7"/>
  <outline>
    <contour>
      <point x="50" y="317" type="line"/>
      <point x="521" y="317" type="line"/>
      <point x="521" y="388" type="line"/>
      <point x="50" y="388" type="line"/>
    </contour>
    <contour>
      <point x="285" y="121" type="curve" smooth="yes"/>
      <point x="315" y="121"/>
      <point x="340" y="139"/>
      <point x="340" y="182" type="curve" smooth="yes"/>
      <point x="340" y="227"/>
      <point x="315" y="242"/>
      <point x="285" y="242" type="curve" smooth="yes"/>
      <point x="254" y="242"/>
      <point x="229" y="227"/>
      <point x="229" y="182" type="curve" smooth="yes"/>
      <point x="229" y="139"/>
      <point x="254" y="121"/>
    </contour>
    <contour>
      <point x="285" y="462" type="curve" smooth="yes"/>
      <point x="315" y="462"/>
      <point x="340" y="480"/>
      <point x="340" y="523" type="curve" smooth="yes"/>
      <point x="340" y="568"/>
      <point x="315" y="583"/>
      <point x="285" y="583" type="curve" smooth="yes"/>
      <point x="254" y="583"/>
      <point x="229" y="568"/>
      <point x="229" y="523" type="curve" smooth="yes"/>
      <point x="229" y="480"/>
      <point x="254" y="462"/>
    </contour>
  </outline>
</glyph>
<glyph name="tildecomb" format="2">
  <unicode hex="0303"/>
  <anchor x="0" y="536" name="_top"/>
  <anchor x="0" y="731" name="top"/>
  <outline>
    <contour>
      <point x="-183" y="606" type="curve"/>
      <point x="-132" y="606" type="line"/>
      <point x="-123" y="645"/>
      <point x="-109" y="664"/>
      <point x="-77" y="664" type="curve" smooth="yes"/>
      <point x="-33" y="664"/>
      <point x="19" y="607"/>
      <point x="75" y="607" type="curve" smooth="yes"/>
      <point x="138" y="607"/>
      <point x="176" y="657"/>
      <point x="184" y="735" type="curve"/>
      <point x="134" y="735" type="line"/>
      <point x="124" y="696"/>
      <point x="110" y="677"/>
      <point x="79" y="677" type="curve" smooth="yes"/>
      <point x="37" y="677"/>
      <point x="-14" y="734"/>
      <point x="-73" y="734" type="curve" smooth="yes"/>
      <point x="-136" y="734"/>
      <point x="-175" y="685"/>
    </contour>
  </outline>
</glyph>
<glyph name="overlinecomb" format="2">
  <unicode hex="0305"/>
  <anchor x="1" y="636" name="_top"/>
  <anchor x="1" y="842" name="top"/>
  <outline>
    <contour>
      <point x="-208" y="771" type="line"/>
      <point x="209" y="771" type="line"/>
      <point x="209" y="842" type="line"/>
      <point x="-208" y="842" type="line"/>
    </contour>
  </outline>
</glyph>
<glyph name="dotaccentcomb" format="2">
  <unicode hex="0307"/>
  <anchor x="0" y="536" name="_top"/>
  <anchor x="0" y="737" name="top"/>
  <outline>
    <contour>
      <point x="1" y="625" type="curve" smooth="yes"/>
      <point x="28" y="625"/>
      <point x="52" y="643"/>
      <point x="52" y="681" type="curve" smooth="yes"/>
      <point x="52" y="720"/>
      <point x="28" y="737"/>
      <point x="1" y="737" type="curve" smooth="yes"/>
      <point x="-28" y="737"/>
      <point x="-51" y="720"/>
      <point x="-51" y="681" type="curve" smooth="yes"/>
      <point x="-51" y="643"/>
      <point x="-28" y="625"/>
    </contour>
  </outline>
</glyph>
<glyph name="dieresiscomb" format="2">
  <unicode hex="0308"/>
  <anchor x="-1" y="536" name="_top"/>
  <anchor x="-1" y="725" name="top"/>
  <outline>
    <contour>
      <point x="-94" y="631" type="curve" smooth="yes"/>
      <point x="-69" y="631"/>
      <point x="-47" y="647"/>
      <point x="-47" y="681" type="curve" smooth="yes"/>
      <point x="-47" y="716"/>
      <point x="-69" y="730"/>
      <point x="-94" y="730" type="curve" smooth="yes"/>
      <point x="-120" y="730"/>
      <point x="-141" y="716"/>
      <point x="-141" y="681" type="curve" smooth="yes"/>
      <point x="-141" y="647"/>
      <point x="-120" y="631"/>
    </contour>
    <contour>
      <point x="93" y="631" type="curve" smooth="yes"/>
      <point x="118" y="631"/>
      <point x="140" y="647"/>
      <point x="140" y="681" type="curve" smooth="yes"/>
      <point x="140" y="716"/>
      <point x="118" y="730"/>
      <point x="93" y="730" type="curve" smooth="yes"/>
      <point x="68" y="730"/>
      <point x="47" y="716"/>
      <point x="47" y="681" type="curve" smooth="yes"/>
      <point x="47" y="647"/>
      <point x="68" y="631"/>
    </contour>
  </outline>
</glyph>
<glyph name="Gamma" format="2">
  <advance width="524"/>
  <unicode hex="0393"/>
  <anchor x="262" y="0" name="bottom"/>
  <anchor x="305" y="714" name="top"/>
  <outline>
    <contour>
      <point x="97" y="0" type="line"/>
      <point x="187" y="0" type="line"/>
      <point x="187" y="634" type="line"/>
      <point x="500" y="634" type="line"/>
      <point x="500" y="714" type="line"/>
      <point x="97" y="714" type="line"/>
    </contour>
  </outline>
</glyph>
<glyph name="Delta" format="2">
  <advance width="581"/>
  <unicode hex="0394"/>
  <anchor x="291" y="0" name="bottom"/>
  <anchor x="291" y="714" name="top"/>
  <outline>
    <contour>
      <point x="20" y="0" type="line"/>
      <point x="561" y="0" type="line"/>
      <point x="561" y="54" type="line"/>
      <point x="335" y="714" type="line"/>
      <point x="245" y="714" type="line"/>
      <point x="20" y="55" type="line"/>
    </contour>
    <contour>
      <point x="116" y="79" type="line"/>
      <point x="243" y="455" type="line" smooth="yes"/>
      <point x="262" y="511"/>
      <point x="277" y="568"/>
      <point x="289" y="616" type="curve"/>
      <point x="300" y="568"/>
      <point x="317" y="511"/>
      <point x="337" y="451" type="curve" smooth="yes"/>
      <point x="462" y="79" type="line"/>
    </contour>
  </outline>
</glyph>
<glyph name="Theta" format="2">
  <advance width="781"/>
  <unicode hex="0398"/>
  <anchor x="392" y="0" name="bottom"/>
  <anchor x="391" y="714" name="top"/>
  <anchor x="391" y="357" name="center"/>
  <anchor x="761" y="714" name="topright"/>
  <outline>
    <contour>
      <point x="239" y="324" type="line"/>
      <point x="541" y="324" type="line"/>
      <point x="541" y="402" type="line"/>
      <point x="239" y="402" type="line"/>
    </contour>
    <component base="O"/>
  </outline>
</glyph>
<glyph name="Lambda" format="2">
  <advance width="608"/>
  <unicode hex="039B"/>
  <anchor x="304" y="0" name="bottom"/>
  <anchor x="304" y="714" name="top"/>
  <outline>
    <contour>
      <point x="0" y="0" type="line"/>
      <point x="95" y="0" type="line"/>
      <point x="252" y="451" type="line" smooth="yes"/>
      <point x="273" y="511"/>
      <point x="292" y="568"/>
      <point x="302" y="616" type="curve"/>
      <point x="314" y="568"/>
      <point x="332" y="512"/>
      <point x="354" y="450" type="curve" smooth="yes"/>
      <point x="512" y="0" type="line"/>
      <point x="607" y="0" type="line"/>
      <point x="350" y="714" type="line"/>
      <point x="256" y="714" type="line"/>
    </contour>
  </outline>
</glyph>
<glyph name="Xi" format="2">
  <advance width="555"/>
  <unicode hex="039E"/>
  <anchor x="278" y="0" name="bottom"/>
  <anchor x="278" y="714" name="top"/>
  <outline>
    <contour>
      <point x="35" y="0" type="line"/>
      <point x="519" y="0" type="line"/>
      <point x="519" y="79" type="line"/>
      <point x="35" y="79" type="line"/>
    </contour>
    <contour>
      <point x="95" y="334" type="line"/>
      <point x="459" y="334" type="line"/>
      <point x="459" y="412" type="line"/>
      <point x="95" y="412" type="line"/>
    </contour>
    <contour>
      <point x="55" y="635" type="line"/>
      <point x="499" y="635" type="line"/>
      <point x="499" y="714" type="line"/>
      <point x="55" y="714" type="line"/>
    </contour>
  </outline>
</glyph>
<glyph name="Pi" format="2">
  <advance width="731"/>
  <unicode hex="03A0"/>
  <anchor x="366" y="0" name="bottom"/>
  <anchor x="366" y="714" name="top"/>
  <outline>
    <contour>
      <point x="97" y="0" type="line"/>
      <point x="187" y="0" type="line"/>
      <point x="187" y="635" type="line"/>
      <point x="544" y="635" type="line"/>
      <point x="544" y="0" type="line"/>
      <point x="633" y="0" type="line"/>
      <point x="633" y="714" type="line"/>
      <point x="97" y="714" type="line"/>
    </contour>
  </outline>
</glyph>
<glyph name="Sigma" format="2">
  <advance width="570"/>
  <unicode hex="03A3"/>
  <anchor x="285" y="0" name="bottom"/>
  <anchor x="285" y="714" name="top"/>
  <outline>
    <contour>
      <point x="36" y="0" type="line"/>
      <point x="546" y="0" type="line"/>
      <point x="546" y="79" type="line"/>
      <point x="288" y="79" type="line" smooth="yes"/>
      <point x="235" y="79"/>
      <point x="185" y="79"/>
      <point x="135" y="78" type="curve"/>
      <point x="370" y="374" type="line"/>
      <point x="145" y="635" type="line"/>
      <point x="166" y="634"/>
      <point x="233" y="634"/>
      <point x="262" y="634" type="curve" smooth="yes"/>
      <point x="517" y="634" type="line"/>
      <point x="517" y="714" type="line"/>
      <point x="42" y="714" type="line"/>
      <point x="42" y="639" type="line"/>
      <point x="270" y="373" type="line"/>
      <point x="36" y="74" type="line"/>
    </contour>
  </outline>
</glyph>
<glyph name="Phi" format="2">
  <advance width="804"/>
  <unicode hex="03A6"/>
  <anchor x="402" y="0" name="bottom"/>
  <anchor x="402" y="714" name="top"/>
  <outline>
    <contour>
      <point x="357" y="-10" type="line"/>
      <point x="446" y="-10" type="line"/>
      <point x="446" y="100" type="line"/>
      <point x="683" y="105"/>
      <point x="752" y="241"/>
      <point x="752" y="370" type="curve" smooth="yes"/>
      <point x="752" y="515"/>
      <point x="678" y="632"/>
      <point x="446" y="636" type="curve"/>
      <point x="446" y="724" type="line"/>
      <point x="357" y="724" type="line"/>
      <point x="357" y="636" type="line"/>
      <point x="127" y="632"/>
      <point x="51" y="511"/>
      <point x="51" y="370" type="curve" smooth="yes"/>
      <point x="51" y="247"/>
      <point x="114" y="105"/>
      <point x="357" y="100" type="curve"/>
    </contour>
    <contour>
      <point x="357" y="174" type="line"/>
      <point x="207" y="179"/>
      <point x="142" y="253"/>
      <point x="142" y="371" type="curve" smooth="yes"/>
      <point x="142" y="482"/>
      <point x="196" y="556"/>
      <point x="357" y="560" type="curve"/>
    </contour>
    <contour>
      <point x="446" y="174" type="curve"/>
      <point x="446" y="560" type="line"/>
      <point x="607" y="556"/>
      <point x="661" y="484"/>
      <point x="661" y="371" type="curve" smooth="yes"/>
      <point x="661" y="256"/>
      <point x="600" y="179"/>
    </contour>
  </outline>
</glyph>
<glyph name="Psi" format="2">
  <advance width="804"/>
  <unicode hex="03A8"/>
  <anchor x="402" y="0" name="bottom"/>
  <anchor x="402" y="714" name="top"/>
  <outline>
    <contour>
      <point x="357" y="0" type="line"/>
      <point x="445" y="0" type="line"/>
      <point x="445" y="217" type="line"/>
      <point x="685" y="217"/>
      <point x="751" y="343"/>
      <point x="751" y="479" type="curve" smooth="yes"/>
      <point x="751" y="714" type="line"/>
      <point x="659" y="714" type="line"/>
      <point x="659" y="478" type="line" smooth="yes"/>
      <point x="659" y="357"/>
      <point x="597" y="294"/>
      <point x="445" y="294" type="curve"/>
      <point x="445" y="714" type="line"/>
      <point x="357" y="714" type="line"/>
      <point x="357" y="294" type="line"/>
      <point x="208" y="294"/>
      <point x="143" y="356"/>
      <point x="143" y="480" type="curve" smooth="yes"/>
      <point x="143" y="714" type="line"/>
      <point x="53" y="714" type="line"/>
      <point x="53" y="478" type="line" smooth="yes"/>
      <point x="53" y="346"/>
      <point x="116" y="217"/>
      <point x="357" y="217" type="curve"/>
    </contour>
  </outline>
</glyph>
<glyph name="Omega" format="2">
  <advance width="782"/>
  <unicode hex="03A9"/>
  <anchor x="391" y="0" name="bottom"/>
  <anchor x="391" y="714" name="top"/>
  <anchor x="20" y="714" name="topleft"/>
  <outline>
    <contour>
      <point x="38" y="0" type="line"/>
      <point x="326" y="0" type="line"/>
      <point x="326" y="72" type="line"/>
      <point x="202" y="161"/>
      <point x="159" y="268"/>
      <point x="159" y="401" type="curve" smooth="yes"/>
      <point x="159" y="553"/>
      <point x="231" y="646"/>
      <point x="391" y="646" type="curve" smooth="yes"/>
      <point x="552" y="646"/>
      <point x="625" y="553"/>
      <point x="625" y="401" type="curve" smooth="yes"/>
      <point x="625" y="269"/>
      <point x="581" y="160"/>
      <point x="457" y="72" type="curve"/>
      <point x="457" y="0" type="line"/>
      <point x="745" y="0" type="line"/>
      <point x="745" y="79" type="line"/>
      <point x="568" y="79" type="line"/>
      <point x="653" y="144"/>
      <point x="719" y="255"/>
      <point x="719" y="405" type="curve" smooth="yes"/>
      <point x="719" y="601"/>
      <point x="603" y="725"/>
      <point x="391" y="725" type="curve" smooth="yes"/>
      <point x="182" y="725"/>
      <point x="64" y="600"/>
      <point x="64" y="404" type="curve" smooth="yes"/>
      <point x="64" y="255"/>
      <point x="131" y="144"/>
      <point x="216" y="79" type="curve"/>
      <point x="38" y="79" type="line"/>
    </contour>
  </outline>
</glyph>
<glyph name="alpha" format="2">
  <advance width="615"/>
  <unicode hex="03B1"/>
  <anchor x="302" y="0" name="bottom"/>
  <anchor x="311" y="536" name="top"/>
  <outline>
    <contour>
      <point x="275" y="-10" type="curve" smooth="yes"/>
      <point x="365" y="-10"/>
      <point x="411" y="27"/>
      <point x="442" y="72" type="curve"/>
      <point x="449" y="72" type="line"/>
      <point x="463" y="10"/>
      <point x="495" y="-10"/>
      <point x="544" y="-10" type="curve" smooth="yes"/>
      <point x="566" y="-10"/>
      <point x="590" y="-3"/>
      <point x="600" y="3" type="curve"/>
      <point x="600" y="67" type="line"/>
      <point x="594" y="65"/>
      <point x="580" y="62"/>
      <point x="570" y="62" type="curve" smooth="yes"/>
      <point x="547" y="62"/>
      <point x="529" y="77"/>
      <point x="529" y="118" type="curve" smooth="yes"/>
      <point x="529" y="326" type="line" smooth="yes"/>
      <point x="529" y="397"/>
      <point x="539" y="491"/>
      <point x="554" y="536" type="curve"/>
      <point x="485" y="536" type="line"/>
      <point x="470" y="516"/>
      <point x="459" y="487"/>
      <point x="453" y="464" type="curve"/>
      <point x="447" y="464" type="line"/>
      <point x="412" y="518"/>
      <point x="362" y="546"/>
      <point x="283" y="546" type="curve" smooth="yes"/>
      <point x="139" y="546"/>
      <point x="55" y="447"/>
      <point x="55" y="266" type="curve" smooth="yes"/>
      <point x="55" y="83"/>
      <point x="144" y="-10"/>
    </contour>
    <contour>
      <point x="290" y="63" type="curve" smooth="yes"/>
      <point x="190" y="63"/>
      <point x="146" y="131"/>
      <point x="146" y="265" type="curve" smooth="yes"/>
      <point x="146" y="400"/>
      <point x="191" y="472"/>
      <point x="289" y="472" type="curve" smooth="yes"/>
      <point x="406" y="472"/>
      <point x="442" y="400"/>
      <point x="442" y="267" type="curve" smooth="yes"/>
      <point x="442" y="261" type="line" smooth="yes"/>
      <point x="442" y="124"/>
      <point x="400" y="63"/>
    </contour>
  </outline>
</glyph>
<glyph name="beta" format="2">
  <advance width="631"/>
  <unicode hex="03B2"/>
  <anchor x="376" y="0" name="bottom"/>
  <anchor x="324" y="765" name="top"/>
  <anchor x="557" y="765" name="topright"/>
  <outline>
    <contour>
      <point x="85" y="-240" type="line"/>
      <point x="173" y="-240" type="line"/>
      <point x="173" y="24" type="line"/>
      <point x="216" y="3"/>
      <point x="264" y="-10"/>
      <point x="342" y="-10" type="curve" smooth="yes"/>
      <point x="495" y="-10"/>
      <point x="586" y="66"/>
      <point x="586" y="203" type="curve" smooth="yes"/>
      <point x="586" y="324"/>
      <point x="523" y="388"/>
      <point x="402" y="402" type="curve"/>
      <point x="402" y="406" type="line"/>
      <point x="500" y="422"/>
      <point x="554" y="478"/>
      <point x="554" y="574" type="curve" smooth="yes"/>
      <point x="554" y="701"/>
      <point x="458" y="765"/>
      <point x="324" y="765" type="curve" smooth="yes"/>
      <point x="186" y="765"/>
      <point x="85" y="696"/>
      <point x="85" y="535" type="curve" smooth="yes"/>
    </contour>
    <contour>
      <point x="334" y="62" type="curve" smooth="yes"/>
      <point x="266" y="62"/>
      <point x="219" y="79"/>
      <point x="173" y="103" type="curve"/>
      <point x="173" y="531" type="line" smooth="yes"/>
      <point x="173" y="656"/>
      <point x="242" y="692"/>
      <point x="322" y="692" type="curve" smooth="yes"/>
      <point x="408" y="692"/>
      <point x="464" y="652"/>
      <point x="464" y="570" type="curve" smooth="yes"/>
      <point x="464" y="489"/>
      <point x="418" y="435"/>
      <point x="314" y="435" type="curve" smooth="yes"/>
      <point x="271" y="435" type="line"/>
      <point x="271" y="361" type="line"/>
      <point x="324" y="361" type="line" smooth="yes"/>
      <point x="428" y="361"/>
      <point x="498" y="314"/>
      <point x="498" y="209" type="curve" smooth="yes"/>
      <point x="498" y="115"/>
      <point x="449" y="62"/>
    </contour>
  </outline>
</glyph>
<glyph name="gamma" format="2">
  <advance width="518"/>
  <unicode hex="03B3"/>
  <anchor x="259" y="-240" name="bottom"/>
  <anchor x="259" y="536" name="top"/>
  <anchor x="508" y="536" name="topright"/>
  <outline>
    <contour>
      <point x="171" y="-240" type="curve"/>
      <point x="266" y="-240" type="line"/>
      <point x="266" y="-173"/>
      <point x="284" y="-68"/>
      <point x="315" y="13" type="curve" smooth="yes"/>
      <point x="513" y="536" type="line"/>
      <point x="422" y="536" type="line"/>
      <point x="316" y="251" type="line" smooth="yes"/>
      <point x="300" y="207"/>
      <point x="273" y="121"/>
      <point x="267" y="89" type="curve"/>
      <point x="263" y="89" type="line"/>
      <point x="257" y="124"/>
      <point x="230" y="203"/>
      <point x="209" y="255" type="curve" smooth="yes"/>
      <point x="96" y="536" type="line"/>
      <point x="5" y="536" type="line"/>
      <point x="222" y="6" type="line"/>
      <point x="192" y="-76"/>
      <point x="171" y="-185"/>
    </contour>
  </outline>
</glyph>
<glyph name="epsilon" format="2">
  <advance width="483"/>
  <unicode hex="03B5"/>
  <anchor x="242" y="0" name="bottom"/>
  <anchor x="268" y="536" name="top"/>
  <outline>
    <contour>
      <point x="268" y="-10" type="curve" smooth="yes"/>
      <point x="350" y="-10"/>
      <point x="406" y="5"/>
      <point x="447" y="27" type="curve"/>
      <point x="447" y="104" type="line"/>
      <point x="403" y="83"/>
      <point x="347" y="62"/>
      <point x="273" y="62" type="curve" smooth="yes"/>
      <point x="193" y="62"/>
      <point x="131" y="85"/>
      <point x="131" y="151" type="curve" smooth="yes"/>
      <point x="131" y="212"/>
      <point x="180" y="243"/>
      <point x="282" y="243" type="curve" smooth="yes"/>
      <point x="355" y="243" type="line"/>
      <point x="355" y="315" type="line"/>
      <point x="299" y="315" type="line"/>
      <point x="206" y="315"/>
      <point x="146" y="338"/>
      <point x="146" y="397" type="curve" smooth="yes"/>
      <point x="146" y="447"/>
      <point x="187" y="473"/>
      <point x="267" y="473" type="curve" smooth="yes"/>
      <point x="329" y="473"/>
      <point x="372" y="458"/>
      <point x="416" y="438" type="curve"/>
      <point x="449" y="508" type="line"/>
      <point x="396" y="532"/>
      <point x="345" y="546"/>
      <point x="268" y="546" type="curve" smooth="yes"/>
      <point x="147" y="546"/>
      <point x="62" y="494"/>
      <point x="62" y="404" type="curve" smooth="yes"/>
      <point x="62" y="339"/>
      <point x="102" y="300"/>
      <point x="162" y="282" type="curve"/>
      <point x="162" y="277" type="line"/>
      <point x="98" y="259"/>
      <point x="43" y="226"/>
      <point x="43" y="146" type="curve" smooth="yes"/>
      <point x="43" y="57"/>
      <point x="115" y="-10"/>
    </contour>
  </outline>
</glyph>
<glyph name="zeta" format="2">
  <advance width="484"/>
  <unicode hex="03B6"/>
  <anchor x="242" y="-195" name="bottom"/>
  <anchor x="242" y="760" name="top"/>
  <outline>
    <contour>
      <point x="307" y="-195" type="curve"/>
      <point x="394" y="-195" type="line"/>
      <point x="426" y="-153"/>
      <point x="457" y="-99"/>
      <point x="457" y="-40" type="curve" smooth="yes"/>
      <point x="457" y="17"/>
      <point x="418" y="53"/>
      <point x="316" y="74" type="curve" smooth="yes"/>
      <point x="208" y="96"/>
      <point x="146" y="116"/>
      <point x="146" y="230" type="curve" smooth="yes"/>
      <point x="146" y="336"/>
      <point x="181" y="463"/>
      <point x="457" y="694" type="curve"/>
      <point x="457" y="760" type="line"/>
      <point x="85" y="760" type="line"/>
      <point x="85" y="687" type="line"/>
      <point x="205" y="687" type="line" smooth="yes"/>
      <point x="273" y="687"/>
      <point x="344" y="690"/>
      <point x="353" y="691" type="curve"/>
      <point x="195" y="549"/>
      <point x="55" y="423"/>
      <point x="55" y="224" type="curve" smooth="yes"/>
      <point x="55" y="92"/>
      <point x="121" y="27"/>
      <point x="248" y="5" type="curve" smooth="yes"/>
      <point x="355" y="-14"/>
      <point x="369" y="-35"/>
      <point x="369" y="-63" type="curve" smooth="yes"/>
      <point x="369" y="-99"/>
      <point x="339" y="-153"/>
    </contour>
  </outline>
</glyph>
<glyph name="eta" format="2">
  <advance width="618"/>
  <unicode hex="03B7"/>
  <anchor x="309" y="-240" name="bottom"/>
  <anchor x="326" y="536" name="top"/>
  <outline>
    <contour>
      <point x="450" y="-240" type="line"/>
      <point x="537" y="-240" type="line"/>
      <point x="537" y="349" type="line" smooth="yes"/>
      <point x="537" y="487"/>
      <point x="471" y="546"/>
      <point x="343" y="546" type="curve" smooth="yes"/>
      <point x="275" y="546"/>
      <point x="209" y="519"/>
      <point x="174" y="463" type="curve"/>
      <point x="169" y="463" type="line"/>
      <point x="156" y="536" type="line"/>
      <point x="85" y="536" type="line"/>
      <point x="85" y="0" type="line"/>
      <point x="173" y="0" type="line"/>
      <point x="173" y="278" type="line" smooth="yes"/>
      <point x="173" y="403"/>
      <point x="212" y="472"/>
      <point x="330" y="472" type="curve" smooth="yes"/>
      <point x="413" y="472"/>
      <point x="450" y="428"/>
      <point x="450" y="343" type="curve" smooth="yes"/>
    </contour>
  </outline>
</glyph>
<glyph name="theta" format="2">
  <advance width="595"/>
  <unicode hex="03B8"/>
  <anchor x="298" y="0" name="bottom"/>
  <anchor x="298" y="765" name="top"/>
  <anchor x="515" y="765" name="topright"/>
  <outline>
    <contour>
      <point x="296" y="-10" type="curve" smooth="yes"/>
      <point x="472" y="-10"/>
      <point x="540" y="135"/>
      <point x="540" y="377" type="curve" smooth="yes"/>
      <point x="540" y="623"/>
      <point x="462" y="765"/>
      <point x="296" y="765" type="curve" smooth="yes"/>
      <point x="123" y="765"/>
      <point x="55" y="621"/>
      <point x="55" y="377" type="curve" smooth="yes"/>
      <point x="55" y="135"/>
      <point x="131" y="-10"/>
    </contour>
    <contour>
      <point x="296" y="62" type="curve" smooth="yes"/>
      <point x="190" y="62"/>
      <point x="147" y="160"/>
      <point x="144" y="351" type="curve"/>
      <point x="451" y="351" type="line"/>
      <point x="447" y="158"/>
      <point x="400" y="62"/>
    </contour>
    <contour>
      <point x="144" y="424" type="line"/>
      <point x="151" y="602"/>
      <point x="194" y="693"/>
      <point x="296" y="693" type="curve" smooth="yes"/>
      <point x="398" y="693"/>
      <point x="443" y="602"/>
      <point x="450" y="424" type="curve"/>
    </contour>
  </outline>
</glyph>
<glyph name="iota" format="2">
  <advance width="346"/>
  <unicode hex="03B9"/>
  <anchor x="209" y="0" name="bottom"/>
  <anchor x="130" y="536" name="top"/>
  <outline>
    <contour>
      <point x="234" y="-10" type="curve" smooth="yes"/>
      <point x="269" y="-10"/>
      <point x="309" y="-3"/>
      <point x="328" y="6" type="curve"/>
      <point x="328" y="73" type="line"/>
      <point x="311" y="68"/>
      <point x="275" y="62"/>
      <point x="246" y="62" type="curve" smooth="yes"/>
      <point x="192" y="62"/>
      <point x="169" y="94"/>
      <point x="169" y="158" type="curve" smooth="yes"/>
      <point x="169" y="536" type="line"/>
      <point x="82" y="536" type="line"/>
      <point x="82" y="157" type="line" smooth="yes"/>
      <point x="82" y="26"/>
      <point x="146" y="-10"/>
    </contour>
  </outline>
</glyph>
<glyph name="kappa" format="2">
  <advance width="534"/>
  <unicode hex="03BA"/>
  <anchor x="267" y="0" name="bottom"/>
  <anchor x="267" y="536" name="top"/>
  <outline>
    <contour>
      <point x="85" y="0" type="line"/>
      <point x="178" y="0" type="line"/>
      <point x="178" y="188" type="line"/>
      <point x="244" y="242" type="line"/>
      <point x="420" y="0" type="line"/>
      <point x="525" y="0" type="line"/>
      <point x="306" y="299" type="line"/>
      <point x="509" y="536" type="line"/>
      <point x="403" y="536" type="line"/>
      <point x="213" y="312" type="line" smooth="yes"/>
      <point x="201" y="297"/>
      <point x="186" y="278"/>
      <point x="174" y="261" type="curve"/>
      <point x="172" y="261" type="line"/>
      <point x="175" y="288"/>
      <point x="178" y="344"/>
      <point x="178" y="397" type="curve" smooth="yes"/>
      <point x="178" y="536" type="line"/>
      <point x="85" y="536" type="line"/>
    </contour>
  </outline>
</glyph>
<glyph name="lambda" format="2">
  <advance width="542"/>
  <unicode hex="03BB"/>
  <anchor x="271" y="0" name="bottom"/>
  <anchor x="271" y="766" name="top"/>
  <outline>
    <contour>
      <point x="485" y="-10" type="curve" smooth="yes"/>
      <point x="508" y="-10"/>
      <point x="527" y="-5"/>
      <point x="542" y="2" type="curve"/>
      <point x="542" y="67" type="line"/>
      <point x="535" y="65"/>
      <point x="522" y="62"/>
      <point x="512" y="62" type="curve" smooth="yes"/>
      <point x="489" y="62"/>
      <point x="475" y="79"/>
      <point x="462" y="116" type="curve" smooth="yes"/>
      <point x="289" y="598" type="line" smooth="yes"/>
      <point x="248" y="713"/>
      <point x="214" y="766"/>
      <point x="111" y="766" type="curve" smooth="yes"/>
      <point x="87" y="766"/>
      <point x="63" y="762"/>
      <point x="45" y="758" type="curve"/>
      <point x="45" y="687" type="line"/>
      <point x="59" y="690"/>
      <point x="77" y="693"/>
      <point x="101" y="693" type="curve" smooth="yes"/>
      <point x="158" y="693"/>
      <point x="177" y="658"/>
      <point x="198" y="601" type="curve" smooth="yes"/>
      <point x="225" y="526" type="line"/>
      <point x="-6" y="0" type="line"/>
      <point x="85" y="0" type="line"/>
      <point x="207" y="281" type="line" smooth="yes"/>
      <point x="229" y="333"/>
      <point x="250" y="388"/>
      <point x="262" y="435" type="curve"/>
      <point x="266" y="435" type="line"/>
      <point x="274" y="396"/>
      <point x="299" y="324"/>
      <point x="316" y="276" type="curve" smooth="yes"/>
      <point x="389" y="71" type="line" smooth="yes"/>
      <point x="410" y="12"/>
      <point x="436" y="-10"/>
    </contour>
  </outline>
</glyph>
<glyph name="mu" format="2">
  <advance width="623"/>
  <unicode hex="03BC"/>
  <anchor x="312" y="-240" name="bottom"/>
  <anchor x="312" y="536" name="top"/>
  <outline>
    <contour>
      <point x="85" y="-240" type="line"/>
      <point x="173" y="-240" type="line"/>
      <point x="173" y="-84" type="line" smooth="yes"/>
      <point x="173" y="-30"/>
      <point x="171" y="11"/>
      <point x="168" y="35" type="curve"/>
      <point x="172" y="35" type="line"/>
      <point x="198" y="8"/>
      <point x="235" y="-10"/>
      <point x="287" y="-10" type="curve" smooth="yes"/>
      <point x="362" y="-10"/>
      <point x="414" y="19"/>
      <point x="448" y="72" type="curve"/>
      <point x="453" y="72" type="line"/>
      <point x="467" y="0" type="line"/>
      <point x="538" y="0" type="line"/>
      <point x="538" y="536" type="line"/>
      <point x="450" y="536" type="line"/>
      <point x="450" y="257" type="line" smooth="yes"/>
      <point x="450" y="132"/>
      <point x="412" y="63"/>
      <point x="293" y="63" type="curve" smooth="yes"/>
      <point x="213" y="63"/>
      <point x="173" y="107"/>
      <point x="173" y="190" type="curve" smooth="yes"/>
      <point x="173" y="536" type="line"/>
      <point x="85" y="536" type="line"/>
    </contour>
  </outline>
</glyph>
<glyph name="nu" format="2">
  <advance width="547"/>
  <unicode hex="03BD"/>
  <anchor x="274" y="0" name="bottom"/>
  <anchor x="274" y="536" name="top"/>
  <outline>
    <contour>
      <point x="200" y="0" type="line"/>
      <point x="295" y="0" type="line"/>
      <point x="460" y="166"/>
      <point x="506" y="326"/>
      <point x="506" y="536" type="curve"/>
      <point x="419" y="536" type="line"/>
      <point x="419" y="342"/>
      <point x="383" y="199"/>
      <point x="260" y="74" type="curve"/>
      <point x="256" y="74" type="line"/>
      <point x="246" y="114"/>
      <point x="216" y="199"/>
      <point x="198" y="247" type="curve" smooth="yes"/>
      <point x="91" y="536" type="line"/>
      <point x="0" y="536" type="line"/>
    </contour>
  </outline>
</glyph>
<glyph name="xi" format="2">
  <advance width="477"/>
  <unicode hex="03BE"/>
  <anchor x="239" y="-195" name="bottom"/>
  <anchor x="239" y="760" name="top"/>
  <outline>
    <contour>
      <point x="314" y="-195" type="curve"/>
      <point x="397" y="-195" type="line"/>
      <point x="426" y="-153"/>
      <point x="457" y="-99"/>
      <point x="457" y="-40" type="curve" smooth="yes"/>
      <point x="457" y="14"/>
      <point x="422" y="52"/>
      <point x="320" y="73" type="curve" smooth="yes"/>
      <point x="213" y="95"/>
      <point x="146" y="111"/>
      <point x="146" y="213" type="curve" smooth="yes"/>
      <point x="146" y="299"/>
      <point x="211" y="366"/>
      <point x="333" y="366" type="curve" smooth="yes"/>
      <point x="419" y="366" type="line"/>
      <point x="419" y="433" type="line"/>
      <point x="336" y="433" type="line" smooth="yes"/>
      <point x="217" y="433"/>
      <point x="173" y="471"/>
      <point x="173" y="539" type="curve" smooth="yes"/>
      <point x="173" y="641"/>
      <point x="291" y="692"/>
      <point x="405" y="692" type="curve" smooth="yes"/>
      <point x="431" y="692" type="line"/>
      <point x="431" y="760" type="line"/>
      <point x="85" y="760" type="line"/>
      <point x="85" y="687" type="line"/>
      <point x="115" y="687" type="line" smooth="yes"/>
      <point x="160" y="687"/>
      <point x="211" y="690"/>
      <point x="236" y="693" type="curve"/>
      <point x="156" y="670"/>
      <point x="88" y="631"/>
      <point x="88" y="537" type="curve" smooth="yes"/>
      <point x="88" y="461"/>
      <point x="128" y="420"/>
      <point x="194" y="401" type="curve"/>
      <point x="194" y="395" type="line"/>
      <point x="120" y="372"/>
      <point x="54" y="306"/>
      <point x="54" y="206" type="curve" smooth="yes"/>
      <point x="54" y="91"/>
      <point x="121" y="27"/>
      <point x="251" y="5" type="curve" smooth="yes"/>
      <point x="358" y="-13"/>
      <point x="373" y="-35"/>
      <point x="373" y="-62" type="curve" smooth="yes"/>
      <point x="373" y="-99"/>
      <point x="345" y="-153"/>
    </contour>
  </outline>
</glyph>
<glyph name="pi" format="2">
  <advance width="659"/>
  <unicode hex="03C0"/>
  <anchor x="330" y="0" name="bottom"/>
  <anchor x="330" y="536" name="top"/>
  <outline>
    <contour>
      <point x="546" y="-10" type="curve" smooth="yes"/>
      <point x="577" y="-10"/>
      <point x="601" y="-3"/>
      <point x="612" y="3" type="curve"/>
      <point x="612" y="72" type="line"/>
      <point x="602" y="67"/>
      <point x="586" y="62"/>
      <point x="568" y="62" type="curve" smooth="yes"/>
      <point x="541" y="62"/>
      <point x="522" y="77"/>
      <point x="522" y="124" type="curve" smooth="yes"/>
      <point x="522" y="463" type="line"/>
      <point x="627" y="463" type="line"/>
      <point x="627" y="536" type="line"/>
      <point x="84" y="536" type="line"/>
      <point x="12" y="501" type="line"/>
      <point x="12" y="463" type="line"/>
      <point x="121" y="463" type="line"/>
      <point x="121" y="0" type="line"/>
      <point x="208" y="0" type="line"/>
      <point x="208" y="463" type="line"/>
      <point x="435" y="463" type="line"/>
      <point x="435" y="118" type="line" smooth="yes"/>
      <point x="435" y="33"/>
      <point x="473" y="-10"/>
    </contour>
  </outline>
</glyph>
<glyph name="rho" format="2">
  <advance width="605"/>
  <unicode hex="03C1"/>
  <anchor x="303" y="-240" name="bottom"/>
  <anchor x="303" y="536" name="top"/>
  <outline>
    <contour>
      <point x="79" y="-240" type="line"/>
      <point x="168" y="-240" type="line"/>
      <point x="168" y="-98" type="line" smooth="yes"/>
      <point x="168" y="-38"/>
      <point x="166" y="13"/>
      <point x="163" y="35" type="curve"/>
      <point x="168" y="35" type="line"/>
      <point x="206" y="6"/>
      <point x="259" y="-10"/>
      <point x="313" y="-10" type="curve" smooth="yes"/>
      <point x="459" y="-10"/>
      <point x="550" y="87"/>
      <point x="550" y="268" type="curve" smooth="yes"/>
      <point x="550" y="448"/>
      <point x="454" y="546"/>
      <point x="318" y="546" type="curve" smooth="yes"/>
      <point x="172" y="546"/>
      <point x="79" y="457"/>
      <point x="79" y="275" type="curve" smooth="yes"/>
    </contour>
    <contour>
      <point x="312" y="63" type="curve" smooth="yes"/>
      <point x="258" y="63"/>
      <point x="206" y="79"/>
      <point x="168" y="112" type="curve"/>
      <point x="168" y="274" type="line" smooth="yes"/>
      <point x="168" y="406"/>
      <point x="215" y="472"/>
      <point x="314" y="472" type="curve" smooth="yes"/>
      <point x="417" y="472"/>
      <point x="460" y="405"/>
      <point x="460" y="268" type="curve" smooth="yes"/>
      <point x="460" y="133"/>
      <point x="417" y="63"/>
    </contour>
  </outline>
</glyph>
<glyph name="sigmafinal" format="2">
  <advance width="484"/>
  <unicode hex="03C2"/>
  <anchor x="242" y="-195" name="bottom"/>
  <anchor x="242" y="536" name="top"/>
  <outline>
    <contour>
      <point x="314" y="-195" type="curve"/>
      <point x="397" y="-195" type="line"/>
      <point x="426" y="-155"/>
      <point x="457" y="-99"/>
      <point x="457" y="-40" type="curve" smooth="yes"/>
      <point x="457" y="15"/>
      <point x="422" y="52"/>
      <point x="319" y="74" type="curve" smooth="yes"/>
      <point x="179" y="104"/>
      <point x="146" y="135"/>
      <point x="146" y="254" type="curve" smooth="yes"/>
      <point x="146" y="394"/>
      <point x="193" y="469"/>
      <point x="309" y="469" type="curve" smooth="yes"/>
      <point x="353" y="469"/>
      <point x="395" y="457"/>
      <point x="430" y="444" type="curve"/>
      <point x="458" y="517" type="line"/>
      <point x="421" y="533"/>
      <point x="366" y="546"/>
      <point x="313" y="546" type="curve" smooth="yes"/>
      <point x="161" y="546"/>
      <point x="55" y="455"/>
      <point x="55" y="253" type="curve" smooth="yes"/>
      <point x="55" y="87"/>
      <point x="142" y="27"/>
      <point x="252" y="6" type="curve" smooth="yes"/>
      <point x="359" y="-14"/>
      <point x="374" y="-34"/>
      <point x="374" y="-62" type="curve" smooth="yes"/>
      <point x="374" y="-99"/>
      <point x="345" y="-153"/>
    </contour>
  </outline>
</glyph>
<glyph name="sigma" format="2">
  <advance width="617"/>
  <unicode hex="03C3"/>
  <anchor x="309" y="0" name="bottom"/>
  <anchor x="309" y="536" name="top"/>
  <outline>
    <contour>
      <point x="301" y="-10" type="curve" smooth="yes"/>
      <point x="465" y="-10"/>
      <point x="550" y="101"/>
      <point x="550" y="246" type="curve" smooth="yes"/>
      <point x="550" y="342"/>
      <point x="515" y="414"/>
      <point x="463" y="463" type="curve"/>
      <point x="593" y="463" type="line"/>
      <point x="593" y="536" type="line"/>
      <point x="346" y="536" type="line" smooth="yes"/>
      <point x="168" y="536"/>
      <point x="55" y="457"/>
      <point x="55" y="256" type="curve" smooth="yes"/>
      <point x="55" y="83"/>
      <point x="153" y="-10"/>
    </contour>
    <contour>
      <point x="303" y="63" type="curve" smooth="yes"/>
      <point x="192" y="63"/>
      <point x="146" y="143"/>
      <point x="146" y="256" type="curve" smooth="yes"/>
      <point x="146" y="407"/>
      <point x="212" y="463"/>
      <point x="346" y="463" type="curve" smooth="yes"/>
      <point x="377" y="463" type="line"/>
      <point x="430" y="405"/>
      <point x="460" y="330"/>
      <point x="460" y="244" type="curve" smooth="yes"/>
      <point x="460" y="139"/>
      <point x="413" y="63"/>
    </contour>
  </outline>
</glyph>
<glyph name="tau" format="2">
  <advance width="479"/>
  <unicode hex="03C4"/>
  <anchor x="240" y="0" name="bottom"/>
  <anchor x="240" y="536" name="top"/>
  <outline>
    <contour>
      <point x="326" y="-11" type="curve" smooth="yes"/>
      <point x="365" y="-11"/>
      <point x="405" y="-3"/>
      <point x="424" y="5" type="curve"/>
      <point x="424" y="71" type="line"/>
      <point x="403" y="65"/>
      <point x="368" y="60"/>
      <point x="339" y="60" type="curve" smooth="yes"/>
      <point x="282" y="60"/>
      <point x="243" y="87"/>
      <point x="243" y="164" type="curve" smooth="yes"/>
      <point x="243" y="462" type="line"/>
      <point x="452" y="462" type="line"/>
      <point x="452" y="536" type="line"/>
      <point x="83" y="536" type="line"/>
      <point x="10" y="501" type="line"/>
      <point x="10" y="462" type="line"/>
      <point x="154" y="462" type="line"/>
      <point x="154" y="155" type="line" smooth="yes"/>
      <point x="154" y="21"/>
      <point x="234" y="-11"/>
    </contour>
  </outline>
</glyph>
<glyph name="upsilon" format="2">
  <advance width="613"/>
  <unicode hex="03C5"/>
  <anchor x="307" y="0" name="bottom"/>
  <anchor x="308" y="536" name="top"/>
  <outline>
    <contour>
      <point x="307" y="-10" type="curve" smooth="yes"/>
      <point x="473" y="-10"/>
      <point x="559" y="85"/>
      <point x="559" y="292" type="curve" smooth="yes"/>
      <point x="559" y="391"/>
      <point x="548" y="457"/>
      <point x="527" y="536" type="curve"/>
      <point x="439" y="536" type="line"/>
      <point x="459" y="456"/>
      <point x="470" y="389"/>
      <point x="470" y="296" type="curve" smooth="yes"/>
      <point x="470" y="136"/>
      <point x="420" y="62"/>
      <point x="314" y="62" type="curve" smooth="yes"/>
      <point x="211" y="62"/>
      <point x="167" y="132"/>
      <point x="167" y="246" type="curve" smooth="yes"/>
      <point x="167" y="536" type="line"/>
      <point x="79" y="536" type="line"/>
      <point x="79" y="243" type="line" smooth="yes"/>
      <point x="79" y="100"/>
      <point x="129" y="-10"/>
    </contour>
  </outline>
</glyph>
<glyph name="phi" format="2">
  <advance width="725"/>
  <unicode hex="03C6"/>
  <anchor x="363" y="-240" name="bottom"/>
  <anchor x="363" y="536" name="top"/>
  <outline>
    <contour>
      <point x="314" y="-240" type="line"/>
      <point x="400" y="-240" type="line"/>
      <point x="400" y="-9" type="line"/>
      <point x="543" y="-1"/>
      <point x="670" y="87"/>
      <point x="670" y="281" type="curve" smooth="yes"/>
      <point x="670" y="439"/>
      <point x="595" y="546"/>
      <point x="472" y="546" type="curve" smooth="yes"/>
      <point x="374" y="546"/>
      <point x="314" y="482"/>
      <point x="314" y="361" type="curve" smooth="yes"/>
      <point x="314" y="63" type="line"/>
      <point x="222" y="72"/>
      <point x="143" y="122"/>
      <point x="143" y="268" type="curve" smooth="yes"/>
      <point x="143" y="361"/>
      <point x="176" y="429"/>
      <point x="225" y="494" type="curve"/>
      <point x="157" y="541" type="line"/>
      <point x="98" y="469"/>
      <point x="55" y="379"/>
      <point x="55" y="271" type="curve" smooth="yes"/>
      <point x="55" y="75"/>
      <point x="166" y="-1"/>
      <point x="314" y="-9" type="curve"/>
    </contour>
    <contour>
      <point x="400" y="63" type="curve"/>
      <point x="400" y="362" type="line" smooth="yes"/>
      <point x="400" y="446"/>
      <point x="434" y="473"/>
      <point x="473" y="473" type="curve" smooth="yes"/>
      <point x="535" y="473"/>
      <point x="581" y="405"/>
      <point x="581" y="280" type="curve" smooth="yes"/>
      <point x="581" y="140"/>
      <point x="502" y="72"/>
    </contour>
  </outline>
</glyph>
<glyph name="chi" format="2">
  <advance width="551"/>
  <unicode hex="03C7"/>
  <anchor x="276" y="-240" name="bottom"/>
  <anchor x="276" y="536" name="top"/>
  <anchor x="531" y="536" name="topright"/>
  <outline>
    <contour>
      <point x="-11" y="-240" type="line"/>
      <point x="83" y="-240" type="line"/>
      <point x="257" y="82" type="line"/>
      <point x="328" y="-104" type="line" smooth="yes"/>
      <point x="360" y="-189"/>
      <point x="393" y="-240"/>
      <point x="483" y="-240" type="curve" smooth="yes"/>
      <point x="511" y="-240"/>
      <point x="530" y="-236"/>
      <point x="545" y="-232" type="curve"/>
      <point x="545" y="-164" type="line"/>
      <point x="533" y="-166"/>
      <point x="517" y="-168"/>
      <point x="500" y="-168" type="curve" smooth="yes"/>
      <point x="451" y="-168"/>
      <point x="432" y="-137"/>
      <point x="408" y="-76" type="curve" smooth="yes"/>
      <point x="315" y="160" type="line"/>
      <point x="525" y="536" type="line"/>
      <point x="431" y="536" type="line"/>
      <point x="278" y="245" type="line"/>
      <point x="210" y="417" type="line" smooth="yes"/>
      <point x="179" y="496"/>
      <point x="156" y="539"/>
      <point x="90" y="539" type="curve" smooth="yes"/>
      <point x="62" y="539"/>
      <point x="42" y="535"/>
      <point x="28" y="531" type="curve"/>
      <point x="28" y="462" type="line"/>
      <point x="37" y="466"/>
      <point x="49" y="468"/>
      <point x="61" y="468" type="curve" smooth="yes"/>
      <point x="95" y="468"/>
      <point x="115" y="436"/>
      <point x="135" y="383" type="curve" smooth="yes"/>
      <point x="217" y="170" type="line"/>
    </contour>
  </outline>
</glyph>
<glyph name="psi" format="2">
  <advance width="761"/>
  <unicode hex="03C8"/>
  <anchor x="381" y="-240" name="bottom"/>
  <anchor x="381" y="759" name="top"/>
  <outline>
    <contour>
      <point x="340" y="-240" type="line"/>
      <point x="426" y="-240" type="line"/>
      <point x="426" y="-9" type="line"/>
      <point x="577" y="0"/>
      <point x="700" y="77"/>
      <point x="700" y="283" type="curve" smooth="yes"/>
      <point x="700" y="371"/>
      <point x="690" y="446"/>
      <point x="669" y="536" type="curve"/>
      <point x="582" y="536" type="line"/>
      <point x="603" y="443"/>
      <point x="614" y="372"/>
      <point x="614" y="280" type="curve" smooth="yes"/>
      <point x="614" y="139"/>
      <point x="539" y="75"/>
      <point x="426" y="65" type="curve"/>
      <point x="426" y="759" type="line"/>
      <point x="340" y="759" type="line"/>
      <point x="340" y="64" type="line"/>
      <point x="247" y="71"/>
      <point x="166" y="116"/>
      <point x="166" y="267" type="curve" smooth="yes"/>
      <point x="166" y="536" type="line"/>
      <point x="79" y="536" type="line"/>
      <point x="79" y="270" type="line" smooth="yes"/>
      <point x="79" y="71"/>
      <point x="188" y="-3"/>
      <point x="340" y="-9" type="curve"/>
    </contour>
  </outline>
</glyph>
<glyph name="omega" format="2">
  <advance width="782"/>
  <unicode hex="03C9"/>
  <anchor x="391" y="0" name="bottom"/>
  <anchor x="389" y="536" name="top"/>
  <outline>
    <contour>
      <point x="247" y="-10" type="curve" smooth="yes"/>
      <point x="321" y="-10"/>
      <point x="367" y="21"/>
      <point x="388" y="80" type="curve"/>
      <point x="393" y="80" type="line"/>
      <point x="415" y="21"/>
      <point x="461" y="-10"/>
      <point x="535" y="-10" type="curve" smooth="yes"/>
      <point x="659" y="-10"/>
      <point x="726" y="99"/>
      <point x="726" y="260" type="curve" smooth="yes"/>
      <point x="726" y="364"/>
      <point x="708" y="443"/>
      <point x="667" y="536" type="curve"/>
      <point x="577" y="536" type="line"/>
      <point x="619" y="442"/>
      <point x="638" y="365"/>
      <point x="638" y="259" type="curve" smooth="yes"/>
      <point x="638" y="130"/>
      <point x="595" y="63"/>
      <point x="528" y="63" type="curve" smooth="yes"/>
      <point x="468" y="63"/>
      <point x="433" y="110"/>
      <point x="433" y="193" type="curve" smooth="yes"/>
      <point x="433" y="344" type="line"/>
      <point x="349" y="344" type="line"/>
      <point x="349" y="193" type="line" smooth="yes"/>
      <point x="349" y="118"/>
      <point x="319" y="63"/>
      <point x="253" y="63" type="curve" smooth="yes"/>
      <point x="187" y="63"/>
      <point x="144" y="130"/>
      <point x="144" y="259" type="curve" smooth="yes"/>
      <point x="144" y="365"/>
      <point x="163" y="442"/>
      <point x="205" y="536" type="curve"/>
      <point x="115" y="536" type="line"/>
      <point x="74" y="443"/>
      <point x="56" y="364"/>
      <point x="56" y="260" type="curve" smooth="yes"/>
      <point x="56" y="99"/>
      <point x="123" y="-10"/>
    </contour>
  </outline>
</glyph>
<glyph name="thetaSymbol" format="2">
  <advance width="623"/>
  <unicode hex="03D1"/>
  <outline>
    <contour>
      <point x="273" y="-10" type="curve" smooth="yes"/>
      <point x="458" y="-10"/>
      <point x="546" y="143"/>
      <point x="546" y="353" type="curve" smooth="yes"/>
      <point x="546" y="373"/>
      <point x="545" y="391"/>
      <point x="544" y="406" type="curve"/>
      <point x="608" y="406" type="line"/>
      <point x="608" y="479" type="line"/>
      <point x="538" y="479" type="line"/>
      <point x="514" y="655"/>
      <point x="434" y="765"/>
      <point x="288" y="765" type="curve" smooth="yes"/>
      <point x="167" y="765"/>
      <point x="114" y="700"/>
      <point x="114" y="616" type="curve" smooth="yes"/>
      <point x="114" y="500"/>
      <point x="206" y="409"/>
      <point x="455" y="406" type="curve"/>
      <point x="456" y="392"/>
      <point x="457" y="371"/>
      <point x="457" y="356" type="curve" smooth="yes"/>
      <point x="457" y="159"/>
      <point x="394" y="61"/>
      <point x="276" y="61" type="curve" smooth="yes"/>
      <point x="202" y="61"/>
      <point x="174" y="113"/>
      <point x="174" y="169" type="curve" smooth="yes"/>
      <point x="174" y="198"/>
      <point x="177" y="226"/>
      <point x="181" y="252" type="curve" smooth="yes"/>
      <point x="185" y="280"/>
      <point x="188" y="306"/>
      <point x="188" y="329" type="curve" smooth="yes"/>
      <point x="188" y="381"/>
      <point x="165" y="420"/>
      <point x="99" y="420" type="curve" smooth="yes"/>
      <point x="64" y="420"/>
      <point x="30" y="410"/>
      <point x="6" y="399" type="curve"/>
      <point x="25" y="337" type="line"/>
      <point x="35" y="343"/>
      <point x="54" y="350"/>
      <point x="70" y="350" type="curve" smooth="yes"/>
      <point x="91" y="350"/>
      <point x="103" y="340"/>
      <point x="103" y="310" type="curve" smooth="yes"/>
      <point x="103" y="296"/>
      <point x="101" y="277"/>
      <point x="97" y="255" type="curve" smooth="yes"/>
      <point x="92" y="228"/>
      <point x="89" y="197"/>
      <point x="89" y="167" type="curve" smooth="yes"/>
      <point x="89" y="77"/>
      <point x="130" y="-10"/>
    </contour>
    <contour>
      <point x="449" y="479" type="curve"/>
      <point x="264" y="481"/>
      <point x="199" y="537"/>
      <point x="199" y="611" type="curve" smooth="yes"/>
      <point x="199" y="662"/>
      <point x="227" y="693"/>
      <point x="285" y="693" type="curve" smooth="yes"/>
      <point x="369" y="693"/>
      <point x="432" y="616"/>
    </contour>
  </outline>
</glyph>
<glyph name="phiSymbol" format="2">
  <advance width="725"/>
  <unicode hex="03D5"/>
  <anchor x="363" y="-240" name="bottom"/>
  <anchor x="363" y="760" name="top"/>
  <anchor x="705" y="760" name="topright"/>
  <outline>
    <contour>
      <point x="319" y="-240" type="line"/>
      <point x="405" y="-240" type="line"/>
      <point x="405" y="-8" type="line"/>
      <point x="570" y="6"/>
      <point x="670" y="106"/>
      <point x="670" y="268" type="curve" smooth="yes"/>
      <point x="670" y="430"/>
      <point x="564" y="529"/>
      <point x="405" y="544" type="curve"/>
      <point x="405" y="760" type="line"/>
      <point x="322" y="760" type="line"/>
      <point x="322" y="544" type="line"/>
      <point x="153" y="531"/>
      <point x="54" y="431"/>
      <point x="54" y="268" type="curve" smooth="yes"/>
      <point x="54" y="105"/>
      <point x="160" y="5"/>
      <point x="319" y="-8" type="curve"/>
    </contour>
    <contour>
      <point x="322" y="64" type="line"/>
      <point x="200" y="76"/>
      <point x="146" y="147"/>
      <point x="146" y="268" type="curve" smooth="yes"/>
      <point x="146" y="389"/>
      <point x="199" y="459"/>
      <point x="322" y="471" type="curve"/>
    </contour>
    <contour>
      <point x="405" y="64" type="curve"/>
      <point x="405" y="470" type="line"/>
      <point x="523" y="457"/>
      <point x="579" y="388"/>
      <point x="579" y="268" type="curve" smooth="yes"/>
      <point x="579" y="148"/>
      <point x="525" y="77"/>
    </contour>
  </outline>
</glyph>
<glyph name="piSymbol" format="2">
  <advance width="856"/>
  <unicode hex="03D6"/>
  <outline>
    <contour>
      <point x="277" y="-10" type="curve" smooth="yes"/>
      <point x="350" y="-10"/>
      <point x="396" y="21"/>
      <point x="419" y="80" type="curve"/>
      <point x="423" y="80" type="line"/>
      <point x="445" y="21"/>
      <point x="491" y="-10"/>
      <point x="565" y="-10" type="curve" smooth="yes"/>
      <point x="689" y="-10"/>
      <point x="757" y="66"/>
      <point x="757" y="222" type="curve" smooth="yes"/>
      <point x="757" y="301"/>
      <point x="737" y="385"/>
      <point x="702" y="463" type="curve"/>
      <point x="825" y="463" type="line"/>
      <point x="825" y="536" type="line"/>
      <point x="81" y="536" type="line"/>
      <point x="11" y="501" type="line"/>
      <point x="11" y="463" type="line"/>
      <point x="148" y="463" type="line"/>
      <point x="111" y="386"/>
      <point x="86" y="301"/>
      <point x="86" y="222" type="curve" smooth="yes"/>
      <point x="86" y="66"/>
      <point x="154" y="-10"/>
    </contour>
    <contour>
      <point x="283" y="63" type="curve" smooth="yes"/>
      <point x="216" y="63"/>
      <point x="174" y="103"/>
      <point x="174" y="227" type="curve" smooth="yes"/>
      <point x="174" y="306"/>
      <point x="202" y="393"/>
      <point x="234" y="463" type="curve"/>
      <point x="616" y="463" type="line"/>
      <point x="649" y="390"/>
      <point x="668" y="306"/>
      <point x="668" y="227" type="curve" smooth="yes"/>
      <point x="668" y="104"/>
      <point x="627" y="63"/>
      <point x="560" y="63" type="curve" smooth="yes"/>
      <point x="501" y="63"/>
      <point x="464" y="110"/>
      <point x="464" y="193" type="curve" smooth="yes"/>
      <point x="464" y="282" type="line"/>
      <point x="379" y="282" type="line"/>
      <point x="379" y="193" type="line" smooth="yes"/>
      <point x="379" y="118"/>
      <point x="347" y="63"/>
    </contour>
  </outline>
</glyph>
<glyph name="kappaSymbol" format="2">
  <advance width="650"/>
  <unicode hex="03F0"/>
  <anchor x="325" y="0" name="bottom"/>
  <anchor x="325" y="536" name="top"/>
  <outline>
    <contour>
      <point x="576" y="-10" type="curve" smooth="yes"/>
      <point x="602" y="-10"/>
      <point x="622" y="-5"/>
      <point x="640" y="2" type="curve"/>
      <point x="640" y="71" type="line"/>
      <point x="630" y="67"/>
      <point x="612" y="63"/>
      <point x="596" y="63" type="curve" smooth="yes"/>
      <point x="543" y="63"/>
      <point x="507" y="99"/>
      <point x="507" y="216" type="curve" smooth="yes"/>
      <point x="507" y="342"/>
      <point x="544" y="462"/>
      <point x="581" y="536" type="curve"/>
      <point x="493" y="536" type="line"/>
      <point x="216" y="186" type="line"/>
      <point x="229" y="228"/>
      <point x="234" y="275"/>
      <point x="234" y="316" type="curve" smooth="yes"/>
      <point x="234" y="474"/>
      <point x="175" y="546"/>
      <point x="71" y="546" type="curve" smooth="yes"/>
      <point x="38" y="546"/>
      <point x="13" y="541"/>
      <point x="-5" y="534" type="curve"/>
      <point x="19" y="465" type="line"/>
      <point x="28" y="469"/>
      <point x="40" y="473"/>
      <point x="58" y="473" type="curve" smooth="yes"/>
      <point x="105" y="473"/>
      <point x="146" y="432"/>
      <point x="146" y="320" type="curve" smooth="yes"/>
      <point x="146" y="194"/>
      <point x="109" y="74"/>
      <point x="73" y="0" type="curve"/>
      <point x="163" y="0" type="line"/>
      <point x="437" y="350" type="line"/>
      <point x="424" y="309"/>
      <point x="419" y="261"/>
      <point x="419" y="220" type="curve" smooth="yes"/>
      <point x="419" y="62"/>
      <point x="476" y="-10"/>
    </contour>
  </outline>
</glyph>
<glyph name="rhoSymbol" format="2">
  <advance width="605"/>
  <unicode hex="03F1"/>
  <anchor x="303" y="-240" name="bottom"/>
  <anchor x="303" y="536" name="top"/>
  <outline>
    <contour>
      <point x="370" y="-240" type="curve"/>
      <point x="447" y="-240" type="line"/>
      <point x="453" y="-222"/>
      <point x="457" y="-210"/>
      <point x="457" y="-191" type="curve" smooth="yes"/>
      <point x="457" y="-136"/>
      <point x="430" y="-118"/>
      <point x="296" y="-118" type="curve" smooth="yes"/>
      <point x="203" y="-118"/>
      <point x="164" y="-89"/>
      <point x="149" y="52" type="curve"/>
      <point x="154" y="52" type="line"/>
      <point x="201" y="8"/>
      <point x="235" y="-10"/>
      <point x="313" y="-10" type="curve" smooth="yes"/>
      <point x="459" y="-10"/>
      <point x="550" y="87"/>
      <point x="550" y="268" type="curve" smooth="yes"/>
      <point x="550" y="448"/>
      <point x="454" y="546"/>
      <point x="318" y="546" type="curve" smooth="yes"/>
      <point x="141" y="546"/>
      <point x="55" y="409"/>
      <point x="55" y="178" type="curve" smooth="yes"/>
      <point x="55" y="-107"/>
      <point x="124" y="-191"/>
      <point x="283" y="-191" type="curve" smooth="yes"/>
      <point x="365" y="-191"/>
      <point x="374" y="-197"/>
      <point x="374" y="-217" type="curve" smooth="yes"/>
      <point x="374" y="-225"/>
      <point x="373" y="-231"/>
    </contour>
    <contour>
      <point x="312" y="63" type="curve" smooth="yes"/>
      <point x="243" y="63"/>
      <point x="200" y="79"/>
      <point x="146" y="125" type="curve"/>
      <point x="144" y="147"/>
      <point x="144" y="158"/>
      <point x="144" y="179" type="curve" smooth="yes"/>
      <point x="146" y="388"/>
      <point x="212" y="473"/>
      <point x="314" y="473" type="curve" smooth="yes"/>
      <point x="417" y="473"/>
      <point x="460" y="405"/>
      <point x="460" y="268" type="curve" smooth="yes"/>
      <point x="460" y="133"/>
      <point x="417" y="63"/>
    </contour>
  </outline>
</glyph>
<glyph name="epsilonLunateSymbol" format="2">
  <advance width="495"/>
  <unicode hex="03F5"/>
  <anchor x="248" y="0" name="bottom"/>
  <anchor x="248" y="536" name="top"/>
  <outline>
    <contour>
      <point x="310" y="-10" type="curve" smooth="yes"/>
      <point x="372" y="-10"/>
      <point x="415" y="0"/>
      <point x="453" y="19" type="curve"/>
      <point x="453" y="95" type="line"/>
      <point x="413" y="79"/>
      <point x="368" y="65"/>
      <point x="308" y="65" type="curve" smooth="yes"/>
      <point x="204" y="65"/>
      <point x="151" y="121"/>
      <point x="145" y="240" type="curve"/>
      <point x="409" y="240" type="line"/>
      <point x="409" y="312" type="line"/>
      <point x="146" y="312" type="line"/>
      <point x="157" y="419"/>
      <point x="208" y="470"/>
      <point x="311" y="470" type="curve" smooth="yes"/>
      <point x="349" y="470"/>
      <point x="398" y="459"/>
      <point x="435" y="445" type="curve"/>
      <point x="461" y="517" type="line"/>
      <point x="423" y="534"/>
      <point x="367" y="546"/>
      <point x="313" y="546" type="curve" smooth="yes"/>
      <point x="166" y="546"/>
      <point x="55" y="465"/>
      <point x="55" y="265" type="curve" smooth="yes"/>
      <point x="55" y="72"/>
      <point x="162" y="-10"/>
    </contour>
  </outline>
</glyph>
<glyph name="minute" format="2">
  <advance width="232"/>
  <unicode hex="2032"/>
  <outline>
    <contour>
      <point x="39" y="456" type="line"/>
      <point x="97" y="456" type="line"/>
      <point x="258" y="714" type="line"/>
      <point x="168" y="714" type="line"/>
    </contour>
  </outline>
</glyph>
<glyph name="second" format="2">
  <advance width="408"/>
  <unicode hex="2033"/>
  <outline>
    <contour>
      <point x="215" y="456" type="line"/>
      <point x="273" y="456" type="line"/>
      <point x="434" y="714" type="line"/>
      <point x="344" y="714" type="line"/>
    </contour>
    <contour>
      <point x="39" y="456" type="line"/>
      <point x="97" y="456" type="line"/>
      <point x="258" y="714" type="line"/>
      <point x="168" y="714" type="line"/>
    </contour>
  </outline>
</glyph>
<glyph name="tripleprime" format="2">
  <advance width="584"/>
  <unicode hex="2034"/>
  <outline>
    <contour>
      <point x="391" y="456" type="line"/>
      <point x="449" y="456" type="line"/>
      <point x="610" y="714" type="line"/>
      <point x="520" y="714" type="line"/>
    </contour>
    <contour>
      <point x="39" y="456" type="line"/>
      <point x="97" y="456" type="line"/>
      <point x="258" y="714" type="line"/>
      <point x="168" y="714" type="line"/>
    </contour>
    <contour>
      <point x="215" y="456" type="line"/>
      <point x="273" y="456" type="line"/>
      <point x="434" y="714" type="line"/>
      <point x="344" y="714" type="line"/>
    </contour>
  </outline>
</glyph>
<glyph name="primeReversed" format="2">
  <advance width="232"/>
  <unicode hex="2035"/>
  <outline>
    <contour>
      <point x="135" y="456" type="line"/>
      <point x="193" y="456" type="line"/>
      <point x="64" y="714" type="line"/>
      <point x="-26" y="714" type="line"/>
    </contour>
  </outline>
</glyph>
<glyph name="rightharpoonabovecomb" format="2">
  <unicode hex="20D1"/>
  <note>
uni20D1
</note>
  <outline>
    <contour>
      <point x="-177" y="608" type="line"/>
      <point x="197" y="608" type="line"/>
      <point x="53" y="730" type="line"/>
      <point x="53" y="668" type="line"/>
      <point x="-177" y="668" type="line"/>
    </contour>
  </outline>
</glyph>
<glyph name="longverticallineoverlaycomb" format="2">
  <unicode hex="20D2"/>
  <note>
uni20D2
</note>
  <outline>
    <contour>
      <point x="-45" y="-178" type="line"/>
      <point x="45" y="-178" type="line"/>
      <point x="45" y="714" type="line"/>
      <point x="-45" y="714" type="line"/>
    </contour>
  </outline>
</glyph>
<glyph name="shortverticallineoverlaycomb" format="2">
  <unicode hex="20D3"/>
  <note>
uni20D3
</note>
  <outline>
    <contour>
      <point x="-39" y="-48" type="line"/>
      <point x="41" y="-48" type="line"/>
      <point x="41" y="584" type="line"/>
      <point x="-39" y="584" type="line"/>
    </contour>
  </outline>
</glyph>
<glyph name="anticlockwisearrowabovecomb" format="2">
  <unicode hex="20D4"/>
  <note>
uni20D4
</note>
  <outline>
    <contour>
      <point x="-304" y="608" type="line"/>
      <point x="-173" y="608" type="line"/>
      <point x="-218" y="652" type="line"/>
      <point x="-162" y="714"/>
      <point x="-78" y="746"/>
      <point x="10" y="746" type="curve" smooth="yes"/>
      <point x="111" y="746"/>
      <point x="203" y="701"/>
      <point x="254" y="630" type="curve"/>
      <point x="304" y="662" type="line"/>
      <point x="237" y="751"/>
      <point x="129" y="805"/>
      <point x="10" y="805" type="curve" smooth="yes"/>
      <point x="-97" y="805"/>
      <point x="-187" y="769"/>
      <point x="-260" y="695" type="curve"/>
      <point x="-304" y="739" type="line"/>
    </contour>
  </outline>
</glyph>
<glyph name="clockwisearrowabovecomb" format="2">
  <unicode hex="20D5"/>
  <note>
uni20D5
</note>
  <outline>
    <contour>
      <point x="173" y="608" type="line"/>
      <point x="304" y="608" type="line"/>
      <point x="304" y="739" type="line"/>
      <point x="260" y="695" type="line"/>
      <point x="187" y="769"/>
      <point x="97" y="805"/>
      <point x="-10" y="805" type="curve" smooth="yes"/>
      <point x="-130" y="805"/>
      <point x="-238" y="750"/>
      <point x="-304" y="662" type="curve"/>
      <point x="-254" y="630" type="line"/>
      <point x="-203" y="701"/>
      <point x="-111" y="746"/>
      <point x="-10" y="746" type="curve" smooth="yes"/>
      <point x="78" y="746"/>
      <point x="162" y="714"/>
      <point x="218" y="652" type="curve"/>
    </contour>
  </outline>
</glyph>
<glyph name="leftarrowabovecomb" format="2">
  <unicode hex="20D6"/>
  <note>
uni20D6
</note>
  <outline>
    <contour>
      <point x="-89" y="608" type="line"/>
      <point x="-89" y="670" type="line"/>
      <point x="148" y="670" type="line"/>
      <point x="148" y="730" type="line"/>
      <point x="-89" y="730" type="line"/>
      <point x="-89" y="792" type="line"/>
      <point x="-214" y="700" type="line"/>
    </contour>
  </outline>
</glyph>
<glyph name="rightarrowabovecomb" format="2">
  <unicode hex="20D7"/>
  <note>
uni20D7
</note>
  <outline>
    <contour>
      <point x="89" y="608" type="line"/>
      <point x="214" y="700" type="line"/>
      <point x="89" y="792" type="line"/>
      <point x="89" y="730" type="line"/>
      <point x="-148" y="730" type="line"/>
      <point x="-148" y="670" type="line"/>
      <point x="89" y="670" type="line"/>
    </contour>
  </outline>
</glyph>
<glyph name="clockwiseringoverlaycomb" format="2">
  <unicode hex="20D9"/>
  <note>
uni20D9
</note>
  <outline>
    <contour>
      <point x="0" y="41" type="curve" smooth="yes"/>
      <point x="125" y="41"/>
      <point x="227" y="143"/>
      <point x="227" y="268" type="curve" smooth="yes"/>
      <point x="227" y="313"/>
      <point x="215" y="354"/>
      <point x="191" y="390" type="curve"/>
      <point x="191" y="502" type="line"/>
      <point x="137" y="448" type="line"/>
      <point x="96" y="479"/>
      <point x="50" y="495"/>
      <point x="0" y="495" type="curve" smooth="yes"/>
      <point x="-125" y="495"/>
      <point x="-227" y="393"/>
      <point x="-227" y="268" type="curve" smooth="yes"/>
      <point x="-227" y="143"/>
      <point x="-125" y="41"/>
    </contour>
    <contour>
      <point x="0" y="99" type="curve" smooth="yes"/>
      <point x="-91" y="99"/>
      <point x="-169" y="177"/>
      <point x="-169" y="268" type="curve" smooth="yes"/>
      <point x="-169" y="359"/>
      <point x="-91" y="437"/>
      <point x="0" y="437" type="curve" smooth="yes"/>
      <point x="35" y="437"/>
      <point x="66" y="427"/>
      <point x="96" y="407" type="curve"/>
      <point x="40" y="351" type="line"/>
      <point x="147" y="351" type="line"/>
      <point x="162" y="325"/>
      <point x="169" y="297"/>
      <point x="169" y="268" type="curve" smooth="yes"/>
      <point x="169" y="177"/>
      <point x="91" y="99"/>
    </contour>
  </outline>
</glyph>
<glyph name="anticlockwiseringoverlaycomb" format="2">
  <unicode hex="20DA"/>
  <note>
uni20DA
</note>
  <outline>
    <contour>
      <point x="191" y="34" type="line"/>
      <point x="191" y="146" type="line"/>
      <point x="215" y="183"/>
      <point x="227" y="224"/>
      <point x="227" y="268" type="curve" smooth="yes"/>
      <point x="227" y="393"/>
      <point x="125" y="495"/>
      <point x="0" y="495" type="curve" smooth="yes"/>
      <point x="-125" y="495"/>
      <point x="-227" y="393"/>
      <point x="-227" y="268" type="curve" smooth="yes"/>
      <point x="-227" y="143"/>
      <point x="-125" y="41"/>
      <point x="0" y="41" type="curve" smooth="yes"/>
      <point x="50" y="41"/>
      <point x="96" y="57"/>
      <point x="137" y="88" type="curve"/>
    </contour>
    <contour>
      <point x="0" y="99" type="curve" smooth="yes"/>
      <point x="-91" y="99"/>
      <point x="-169" y="177"/>
      <point x="-169" y="268" type="curve" smooth="yes"/>
      <point x="-169" y="359"/>
      <point x="-91" y="437"/>
      <point x="0" y="437" type="curve" smooth="yes"/>
      <point x="91" y="437"/>
      <point x="169" y="359"/>
      <point x="169" y="268" type="curve" smooth="yes"/>
      <point x="169" y="239"/>
      <point x="162" y="211"/>
      <point x="147" y="185" type="curve"/>
      <point x="40" y="185" type="line"/>
      <point x="96" y="129" type="line"/>
      <point x="66" y="109"/>
      <point x="35" y="99"/>
    </contour>
  </outline>
</glyph>
<glyph name="threedotsabovecomb" format="2">
  <unicode hex="20DB"/>
  <note>
uni20DB
</note>
  <outline>
    <contour>
      <point x="191" y="625" type="curve" smooth="yes"/>
      <point x="218" y="625"/>
      <point x="242" y="642"/>
      <point x="242" y="681" type="curve" smooth="yes"/>
      <point x="242" y="720"/>
      <point x="218" y="737"/>
      <point x="191" y="737" type="curve" smooth="yes"/>
      <point x="162" y="737"/>
      <point x="139" y="720"/>
      <point x="139" y="681" type="curve" smooth="yes"/>
      <point x="139" y="642"/>
      <point x="162" y="625"/>
    </contour>
    <contour>
      <point x="-191" y="625" type="curve" smooth="yes"/>
      <point x="-164" y="625"/>
      <point x="-140" y="642"/>
      <point x="-140" y="681" type="curve" smooth="yes"/>
      <point x="-140" y="720"/>
      <point x="-164" y="737"/>
      <point x="-191" y="737" type="curve" smooth="yes"/>
      <point x="-220" y="737"/>
      <point x="-243" y="720"/>
      <point x="-243" y="681" type="curve" smooth="yes"/>
      <point x="-243" y="642"/>
      <point x="-220" y="625"/>
    </contour>
    <contour>
      <point x="0" y="625" type="curve" smooth="yes"/>
      <point x="27" y="625"/>
      <point x="51" y="642"/>
      <point x="51" y="681" type="curve" smooth="yes"/>
      <point x="51" y="720"/>
      <point x="27" y="737"/>
      <point x="0" y="737" type="curve" smooth="yes"/>
      <point x="-29" y="737"/>
      <point x="-52" y="720"/>
      <point x="-52" y="681" type="curve" smooth="yes"/>
      <point x="-52" y="642"/>
      <point x="-29" y="625"/>
    </contour>
  </outline>
</glyph>
<glyph name="fourdotsabovecomb" format="2">
  <unicode hex="20DC"/>
  <note>
uni20DC
</note>
  <outline>
    <contour>
      <point x="286" y="625" type="curve" smooth="yes"/>
      <point x="313" y="625"/>
      <point x="337" y="642"/>
      <point x="337" y="681" type="curve" smooth="yes"/>
      <point x="337" y="720"/>
      <point x="313" y="737"/>
      <point x="286" y="737" type="curve" smooth="yes"/>
      <point x="257" y="737"/>
      <point x="234" y="720"/>
      <point x="234" y="681" type="curve" smooth="yes"/>
      <point x="234" y="642"/>
      <point x="257" y="625"/>
    </contour>
    <contour>
      <point x="-287" y="625" type="curve" smooth="yes"/>
      <point x="-260" y="625"/>
      <point x="-236" y="642"/>
      <point x="-236" y="681" type="curve" smooth="yes"/>
      <point x="-236" y="720"/>
      <point x="-260" y="737"/>
      <point x="-287" y="737" type="curve" smooth="yes"/>
      <point x="-316" y="737"/>
      <point x="-339" y="720"/>
      <point x="-339" y="681" type="curve" smooth="yes"/>
      <point x="-339" y="642"/>
      <point x="-316" y="625"/>
    </contour>
    <contour>
      <point x="-96" y="625" type="curve" smooth="yes"/>
      <point x="-69" y="625"/>
      <point x="-45" y="642"/>
      <point x="-45" y="681" type="curve" smooth="yes"/>
      <point x="-45" y="720"/>
      <point x="-69" y="737"/>
      <point x="-96" y="737" type="curve" smooth="yes"/>
      <point x="-125" y="737"/>
      <point x="-148" y="720"/>
      <point x="-148" y="681" type="curve" smooth="yes"/>
      <point x="-148" y="642"/>
      <point x="-125" y="625"/>
    </contour>
    <contour>
      <point x="95" y="625" type="curve" smooth="yes"/>
      <point x="122" y="625"/>
      <point x="146" y="642"/>
      <point x="146" y="681" type="curve" smooth="yes"/>
      <point x="146" y="720"/>
      <point x="122" y="737"/>
      <point x="95" y="737" type="curve" smooth="yes"/>
      <point x="66" y="737"/>
      <point x="43" y="720"/>
      <point x="43" y="681" type="curve" smooth="yes"/>
      <point x="43" y="642"/>
      <point x="66" y="625"/>
    </contour>
  </outline>
</glyph>
<glyph name="leftrightarrowabovecomb" format="2">
  <unicode hex="20E1"/>
  <note>
uni20E1
</note>
  <outline>
    <contour>
      <point x="-119" y="608" type="line"/>
      <point x="-119" y="670" type="line"/>
      <point x="118" y="670" type="line"/>
      <point x="118" y="608" type="line"/>
      <point x="243" y="700" type="line"/>
      <point x="118" y="792" type="line"/>
      <point x="118" y="730" type="line"/>
      <point x="-119" y="730" type="line"/>
      <point x="-119" y="792" type="line"/>
      <point x="-244" y="700" type="line"/>
    </contour>
  </outline>
</glyph>
<glyph name="reversesolidusoverlaycomb" format="2">
  <unicode hex="20E5"/>
  <note>
uni20E5
</note>
  <outline>
    <contour>
      <point x="89" y="0" type="line"/>
      <point x="176" y="0" type="line"/>
      <point x="-91" y="714" type="line"/>
      <point x="-177" y="714" type="line"/>
    </contour>
  </outline>
</glyph>
<glyph name="doubleverticalstrokeoverlaycomb" format="2">
  <unicode hex="20E6"/>
  <note>
uni20E6
</note>
  <outline>
    <contour>
      <point x="73" y="-241" type="line"/>
      <point x="146" y="-241" type="line"/>
      <point x="146" y="760" type="line"/>
      <point x="73" y="760" type="line"/>
    </contour>
    <contour>
      <point x="-147" y="-241" type="line"/>
      <point x="-74" y="-241" type="line"/>
      <point x="-74" y="760" type="line"/>
      <point x="-147" y="760" type="line"/>
    </contour>
  </outline>
</glyph>
<glyph name="AnnuitySymbol" format="2">
  <unicode hex="20E7"/>
  <note>
uni20E7
</note>
  <outline>
    <contour>
      <point x="314" y="-87" type="line"/>
      <point x="377" y="-87" type="line"/>
      <point x="377" y="644" type="line"/>
      <point x="-354" y="644" type="line"/>
      <point x="-354" y="581" type="line"/>
      <point x="314" y="581" type="line"/>
    </contour>
  </outline>
</glyph>
<glyph name="tripleunderdotcomb" format="2">
  <unicode hex="20E8"/>
  <note>
uni20E8
</note>
  <outline>
    <contour>
      <point x="191" y="-188" type="curve" smooth="yes"/>
      <point x="218" y="-188"/>
      <point x="242" y="-171"/>
      <point x="242" y="-132" type="curve" smooth="yes"/>
      <point x="242" y="-93"/>
      <point x="218" y="-76"/>
      <point x="191" y="-76" type="curve" smooth="yes"/>
      <point x="162" y="-76"/>
      <point x="139" y="-93"/>
      <point x="139" y="-132" type="curve" smooth="yes"/>
      <point x="139" y="-171"/>
      <point x="162" y="-188"/>
    </contour>
    <contour>
      <point x="-191" y="-188" type="curve" smooth="yes"/>
      <point x="-164" y="-188"/>
      <point x="-140" y="-171"/>
      <point x="-140" y="-132" type="curve" smooth="yes"/>
      <point x="-140" y="-93"/>
      <point x="-164" y="-76"/>
      <point x="-191" y="-76" type="curve" smooth="yes"/>
      <point x="-220" y="-76"/>
      <point x="-243" y="-93"/>
      <point x="-243" y="-132" type="curve" smooth="yes"/>
      <point x="-243" y="-171"/>
      <point x="-220" y="-188"/>
    </contour>
    <contour>
      <point x="0" y="-188" type="curve" smooth="yes"/>
      <point x="27" y="-188"/>
      <point x="51" y="-171"/>
      <point x="51" y="-132" type="curve" smooth="yes"/>
      <point x="51" y="-93"/>
      <point x="27" y="-76"/>
      <point x="0" y="-76" type="curve" smooth="yes"/>
      <point x="-29" y="-76"/>
      <point x="-52" y="-93"/>
      <point x="-52" y="-132" type="curve" smooth="yes"/>
      <point x="-52" y="-171"/>
      <point x="-29" y="-188"/>
    </contour>
  </outline>
</glyph>
<glyph name="widebridgeabovecomb" format="2">
  <unicode hex="20E9"/>
  <note>
uni20E9
</note>
  <outline>
    <contour>
      <point x="-223" y="606" type="line"/>
      <point x="-167" y="606" type="line"/>
      <point x="-167" y="705" type="line"/>
      <point x="166" y="705" type="line"/>
      <point x="166" y="606" type="line"/>
      <point x="223" y="606" type="line"/>
      <point x="223" y="771" type="line"/>
      <point x="-223" y="771" type="line"/>
    </contour>
  </outline>
</glyph>
<glyph name="leftarrowoverlaycomb" format="2">
  <unicode hex="20EA"/>
  <note>
uni20EA
</note>
  <outline>
    <contour>
      <point x="-164" y="169" type="curve"/>
      <point x="-129" y="169" type="line"/>
      <point x="-149" y="211"/>
      <point x="-168" y="243"/>
      <point x="-187" y="265" type="curve"/>
      <point x="296" y="265" type="line"/>
      <point x="296" y="307" type="line"/>
      <point x="-187" y="307" type="line"/>
      <point x="-168" y="329"/>
      <point x="-149" y="361"/>
      <point x="-129" y="403" type="curve"/>
      <point x="-164" y="403" type="line"/>
      <point x="-206" y="354"/>
      <point x="-250" y="318"/>
      <point x="-296" y="295" type="curve"/>
      <point x="-296" y="277" type="line"/>
      <point x="-250" y="254"/>
      <point x="-206" y="218"/>
    </contour>
  </outline>
</glyph>
<glyph name="longdoublesolidusoverlaycomb" format="2">
  <unicode hex="20EB"/>
  <note>
uni20EB
</note>
  <outline>
    <contour>
      <point x="-82" y="0" type="line"/>
      <point x="5" y="0" type="line"/>
      <point x="271" y="714" type="line"/>
      <point x="185" y="714" type="line"/>
    </contour>
    <contour>
      <point x="-272" y="0" type="line"/>
      <point x="-185" y="0" type="line"/>
      <point x="81" y="714" type="line"/>
      <point x="-5" y="714" type="line"/>
    </contour>
  </outline>
</glyph>
<glyph name="leftharpoonwithbarbdowncomb" format="2">
  <unicode hex="20ED"/>
  <note>
uni20ED
</note>
  <outline>
    <contour>
      <point x="-43" y="-198" type="line"/>
      <point x="-43" y="-136" type="line"/>
      <point x="187" y="-136" type="line"/>
      <point x="187" y="-76" type="line"/>
      <point x="-187" y="-76" type="line"/>
    </contour>
  </outline>
</glyph>
<glyph name="rightarrowbelowcomb" format="2">
  <unicode hex="20EF"/>
  <note>
uni20EF
</note>
  <outline>
    <contour>
      <point x="56" y="-219" type="line"/>
      <point x="181" y="-127" type="line"/>
      <point x="56" y="-35" type="line"/>
      <point x="56" y="-97" type="line"/>
      <point x="-181" y="-97" type="line"/>
      <point x="-181" y="-157" type="line"/>
      <point x="56" y="-157" type="line"/>
    </contour>
  </outline>
</glyph>
<glyph name="CdoubleStruck" format="2">
  <advance width="632"/>
  <unicode hex="2102"/>
  <outline>
    <contour>
      <point x="382" y="-10" type="curve" smooth="yes"/>
      <point x="445" y="-10"/>
      <point x="499" y="-6"/>
      <point x="562" y="8" type="curve"/>
      <point x="562" y="67" type="line"/>
      <point x="506" y="52"/>
      <point x="446" y="43"/>
      <point x="391" y="43" type="curve" smooth="yes"/>
      <point x="332" y="43"/>
      <point x="282" y="54"/>
      <point x="242" y="74" type="curve"/>
      <point x="242" y="636" type="line"/>
      <point x="283" y="659"/>
      <point x="333" y="672"/>
      <point x="391" y="672" type="curve" smooth="yes"/>
      <point x="445" y="672"/>
      <point x="504" y="660"/>
      <point x="556" y="638" type="curve"/>
      <point x="582" y="694" type="line"/>
      <point x="518" y="719"/>
      <point x="457" y="725"/>
      <point x="393" y="725" type="curve" smooth="yes"/>
      <point x="172" y="725"/>
      <point x="50" y="574"/>
      <point x="50" y="358" type="curve" smooth="yes"/>
      <point x="50" y="133"/>
      <point x="159" y="-10"/>
    </contour>
    <contour>
      <point x="189" y="112" type="line"/>
      <point x="133" y="166"/>
      <point x="106" y="249"/>
      <point x="106" y="355" type="curve" smooth="yes"/>
      <point x="106" y="458"/>
      <point x="135" y="542"/>
      <point x="189" y="596" type="curve"/>
    </contour>
  </outline>
</glyph>
<glyph name="gscript" format="2">
  <advance width="630"/>
  <unicode hex="210A"/>
  <outline>
    <contour>
      <point x="511" y="92" type="curve"/>
      <point x="496" y="105" type="line"/>
      <point x="470" y="80"/>
      <point x="435" y="51"/>
      <point x="397" y="28" type="curve"/>
      <point x="603" y="388" type="line"/>
      <point x="485" y="388" type="line"/>
      <point x="439" y="324" type="line"/>
      <point x="439" y="377"/>
      <point x="413" y="397"/>
      <point x="359" y="397" type="curve" smooth="yes"/>
      <point x="282" y="397"/>
      <point x="219" y="353"/>
      <point x="172" y="298" type="curve" smooth="yes"/>
      <point x="141" y="261"/>
      <point x="109" y="222"/>
      <point x="71" y="182" type="curve"/>
      <point x="84" y="169" type="line"/>
      <point x="98" y="182"/>
      <point x="115" y="201"/>
      <point x="138" y="228" type="curve"/>
      <point x="109" y="187"/>
      <point x="93" y="146"/>
      <point x="93" y="110" type="curve" smooth="yes"/>
      <point x="93" y="65"/>
      <point x="108" y="-9"/>
      <point x="180" y="-9" type="curve" smooth="yes"/>
      <point x="240" y="-9"/>
      <point x="289" y="37"/>
      <point x="305" y="55" type="curve"/>
      <point x="271" y="-16" type="line"/>
      <point x="177" y="-58"/>
      <point x="-75" y="-186"/>
      <point x="-75" y="-295" type="curve" smooth="yes"/>
      <point x="-75" y="-327"/>
      <point x="-48" y="-389"/>
      <point x="19" y="-389" type="curve" smooth="yes"/>
      <point x="145" y="-389"/>
      <point x="245" y="-263"/>
      <point x="299" y="-161" type="curve" smooth="yes"/>
      <point x="384" y="-1" type="line"/>
      <point x="435" y="25"/>
      <point x="478" y="60"/>
    </contour>
    <contour>
      <point x="18" y="-371" type="curve" smooth="yes"/>
      <point x="-6" y="-371"/>
      <point x="-31" y="-361"/>
      <point x="-31" y="-320" type="curve" smooth="yes"/>
      <point x="-31" y="-190"/>
      <point x="230" y="-58"/>
      <point x="258" y="-44" type="curve"/>
      <point x="179" y="-198" type="line" smooth="yes"/>
      <point x="128" y="-297"/>
      <point x="85" y="-371"/>
    </contour>
    <contour>
      <point x="191" y="11" type="curve" smooth="yes"/>
      <point x="180" y="11"/>
      <point x="165" y="14"/>
      <point x="165" y="32" type="curve" smooth="yes"/>
      <point x="165" y="83"/>
      <point x="301" y="374"/>
      <point x="384" y="374" type="curve" smooth="yes"/>
      <point x="405" y="374"/>
      <point x="418" y="360"/>
      <point x="418" y="334" type="curve" smooth="yes"/>
      <point x="418" y="291"/>
      <point x="392" y="237"/>
      <point x="369" y="192" type="curve" smooth="yes"/>
      <point x="325" y="106"/>
      <point x="259" y="11"/>
    </contour>
  </outline>
</glyph>
<glyph name="Hscript" format="2">
  <advance width="1058"/>
  <unicode hex="210B"/>
  <outline>
    <contour>
      <point x="153" y="-10" type="curve" smooth="yes"/>
      <point x="356" y="-10"/>
      <point x="474" y="163"/>
      <point x="514" y="298" type="curve" smooth="yes"/>
      <point x="519" y="315" type="line"/>
      <point x="628" y="349" type="line"/>
      <point x="580" y="257"/>
      <point x="549" y="170"/>
      <point x="549" y="116" type="curve" smooth="yes"/>
      <point x="549" y="28"/>
      <point x="596" y="-9"/>
      <point x="640" y="-9" type="curve" smooth="yes"/>
      <point x="710" y="-9"/>
      <point x="828" y="132"/>
      <point x="853" y="164" type="curve"/>
      <point x="833" y="164" type="line"/>
      <point x="810" y="138"/>
      <point x="694" y="9"/>
      <point x="643" y="9" type="curve" smooth="yes"/>
      <point x="624" y="9"/>
      <point x="619" y="20"/>
      <point x="619" y="28" type="curve" smooth="yes"/>
      <point x="619" y="57"/>
      <point x="667" y="222"/>
      <point x="741" y="386" type="curve"/>
      <point x="776" y="398"/>
      <point x="807" y="409"/>
      <point x="833" y="420" type="curve" smooth="yes"/>
      <point x="1008" y="494"/>
      <point x="1082" y="619"/>
      <point x="1082" y="674" type="curve" smooth="yes"/>
      <point x="1082" y="718"/>
      <point x="1056" y="742"/>
      <point x="1011" y="742" type="curve" smooth="yes"/>
      <point x="897" y="742"/>
      <point x="739" y="553"/>
      <point x="641" y="372" type="curve"/>
      <point x="603" y="359"/>
      <point x="564" y="347"/>
      <point x="526" y="336" type="curve"/>
      <point x="578" y="509"/>
      <point x="603" y="592"/>
      <point x="689" y="682" type="curve"/>
      <point x="679" y="695" type="line"/>
      <point x="580" y="603"/>
      <point x="410" y="464"/>
      <point x="376" y="464" type="curve" smooth="yes"/>
      <point x="368" y="464"/>
      <point x="366" y="469"/>
      <point x="366" y="474" type="curve" smooth="yes"/>
      <point x="366" y="479"/>
      <point x="371" y="487"/>
      <point x="380" y="499" type="curve" smooth="yes"/>
      <point x="388" y="509"/>
      <point x="412" y="540"/>
      <point x="420" y="556" type="curve" smooth="yes"/>
      <point x="428" y="572"/>
      <point x="430" y="586"/>
      <point x="430" y="600" type="curve" smooth="yes"/>
      <point x="430" y="609"/>
      <point x="430" y="648"/>
      <point x="381" y="648" type="curve" smooth="yes"/>
      <point x="317" y="648"/>
      <point x="218" y="544"/>
      <point x="160" y="465" type="curve"/>
      <point x="174" y="454" type="line"/>
      <point x="248" y="556"/>
      <point x="332" y="630"/>
      <point x="373" y="630" type="curve" smooth="yes"/>
      <point x="385" y="630"/>
      <point x="386" y="626"/>
      <point x="386" y="623" type="curve" smooth="yes"/>
      <point x="386" y="617"/>
      <point x="370" y="593"/>
      <point x="353" y="568" type="curve" smooth="yes"/>
      <point x="334" y="540"/>
      <point x="314" y="508"/>
      <point x="314" y="490" type="curve" smooth="yes"/>
      <point x="314" y="463"/>
      <point x="332" y="443"/>
      <point x="360" y="443" type="curve" smooth="yes"/>
      <point x="403" y="443"/>
      <point x="505" y="522"/>
      <point x="569" y="581" type="curve"/>
      <point x="485" y="478"/>
      <point x="438" y="384"/>
      <point x="395" y="295" type="curve"/>
      <point x="384" y="291" type="line" smooth="yes"/>
      <point x="304" y="264"/>
      <point x="233" y="206"/>
      <point x="201" y="169" type="curve"/>
      <point x="215" y="155" type="line"/>
      <point x="248" y="192"/>
      <point x="299" y="240"/>
      <point x="383" y="271" type="curve"/>
      <point x="367" y="236"/>
      <point x="352" y="204"/>
      <point x="337" y="174" type="curve" smooth="yes"/>
      <point x="287" y="73"/>
      <point x="242" y="8"/>
      <point x="155" y="8" type="curve" smooth="yes"/>
      <point x="41" y="8"/>
      <point x="33" y="78"/>
      <point x="33" y="89" type="curve" smooth="yes"/>
      <point x="33" y="120"/>
      <point x="65" y="114"/>
      <point x="88" y="117" type="curve" smooth="yes"/>
      <point x="117" y="121"/>
      <point x="142" y="137"/>
      <point x="142" y="180" type="curve" smooth="yes"/>
      <point x="142" y="200"/>
      <point x="127" y="234"/>
      <point x="79" y="234" type="curve" smooth="yes"/>
      <point x="34" y="234"/>
      <point x="-4" y="192"/>
      <point x="-4" y="139" type="curve" smooth="yes"/>
      <point x="-4" y="116"/>
      <point x="0" y="-10"/>
    </contour>
    <contour>
      <point x="752" y="408" type="curve"/>
      <point x="778" y="464"/>
      <point x="806" y="518"/>
      <point x="837" y="566" type="curve" smooth="yes"/>
      <point x="928" y="708"/>
      <point x="991" y="723"/>
      <point x="1011" y="723" type="curve" smooth="yes"/>
      <point x="1031" y="723"/>
      <point x="1049" y="713"/>
      <point x="1049" y="690" type="curve" smooth="yes"/>
      <point x="1049" y="624"/>
      <point x="915" y="476"/>
      <point x="823" y="436" type="curve" smooth="yes"/>
      <point x="786" y="420"/>
      <point x="770" y="414"/>
    </contour>
  </outline>
</glyph>
<glyph name="H-fraktur" format="2">
  <advance width="683"/>
  <unicode hex="210C"/>
  <outline>
    <contour>
      <point x="219" y="-178" type="curve" smooth="yes"/>
      <point x="269" y="-178"/>
      <point x="310" y="-150"/>
      <point x="327" y="-105" type="curve"/>
      <point x="304" y="-97" type="line"/>
      <point x="289" y="-136"/>
      <point x="256" y="-155"/>
      <point x="219" y="-155" type="curve" smooth="yes"/>
      <point x="170" y="-155"/>
      <point x="133" y="-121"/>
      <point x="133" y="-67" type="curve" smooth="yes"/>
      <point x="133" y="-22"/>
      <point x="160" y="15"/>
      <point x="208" y="15" type="curve" smooth="yes"/>
      <point x="243" y="15"/>
      <point x="260" y="-5"/>
      <point x="254" y="-36" type="curve"/>
      <point x="277" y="-41" type="line"/>
      <point x="286" y="-34"/>
      <point x="298" y="-30"/>
      <point x="354" y="-19" type="curve" smooth="yes"/>
      <point x="421" y="-6" type="line" smooth="yes"/>
      <point x="547" y="18"/>
      <point x="628" y="154"/>
      <point x="628" y="289" type="curve" smooth="yes"/>
      <point x="628" y="398"/>
      <point x="576" y="490"/>
      <point x="479" y="541" type="curve" smooth="yes"/>
      <point x="460" y="551" type="line" smooth="yes"/>
      <point x="447" y="558"/>
      <point x="442" y="563"/>
      <point x="441" y="571" type="curve"/>
      <point x="417" y="571" type="line"/>
      <point x="414" y="557"/>
      <point x="388" y="537"/>
      <point x="347" y="518" type="curve" smooth="yes"/>
      <point x="306" y="499"/>
      <point x="244" y="467"/>
      <point x="202" y="422" type="curve"/>
      <point x="220" y="406" type="line"/>
      <point x="274" y="460"/>
      <point x="331" y="480"/>
      <point x="372" y="480" type="curve" smooth="yes"/>
      <point x="457" y="480"/>
      <point x="549" y="390"/>
      <point x="549" y="243" type="curve" smooth="yes"/>
      <point x="549" y="114"/>
      <point x="476" y="23"/>
      <point x="371" y="9" type="curve"/>
      <point x="340" y="29" type="line" smooth="yes"/>
      <point x="309" y="49"/>
      <point x="298" y="59"/>
      <point x="307" y="79" type="curve"/>
      <point x="284" y="88" type="line"/>
      <point x="275" y="73"/>
      <point x="241" y="58"/>
      <point x="216" y="52" type="curve" smooth="yes"/>
      <point x="180" y="43"/>
      <point x="154" y="27"/>
      <point x="134" y="6" type="curve" smooth="yes"/>
      <point x="117" y="-12"/>
      <point x="108" y="-37"/>
      <point x="108" y="-67" type="curve" smooth="yes"/>
      <point x="108" y="-132"/>
      <point x="154" y="-178"/>
    </contour>
    <contour>
      <point x="143" y="127" type="curve" smooth="yes"/>
      <point x="201" y="127"/>
      <point x="307" y="197"/>
      <point x="307" y="267" type="curve" smooth="yes"/>
      <point x="307" y="283"/>
      <point x="302" y="328"/>
      <point x="248" y="437" type="curve" smooth="yes"/>
      <point x="202" y="531"/>
      <point x="191" y="558"/>
      <point x="191" y="579" type="curve" smooth="yes"/>
      <point x="191" y="592"/>
      <point x="197" y="607"/>
      <point x="212" y="628" type="curve" smooth="yes"/>
      <point x="227" y="649"/>
      <point x="236" y="653"/>
      <point x="244" y="653" type="curve" smooth="yes"/>
      <point x="252" y="653"/>
      <point x="264" y="648"/>
      <point x="290" y="635" type="curve" smooth="yes"/>
      <point x="316" y="622"/>
      <point x="336" y="612"/>
      <point x="345" y="612" type="curve" smooth="yes"/>
      <point x="356" y="612"/>
      <point x="362" y="614"/>
      <point x="377" y="629" type="curve" smooth="yes"/>
      <point x="397" y="649"/>
      <point x="417" y="673"/>
      <point x="440" y="703" type="curve"/>
      <point x="425" y="717" type="line"/>
      <point x="407" y="696"/>
      <point x="396" y="688"/>
      <point x="380" y="688" type="curve" smooth="yes"/>
      <point x="365" y="688"/>
      <point x="357" y="691"/>
      <point x="331" y="704" type="curve" smooth="yes"/>
      <point x="305" y="717"/>
      <point x="285" y="726"/>
      <point x="278" y="726" type="curve" smooth="yes"/>
      <point x="271" y="726"/>
      <point x="257" y="719"/>
      <point x="238" y="698" type="curve" smooth="yes"/>
      <point x="217" y="674"/>
      <point x="169" y="611"/>
      <point x="145" y="579" type="curve" smooth="yes"/>
      <point x="127" y="555"/>
      <point x="119" y="541"/>
      <point x="119" y="531" type="curve" smooth="yes"/>
      <point x="119" y="519"/>
      <point x="138" y="477"/>
      <point x="185" y="375" type="curve" smooth="yes"/>
      <point x="223" y="292"/>
      <point x="235" y="243"/>
      <point x="235" y="221" type="curve" smooth="yes"/>
      <point x="235" y="193"/>
      <point x="212" y="164"/>
      <point x="181" y="164" type="curve" smooth="yes"/>
      <point x="141" y="164"/>
      <point x="83" y="207"/>
      <point x="67" y="258" type="curve"/>
      <point x="-9" y="187" type="line"/>
      <point x="5" y="171" type="line"/>
      <point x="12" y="175"/>
      <point x="15" y="176"/>
      <point x="22" y="176" type="curve" smooth="yes"/>
      <point x="29" y="176"/>
      <point x="35" y="174"/>
      <point x="43" y="168" type="curve" smooth="yes"/>
      <point x="76" y="143"/>
      <point x="113" y="127"/>
    </contour>
  </outline>
</glyph>
<glyph name="HdoubleStruck" format="2">
  <advance width="777"/>
  <unicode hex="210D"/>
  <outline>
    <contour>
      <point x="97" y="0" type="line"/>
      <point x="270" y="0" type="line"/>
      <point x="270" y="347" type="line"/>
      <point x="507" y="347" type="line"/>
      <point x="507" y="0" type="line"/>
      <point x="680" y="0" type="line"/>
      <point x="680" y="714" type="line"/>
      <point x="507" y="714" type="line"/>
      <point x="507" y="400" type="line"/>
      <point x="270" y="400" type="line"/>
      <point x="270" y="714" type="line"/>
      <point x="97" y="714" type="line"/>
    </contour>
    <contour>
      <point x="150" y="53" type="line"/>
      <point x="150" y="661" type="line"/>
      <point x="217" y="661" type="line"/>
      <point x="217" y="53" type="line"/>
    </contour>
    <contour>
      <point x="560" y="53" type="line"/>
      <point x="560" y="661" type="line"/>
      <point x="627" y="661" type="line"/>
      <point x="627" y="53" type="line"/>
    </contour>
  </outline>
</glyph>
<glyph name="planckconstant" format="2">
  <advance width="599"/>
  <unicode hex="210E"/>
  <outline>
    <contour>
      <point x="453" y="-10" type="curve" smooth="yes"/>
      <point x="491" y="-10"/>
      <point x="532" y="9"/>
      <point x="575" y="47" type="curve"/>
      <point x="557" y="76" type="line"/>
      <point x="534" y="61"/>
      <point x="512" y="53"/>
      <point x="493" y="53" type="curve" smooth="yes"/>
      <point x="470" y="53"/>
      <point x="458" y="69"/>
      <point x="458" y="101" type="curve" smooth="yes"/>
      <point x="458" y="131"/>
      <point x="462" y="166"/>
      <point x="471" y="206" type="curve" smooth="yes"/>
      <point x="497" y="324" type="line" smooth="yes"/>
      <point x="508" y="376"/>
      <point x="515" y="413"/>
      <point x="515" y="434" type="curve" smooth="yes"/>
      <point x="515" y="508"/>
      <point x="479" y="545"/>
      <point x="408" y="545" type="curve" smooth="yes"/>
      <point x="340" y="545"/>
      <point x="278" y="500"/>
      <point x="223" y="410" type="curve"/>
      <point x="212" y="410" type="line"/>
      <point x="227" y="466"/>
      <point x="240" y="521"/>
      <point x="252" y="576" type="curve" smooth="yes"/>
      <point x="291" y="760" type="line"/>
      <point x="107" y="760" type="line"/>
      <point x="98" y="718" type="line"/>
      <point x="106" y="718" type="line" smooth="yes"/>
      <point x="153" y="718"/>
      <point x="176" y="702"/>
      <point x="176" y="671" type="curve" smooth="yes"/>
      <point x="176" y="665"/>
      <point x="173" y="647"/>
      <point x="167" y="618" type="curve" smooth="yes"/>
      <point x="37" y="0" type="line"/>
      <point x="130" y="0" type="line"/>
      <point x="184" y="256" type="line" smooth="yes"/>
      <point x="194" y="305"/>
      <point x="219" y="354"/>
      <point x="258" y="405" type="curve" smooth="yes"/>
      <point x="297" y="456"/>
      <point x="336" y="481"/>
      <point x="373" y="481" type="curve" smooth="yes"/>
      <point x="404" y="481"/>
      <point x="419" y="461"/>
      <point x="419" y="422" type="curve" smooth="yes"/>
      <point x="419" y="400"/>
      <point x="413" y="369"/>
      <point x="404" y="329" type="curve" smooth="yes"/>
      <point x="381" y="225" type="line" smooth="yes"/>
      <point x="368" y="166"/>
      <point x="362" y="121"/>
      <point x="362" y="90" type="curve" smooth="yes"/>
      <point x="362" y="29"/>
      <point x="397" y="-10"/>
    </contour>
  </outline>
</glyph>
<glyph name="Iscript" format="2">
  <advance width="743"/>
  <unicode hex="2110"/>
  <outline>
    <contour>
      <point x="153" y="-10" type="curve" smooth="yes"/>
      <point x="318" y="-10"/>
      <point x="434" y="103"/>
      <point x="492" y="218" type="curve"/>
      <point x="634" y="255"/>
      <point x="655" y="359"/>
      <point x="655" y="418" type="curve" smooth="yes"/>
      <point x="655" y="436"/>
      <point x="653" y="455"/>
      <point x="650" y="465" type="curve"/>
      <point x="632" y="464" type="line"/>
      <point x="635" y="454"/>
      <point x="637" y="436"/>
      <point x="637" y="415" type="curve" smooth="yes"/>
      <point x="637" y="309"/>
      <point x="566" y="258"/>
      <point x="499" y="238" type="curve"/>
      <point x="509" y="258"/>
      <point x="522" y="287"/>
      <point x="529" y="307" type="curve" smooth="yes"/>
      <point x="546" y="353"/>
      <point x="560" y="395"/>
      <point x="573" y="435" type="curve" smooth="yes"/>
      <point x="592" y="494"/>
      <point x="611" y="545"/>
      <point x="630" y="587" type="curve" smooth="yes"/>
      <point x="664" y="661"/>
      <point x="703" y="705"/>
      <point x="773" y="710" type="curve"/>
      <point x="773" y="725" type="line"/>
      <point x="700" y="725"/>
      <point x="611" y="711"/>
      <point x="525" y="679" type="curve" smooth="yes"/>
      <point x="302" y="596"/>
      <point x="221" y="485"/>
      <point x="221" y="374" type="curve" smooth="yes"/>
      <point x="221" y="312"/>
      <point x="262" y="233"/>
      <point x="352" y="213" type="curve"/>
      <point x="291" y="94"/>
      <point x="235" y="8"/>
      <point x="150" y="8" type="curve" smooth="yes"/>
      <point x="50" y="8"/>
      <point x="33" y="65"/>
      <point x="33" y="89" type="curve" smooth="yes"/>
      <point x="33" y="109"/>
      <point x="46" y="117"/>
      <point x="84" y="117" type="curve" smooth="yes"/>
      <point x="115" y="117"/>
      <point x="142" y="137"/>
      <point x="142" y="180" type="curve" smooth="yes"/>
      <point x="142" y="200"/>
      <point x="127" y="234"/>
      <point x="79" y="234" type="curve" smooth="yes"/>
      <point x="34" y="234"/>
      <point x="-4" y="192"/>
      <point x="-4" y="139" type="curve" smooth="yes"/>
      <point x="-4" y="95"/>
      <point x="11" y="-10"/>
    </contour>
    <contour>
      <point x="360" y="229" type="curve"/>
      <point x="325" y="239"/>
      <point x="277" y="254"/>
      <point x="277" y="326" type="curve" smooth="yes"/>
      <point x="277" y="454"/>
      <point x="427" y="621"/>
      <point x="589" y="676" type="curve" smooth="yes"/>
      <point x="619" y="686"/>
      <point x="661" y="697"/>
      <point x="695" y="703" type="curve"/>
      <point x="637" y="661"/>
      <point x="588" y="609"/>
      <point x="545" y="552" type="curve" smooth="yes"/>
      <point x="488" y="477"/>
      <point x="443" y="391"/>
      <point x="402" y="312" type="curve" smooth="yes"/>
      <point x="387" y="284"/>
      <point x="372" y="255"/>
    </contour>
  </outline>
</glyph>
<glyph name="I-fraktur" format="2">
  <advance width="583"/>
  <unicode hex="2111"/>
  <outline>
    <contour>
      <point x="207" y="-21" type="line"/>
      <point x="218" y="-10"/>
      <point x="232" y="-5"/>
      <point x="249" y="-5" type="curve" smooth="yes"/>
      <point x="336" y="-5"/>
      <point x="383" y="-3"/>
      <point x="425" y="20" type="curve" smooth="yes"/>
      <point x="467" y="43"/>
      <point x="528" y="118"/>
      <point x="528" y="165" type="curve" smooth="yes"/>
      <point x="528" y="187"/>
      <point x="519" y="212"/>
      <point x="468" y="310" type="curve" smooth="yes"/>
      <point x="417" y="408"/>
      <point x="408" y="438"/>
      <point x="408" y="462" type="curve" smooth="yes"/>
      <point x="408" y="507"/>
      <point x="444" y="529"/>
      <point x="469" y="529" type="curve" smooth="yes"/>
      <point x="482" y="529"/>
      <point x="490" y="522"/>
      <point x="490" y="512" type="curve" smooth="yes"/>
      <point x="490" y="509"/>
      <point x="489" y="506"/>
      <point x="488" y="503" type="curve"/>
      <point x="492" y="499"/>
      <point x="498" y="496"/>
      <point x="503" y="496" type="curve" smooth="yes"/>
      <point x="519" y="496"/>
      <point x="527" y="506"/>
      <point x="527" y="525" type="curve" smooth="yes"/>
      <point x="527" y="548"/>
      <point x="511" y="558"/>
      <point x="485" y="558" type="curve" smooth="yes"/>
      <point x="423" y="558"/>
      <point x="333" y="471"/>
      <point x="333" y="413" type="curve" smooth="yes"/>
      <point x="333" y="390"/>
      <point x="349" y="343"/>
      <point x="397" y="254" type="curve" smooth="yes"/>
      <point x="445" y="165"/>
      <point x="454" y="142"/>
      <point x="454" y="118" type="curve" smooth="yes"/>
      <point x="454" y="67"/>
      <point x="411" y="27"/>
      <point x="343" y="27" type="curve" smooth="yes"/>
      <point x="278" y="27"/>
      <point x="241" y="64"/>
      <point x="241" y="108" type="curve" smooth="yes"/>
      <point x="241" y="111"/>
      <point x="241" y="114"/>
      <point x="242" y="117" type="curve"/>
      <point x="225" y="126" type="line"/>
      <point x="216" y="120"/>
      <point x="207" y="117"/>
      <point x="198" y="117" type="curve" smooth="yes"/>
      <point x="189" y="117"/>
      <point x="178" y="118"/>
      <point x="166" y="121" type="curve" smooth="yes"/>
      <point x="154" y="124"/>
      <point x="141" y="126"/>
      <point x="126" y="126" type="curve" smooth="yes"/>
      <point x="77" y="126"/>
      <point x="34" y="104"/>
      <point x="18" y="42" type="curve"/>
      <point x="39" y="36" type="line"/>
      <point x="53" y="77"/>
      <point x="81" y="93"/>
      <point x="108" y="93" type="curve" smooth="yes"/>
      <point x="148" y="93"/>
      <point x="187" y="56"/>
      <point x="187" y="-12" type="curve"/>
    </contour>
    <contour>
      <point x="169" y="408" type="curve"/>
      <point x="175" y="431" type="line"/>
      <point x="99" y="441"/>
      <point x="54" y="491"/>
      <point x="54" y="551" type="curve" smooth="yes"/>
      <point x="54" y="609"/>
      <point x="106" y="655"/>
      <point x="168" y="655" type="curve" smooth="yes"/>
      <point x="217" y="655"/>
      <point x="268" y="628"/>
      <point x="320" y="591" type="curve" smooth="yes"/>
      <point x="347" y="572"/>
      <point x="368" y="563"/>
      <point x="384" y="563" type="curve" smooth="yes"/>
      <point x="414" y="563"/>
      <point x="538" y="622"/>
      <point x="538" y="666" type="curve" smooth="yes"/>
      <point x="538" y="685"/>
      <point x="528" y="697"/>
      <point x="513" y="697" type="curve" smooth="yes"/>
      <point x="499" y="697"/>
      <point x="488" y="687"/>
      <point x="488" y="676" type="curve"/>
      <point x="497" y="667"/>
      <point x="501" y="659"/>
      <point x="501" y="652" type="curve" smooth="yes"/>
      <point x="501" y="639"/>
      <point x="471" y="621"/>
      <point x="452" y="621" type="curve" smooth="yes"/>
      <point x="437" y="621"/>
      <point x="411" y="634"/>
      <point x="371" y="657" type="curve" smooth="yes"/>
      <point x="287" y="705" type="line" smooth="yes"/>
      <point x="268" y="716"/>
      <point x="258" y="723"/>
      <point x="258" y="730" type="curve" smooth="yes"/>
      <point x="258" y="731" type="line"/>
      <point x="236" y="731" type="line"/>
      <point x="236" y="721"/>
      <point x="230" y="716"/>
      <point x="218" y="716" type="curve" smooth="yes"/>
      <point x="206" y="716"/>
      <point x="183" y="711"/>
      <point x="148" y="697" type="curve" smooth="yes"/>
      <point x="77" y="669"/>
      <point x="31" y="621"/>
      <point x="31" y="551" type="curve" smooth="yes"/>
      <point x="31" y="479"/>
      <point x="81" y="423"/>
    </contour>
  </outline>
</glyph>
<glyph name="Lscript" format="2">
  <advance width="833"/>
  <unicode hex="2112"/>
  <outline>
    <contour>
      <point x="141" y="-10" type="curve" smooth="yes"/>
      <point x="194" y="-10"/>
      <point x="254" y="1"/>
      <point x="311" y="33" type="curve"/>
      <point x="354" y="9"/>
      <point x="399" y="-10"/>
      <point x="450" y="-10" type="curve" smooth="yes"/>
      <point x="549" y="-10"/>
      <point x="632" y="83"/>
      <point x="668" y="154" type="curve"/>
      <point x="651" y="161" type="line"/>
      <point x="602" y="71"/>
      <point x="522" y="10"/>
      <point x="456" y="10" type="curve" smooth="yes"/>
      <point x="424" y="10"/>
      <point x="383" y="28"/>
      <point x="339" y="51" type="curve"/>
      <point x="392" y="89"/>
      <point x="441" y="147"/>
      <point x="475" y="236" type="curve" smooth="yes"/>
      <point x="494" y="287" type="line"/>
      <point x="672" y="354"/>
      <point x="806" y="555"/>
      <point x="806" y="651" type="curve" smooth="yes"/>
      <point x="806" y="692"/>
      <point x="782" y="724"/>
      <point x="725" y="724" type="curve" smooth="yes"/>
      <point x="574" y="724"/>
      <point x="453" y="485"/>
      <point x="364" y="284" type="curve"/>
      <point x="303" y="288"/>
      <point x="204" y="314"/>
      <point x="204" y="431" type="curve" smooth="yes"/>
      <point x="204" y="572"/>
      <point x="319" y="706"/>
      <point x="474" y="706" type="curve" smooth="yes"/>
      <point x="500" y="706"/>
      <point x="530" y="703"/>
      <point x="560" y="697" type="curve"/>
      <point x="564" y="715" type="line"/>
      <point x="534" y="721"/>
      <point x="506" y="724"/>
      <point x="474" y="724" type="curve" smooth="yes"/>
      <point x="302" y="724"/>
      <point x="150" y="599"/>
      <point x="150" y="457" type="curve" smooth="yes"/>
      <point x="150" y="391"/>
      <point x="179" y="275"/>
      <point x="356" y="266" type="curve"/>
      <point x="350" y="253"/>
      <point x="345" y="240"/>
      <point x="340" y="227" type="curve" smooth="yes"/>
      <point x="318" y="169"/>
      <point x="294" y="121"/>
      <point x="272" y="86" type="curve"/>
      <point x="217" y="114"/>
      <point x="160" y="139"/>
      <point x="109" y="139" type="curve" smooth="yes"/>
      <point x="60" y="139"/>
      <point x="11" y="119"/>
      <point x="11" y="72" type="curve" smooth="yes"/>
      <point x="11" y="20"/>
      <point x="73" y="-10"/>
    </contour>
    <contour>
      <point x="136" y="8" type="curve" smooth="yes"/>
      <point x="95" y="8"/>
      <point x="29" y="28"/>
      <point x="29" y="72" type="curve" smooth="yes"/>
      <point x="29" y="108"/>
      <point x="72" y="121"/>
      <point x="108" y="121" type="curve" smooth="yes"/>
      <point x="162" y="121"/>
      <point x="210" y="94"/>
      <point x="258" y="65" type="curve"/>
      <point x="230" y="27"/>
      <point x="194" y="8"/>
    </contour>
    <contour>
      <point x="503" y="312" type="curve"/>
      <point x="528" y="388"/>
      <point x="554" y="466"/>
      <point x="580" y="532" type="curve" smooth="yes"/>
      <point x="603" y="589"/>
      <point x="627" y="638"/>
      <point x="655" y="670" type="curve" smooth="yes"/>
      <point x="675" y="693"/>
      <point x="697" y="706"/>
      <point x="723" y="706" type="curve" smooth="yes"/>
      <point x="748" y="706"/>
      <point x="767" y="686"/>
      <point x="767" y="656" type="curve" smooth="yes"/>
      <point x="767" y="560"/>
      <point x="690" y="447"/>
      <point x="629" y="393" type="curve" smooth="yes"/>
      <point x="590" y="359"/>
      <point x="547" y="331"/>
    </contour>
  </outline>
</glyph>
<glyph name="NdoubleStruck" format="2">
  <advance width="778"/>
  <unicode hex="2115"/>
  <outline>
    <contour>
      <point x="97" y="0" type="line"/>
      <point x="150" y="0" type="line"/>
      <point x="150" y="491" type="line"/>
      <point x="604" y="0" type="line"/>
      <point x="681" y="0" type="line"/>
      <point x="681" y="714" type="line"/>
      <point x="628" y="714" type="line"/>
      <point x="628" y="224" type="line"/>
      <point x="173" y="714" type="line"/>
      <point x="97" y="714" type="line"/>
    </contour>
    <contour>
      <point x="628" y="53" type="line"/>
      <point x="150" y="562" type="line"/>
      <point x="150" y="661" type="line"/>
      <point x="628" y="151" type="line"/>
    </contour>
  </outline>
</glyph>
<glyph name="PdoubleStruck" format="2">
  <advance width="655"/>
  <unicode hex="2119"/>
  <outline>
    <contour>
      <point x="97" y="0" type="line"/>
      <point x="270" y="0" type="line"/>
      <point x="270" y="303" type="line"/>
      <point x="369" y="303" type="line" smooth="yes"/>
      <point x="492" y="303"/>
      <point x="604" y="390"/>
      <point x="604" y="514" type="curve" smooth="yes"/>
      <point x="604" y="635"/>
      <point x="526" y="714"/>
      <point x="356" y="714" type="curve" smooth="yes"/>
      <point x="97" y="714" type="line"/>
    </contour>
    <contour>
      <point x="150" y="53" type="line"/>
      <point x="150" y="661" type="line"/>
      <point x="217" y="661" type="line"/>
      <point x="217" y="53" type="line"/>
    </contour>
    <contour>
      <point x="270" y="356" type="line"/>
      <point x="270" y="661" type="line"/>
      <point x="409" y="661" type="line"/>
      <point x="409" y="356" type="line"/>
    </contour>
    <contour>
      <point x="463" y="373" type="curve"/>
      <point x="463" y="649" type="line"/>
      <point x="517" y="631"/>
      <point x="546" y="587"/>
      <point x="546" y="514" type="curve" smooth="yes"/>
      <point x="546" y="434"/>
      <point x="511" y="395"/>
    </contour>
  </outline>
</glyph>
<glyph name="QdoubleStruck" format="2">
  <advance width="781"/>
  <unicode hex="211A"/>
  <outline>
    <contour>
      <point x="480" y="-170" type="line"/>
      <point x="768" y="-170" type="line"/>
      <point x="556" y="26" type="line"/>
      <point x="653" y="77"/>
      <point x="720" y="183"/>
      <point x="720" y="358" type="curve" smooth="yes"/>
      <point x="720" y="577"/>
      <point x="606" y="725"/>
      <point x="392" y="725" type="curve" smooth="yes"/>
      <point x="174" y="725"/>
      <point x="61" y="578"/>
      <point x="61" y="359" type="curve" smooth="yes"/>
      <point x="61" y="138"/>
      <point x="166" y="0"/>
      <point x="373" y="-10" type="curve"/>
    </contour>
    <contour>
      <point x="515" y="-122" type="line"/>
      <point x="435" y="-8" type="line"/>
      <point x="455" y="-7"/>
      <point x="486" y="-1"/>
      <point x="503" y="4" type="curve"/>
      <point x="639" y="-122" type="line"/>
    </contour>
    <contour>
      <point x="205" y="102" type="line"/>
      <point x="144" y="157"/>
      <point x="114" y="246"/>
      <point x="114" y="358" type="curve" smooth="yes"/>
      <point x="114" y="469"/>
      <point x="144" y="557"/>
      <point x="205" y="612" type="curve"/>
    </contour>
    <contour>
      <point x="391" y="38" type="curve" smooth="yes"/>
      <point x="339" y="38"/>
      <point x="295" y="47"/>
      <point x="258" y="66" type="curve"/>
      <point x="258" y="648" type="line"/>
      <point x="295" y="667"/>
      <point x="340" y="677"/>
      <point x="392" y="677" type="curve" smooth="yes"/>
      <point x="443" y="677"/>
      <point x="486" y="667"/>
      <point x="523" y="649" type="curve"/>
      <point x="523" y="65" type="line"/>
      <point x="486" y="47"/>
      <point x="442" y="38"/>
    </contour>
    <contour>
      <point x="576" y="101" type="curve"/>
      <point x="576" y="614" type="line"/>
      <point x="637" y="559"/>
      <point x="667" y="471"/>
      <point x="667" y="358" type="curve" smooth="yes"/>
      <point x="667" y="245"/>
      <point x="636" y="156"/>
    </contour>
  </outline>
</glyph>
<glyph name="Rscript" format="2">
  <advance width="872"/>
  <unicode hex="211B"/>
  <outline>
    <contour>
      <point x="624" y="-10" type="curve" smooth="yes"/>
      <point x="668" y="-10"/>
      <point x="709" y="22"/>
      <point x="742" y="59" type="curve" smooth="yes"/>
      <point x="780" y="101"/>
      <point x="812" y="153"/>
      <point x="815" y="158" type="curve"/>
      <point x="799" y="167" type="line"/>
      <point x="794" y="158"/>
      <point x="758" y="106"/>
      <point x="723" y="67" type="curve" smooth="yes"/>
      <point x="701" y="43"/>
      <point x="676" y="24"/>
      <point x="663" y="24" type="curve" smooth="yes"/>
      <point x="649" y="24"/>
      <point x="642" y="40"/>
      <point x="642" y="58" type="curve" smooth="yes"/>
      <point x="642" y="80"/>
      <point x="654" y="113"/>
      <point x="667" y="148" type="curve" smooth="yes"/>
      <point x="680" y="184"/>
      <point x="692" y="221"/>
      <point x="692" y="251" type="curve" smooth="yes"/>
      <point x="692" y="279"/>
      <point x="687" y="322"/>
      <point x="642" y="356" type="curve"/>
      <point x="787" y="391"/>
      <point x="862" y="465"/>
      <point x="862" y="550" type="curve" smooth="yes"/>
      <point x="862" y="604"/>
      <point x="825" y="661"/>
      <point x="749" y="694" type="curve"/>
      <point x="759" y="698"/>
      <point x="769" y="702"/>
      <point x="780" y="705" type="curve"/>
      <point x="772" y="722" type="line"/>
      <point x="754" y="718"/>
      <point x="737" y="712"/>
      <point x="720" y="704" type="curve"/>
      <point x="683" y="716"/>
      <point x="638" y="724"/>
      <point x="585" y="724" type="curve" smooth="yes"/>
      <point x="464" y="724"/>
      <point x="357" y="689"/>
      <point x="282" y="645" type="curve" smooth="yes"/>
      <point x="232" y="616"/>
      <point x="90" y="507"/>
      <point x="90" y="392" type="curve" smooth="yes"/>
      <point x="90" y="323"/>
      <point x="131" y="288"/>
      <point x="200" y="288" type="curve" smooth="yes"/>
      <point x="329" y="288"/>
      <point x="415" y="419"/>
      <point x="415" y="518" type="curve" smooth="yes"/>
      <point x="415" y="555"/>
      <point x="408" y="589"/>
      <point x="402" y="611" type="curve"/>
      <point x="387" y="611" type="line"/>
      <point x="387" y="442"/>
      <point x="264" y="311"/>
      <point x="172" y="311" type="curve" smooth="yes"/>
      <point x="136" y="311"/>
      <point x="109" y="337"/>
      <point x="109" y="392" type="curve" smooth="yes"/>
      <point x="109" y="504"/>
      <point x="253" y="607"/>
      <point x="292" y="630" type="curve" smooth="yes"/>
      <point x="348" y="663"/>
      <point x="463" y="706"/>
      <point x="585" y="706" type="curve" smooth="yes"/>
      <point x="631" y="706"/>
      <point x="667" y="702"/>
      <point x="695" y="692" type="curve"/>
      <point x="629" y="653"/>
      <point x="598" y="614"/>
      <point x="574" y="584" type="curve" smooth="yes"/>
      <point x="491" y="480"/>
      <point x="433" y="378"/>
      <point x="393" y="289" type="curve" smooth="yes"/>
      <point x="350" y="194"/>
      <point x="314" y="118"/>
      <point x="273" y="69" type="curve" smooth="yes"/>
      <point x="240" y="30"/>
      <point x="199" y="9"/>
      <point x="144" y="9" type="curve" smooth="yes"/>
      <point x="47" y="9"/>
      <point x="33" y="75"/>
      <point x="33" y="86" type="curve" smooth="yes"/>
      <point x="33" y="118"/>
      <point x="65" y="112"/>
      <point x="88" y="115" type="curve" smooth="yes"/>
      <point x="117" y="119"/>
      <point x="142" y="135"/>
      <point x="142" y="178" type="curve" smooth="yes"/>
      <point x="142" y="198"/>
      <point x="127" y="232"/>
      <point x="79" y="232" type="curve" smooth="yes"/>
      <point x="34" y="232"/>
      <point x="-4" y="190"/>
      <point x="-4" y="137" type="curve" smooth="yes"/>
      <point x="-4" y="114"/>
      <point x="0" y="-9"/>
      <point x="153" y="-9" type="curve" smooth="yes"/>
      <point x="322" y="-9"/>
      <point x="426" y="93"/>
      <point x="486" y="221" type="curve" smooth="yes"/>
      <point x="496" y="243"/>
      <point x="507" y="273"/>
      <point x="514" y="295" type="curve" smooth="yes"/>
      <point x="528" y="336"/>
      <point x="540" y="376"/>
      <point x="551" y="415" type="curve" smooth="yes"/>
      <point x="559" y="444"/>
      <point x="569" y="473"/>
      <point x="579" y="499" type="curve" smooth="yes"/>
      <point x="608" y="578"/>
      <point x="644" y="640"/>
      <point x="718" y="680" type="curve"/>
      <point x="751" y="658"/>
      <point x="766" y="619"/>
      <point x="766" y="554" type="curve" smooth="yes"/>
      <point x="766" y="434"/>
      <point x="659" y="376"/>
      <point x="626" y="369" type="curve"/>
      <point x="611" y="380"/>
      <point x="595" y="388"/>
      <point x="580" y="388" type="curve" smooth="yes"/>
      <point x="571" y="388"/>
      <point x="551" y="386"/>
      <point x="551" y="368" type="curve" smooth="yes"/>
      <point x="551" y="350"/>
      <point x="574" y="344"/>
      <point x="585" y="344" type="curve" smooth="yes"/>
      <point x="600" y="344"/>
      <point x="607" y="346"/>
      <point x="614" y="348" type="curve"/>
      <point x="617" y="343"/>
      <point x="622" y="333"/>
      <point x="622" y="314" type="curve" smooth="yes"/>
      <point x="622" y="287"/>
      <point x="600" y="235"/>
      <point x="576" y="185" type="curve" smooth="yes"/>
      <point x="556" y="143"/>
      <point x="541" y="91"/>
      <point x="541" y="66" type="curve" smooth="yes"/>
      <point x="541" y="32"/>
      <point x="561" y="-10"/>
    </contour>
  </outline>
</glyph>
<glyph name="R-fraktur" format="2">
  <advance width="720"/>
  <unicode hex="211C"/>
  <outline>
    <contour>
      <point x="621" y="-22" type="curve"/>
      <point x="641" y="-22" type="line"/>
      <point x="645" y="-13"/>
      <point x="654" y="-3"/>
      <point x="674" y="15" type="curve" smooth="yes"/>
      <point x="694" y="33"/>
      <point x="718" y="56"/>
      <point x="734" y="83" type="curve"/>
      <point x="719" y="96" type="line"/>
      <point x="699" y="75"/>
      <point x="684" y="70"/>
      <point x="676" y="70" type="curve" smooth="yes"/>
      <point x="664" y="70"/>
      <point x="654" y="77"/>
      <point x="644" y="98" type="curve" smooth="yes"/>
      <point x="634" y="119"/>
      <point x="625" y="161"/>
      <point x="609" y="259" type="curve" smooth="yes"/>
      <point x="585" y="404"/>
      <point x="570" y="433"/>
      <point x="538" y="444" type="curve"/>
      <point x="513" y="417" type="line"/>
      <point x="578" y="471"/>
      <point x="645" y="524"/>
      <point x="708" y="567" type="curve"/>
      <point x="697" y="584" type="line"/>
      <point x="688" y="579"/>
      <point x="682" y="577"/>
      <point x="675" y="577" type="curve" smooth="yes"/>
      <point x="668" y="577"/>
      <point x="655" y="587"/>
      <point x="623" y="619" type="curve" smooth="yes"/>
      <point x="591" y="651"/>
      <point x="564" y="682"/>
      <point x="564" y="697" type="curve" smooth="yes"/>
      <point x="564" y="704"/>
      <point x="568" y="713"/>
      <point x="576" y="719" type="curve"/>
      <point x="564" y="733" type="line"/>
      <point x="539" y="716"/>
      <point x="515" y="701"/>
      <point x="478" y="680" type="curve" smooth="yes"/>
      <point x="441" y="659"/>
      <point x="392" y="628"/>
      <point x="334" y="576" type="curve"/>
      <point x="347" y="557" type="line"/>
      <point x="418" y="624"/>
      <point x="458" y="646"/>
      <point x="476" y="646" type="curve" smooth="yes"/>
      <point x="489" y="646"/>
      <point x="501" y="635"/>
      <point x="537" y="593" type="curve" smooth="yes"/>
      <point x="601" y="519" type="line"/>
      <point x="535" y="462"/>
      <point x="455" y="409"/>
      <point x="375" y="362" type="curve"/>
      <point x="381" y="335" type="line"/>
      <point x="456" y="387"/>
      <point x="470" y="395"/>
      <point x="480" y="395" type="curve" smooth="yes"/>
      <point x="504" y="395"/>
      <point x="510" y="365"/>
      <point x="537" y="202" type="curve" smooth="yes"/>
      <point x="559" y="69"/>
      <point x="570" y="35"/>
      <point x="605" y="0" type="curve" smooth="yes"/>
      <point x="618" y="-13"/>
      <point x="619" y="-14"/>
    </contour>
    <contour>
      <point x="185" y="-23" type="curve" smooth="yes"/>
      <point x="313" y="-23"/>
      <point x="403" y="124"/>
      <point x="403" y="355" type="curve" smooth="yes"/>
      <point x="403" y="556"/>
      <point x="354" y="725"/>
      <point x="201" y="725" type="curve" smooth="yes"/>
      <point x="88" y="725"/>
      <point x="16" y="631"/>
      <point x="16" y="518" type="curve" smooth="yes"/>
      <point x="16" y="422"/>
      <point x="67" y="349"/>
      <point x="159" y="323" type="curve"/>
      <point x="169" y="344" type="line"/>
      <point x="89" y="364"/>
      <point x="41" y="429"/>
      <point x="41" y="511" type="curve" smooth="yes"/>
      <point x="41" y="594"/>
      <point x="94" y="647"/>
      <point x="165" y="647" type="curve" smooth="yes"/>
      <point x="266" y="647"/>
      <point x="329" y="538"/>
      <point x="329" y="315" type="curve" smooth="yes"/>
      <point x="329" y="213"/>
      <point x="316" y="132"/>
      <point x="287" y="73" type="curve" smooth="yes"/>
      <point x="265" y="27"/>
      <point x="236" y="0"/>
      <point x="191" y="0" type="curve" smooth="yes"/>
      <point x="148" y="0"/>
      <point x="121" y="24"/>
      <point x="121" y="63" type="curve" smooth="yes"/>
      <point x="121" y="77"/>
      <point x="125" y="92"/>
      <point x="132" y="108" type="curve"/>
      <point x="115" y="120" type="line"/>
      <point x="104" y="109"/>
      <point x="87" y="103"/>
      <point x="64" y="103" type="curve" smooth="yes"/>
      <point x="50" y="103"/>
      <point x="38" y="105"/>
      <point x="27" y="111" type="curve"/>
      <point x="13" y="92" type="line"/>
      <point x="26" y="77"/>
      <point x="33" y="53"/>
      <point x="33" y="22" type="curve" smooth="yes"/>
      <point x="33" y="12"/>
      <point x="31" y="2"/>
      <point x="28" y="-6" type="curve"/>
      <point x="45" y="-17" type="line"/>
      <point x="56" y="-10"/>
      <point x="67" y="-7"/>
      <point x="79" y="-7" type="curve" smooth="yes"/>
      <point x="94" y="-7"/>
      <point x="110" y="-10"/>
      <point x="128" y="-15" type="curve" smooth="yes"/>
      <point x="146" y="-20"/>
      <point x="166" y="-23"/>
    </contour>
  </outline>
</glyph>
<glyph name="RdoubleStruck" format="2">
  <advance width="714"/>
  <unicode hex="211D"/>
  <outline>
    <contour>
      <point x="97" y="0" type="line"/>
      <point x="270" y="0" type="line"/>
      <point x="270" y="317" type="line"/>
      <point x="313" y="317" type="line"/>
      <point x="504" y="0" type="line"/>
      <point x="699" y="0" type="line"/>
      <point x="476" y="342" type="line"/>
      <point x="557" y="373"/>
      <point x="604" y="436"/>
      <point x="604" y="524" type="curve" smooth="yes"/>
      <point x="604" y="645"/>
      <point x="526" y="714"/>
      <point x="356" y="714" type="curve" smooth="yes"/>
      <point x="97" y="714" type="line"/>
    </contour>
    <contour>
      <point x="150" y="53" type="line"/>
      <point x="150" y="661" type="line"/>
      <point x="217" y="661" type="line"/>
      <point x="217" y="53" type="line"/>
    </contour>
    <contour>
      <point x="531" y="52" type="line"/>
      <point x="369" y="319" type="line"/>
      <point x="388" y="320"/>
      <point x="411" y="323"/>
      <point x="430" y="327" type="curve"/>
      <point x="605" y="52" type="line"/>
    </contour>
    <contour>
      <point x="270" y="370" type="line"/>
      <point x="270" y="661" type="line"/>
      <point x="409" y="661" type="line"/>
      <point x="409" y="370" type="line"/>
    </contour>
    <contour>
      <point x="463" y="387" type="curve"/>
      <point x="463" y="649" type="line"/>
      <point x="517" y="631"/>
      <point x="546" y="597"/>
      <point x="546" y="524" type="curve" smooth="yes"/>
      <point x="546" y="444"/>
      <point x="511" y="409"/>
    </contour>
  </outline>
</glyph>
<glyph name="ZdoubleStruck" format="2">
  <advance width="630"/>
  <unicode hex="2124"/>
  <outline>
    <contour>
      <point x="38" y="0" type="line"/>
      <point x="581" y="0" type="line"/>
      <point x="581" y="53" type="line"/>
      <point x="232" y="53" type="line"/>
      <point x="591" y="661" type="line"/>
      <point x="591" y="714" type="line"/>
      <point x="70" y="714" type="line"/>
      <point x="70" y="661" type="line"/>
      <point x="404" y="661" type="line"/>
      <point x="38" y="53" type="line"/>
    </contour>
    <contour>
      <point x="98" y="53" type="line"/>
      <point x="462" y="661" type="line"/>
      <point x="533" y="661" type="line"/>
      <point x="171" y="53" type="line"/>
    </contour>
  </outline>
</glyph>
<glyph name="Z-fraktur" format="2">
  <advance width="537"/>
  <unicode hex="2128"/>
  <outline>
    <contour>
      <point x="57" y="-201" type="curve"/>
      <point x="72" y="-182" type="line"/>
      <point x="61" y="-174"/>
      <point x="45" y="-153"/>
      <point x="45" y="-128" type="curve" smooth="yes"/>
      <point x="45" y="-97"/>
      <point x="70" y="-77"/>
      <point x="98" y="-77" type="curve" smooth="yes"/>
      <point x="135" y="-77"/>
      <point x="164" y="-112"/>
      <point x="188" y="-154" type="curve"/>
      <point x="212" y="-154" type="line"/>
      <point x="212" y="-142"/>
      <point x="232" y="-136"/>
      <point x="272" y="-126" type="curve" smooth="yes"/>
      <point x="295" y="-120" type="line" smooth="yes"/>
      <point x="409" y="-90"/>
      <point x="482" y="-11"/>
      <point x="482" y="107" type="curve" smooth="yes"/>
      <point x="482" y="237"/>
      <point x="395" y="333"/>
      <point x="259" y="333" type="curve" smooth="yes"/>
      <point x="252" y="333" type="line" smooth="yes"/>
      <point x="125" y="333"/>
      <point x="61" y="292"/>
      <point x="48" y="232" type="curve"/>
      <point x="76" y="213" type="line"/>
      <point x="98" y="226" type="line"/>
      <point x="93" y="233"/>
      <point x="91" y="240"/>
      <point x="91" y="246" type="curve" smooth="yes"/>
      <point x="91" y="270"/>
      <point x="116" y="290"/>
      <point x="170" y="290" type="curve" smooth="yes"/>
      <point x="292" y="290"/>
      <point x="412" y="177"/>
      <point x="412" y="58" type="curve" smooth="yes"/>
      <point x="412" y="-31"/>
      <point x="345" y="-98"/>
      <point x="286" y="-98" type="curve" smooth="yes"/>
      <point x="261" y="-98"/>
      <point x="241" y="-86"/>
      <point x="224" y="-68" type="curve" smooth="yes"/>
      <point x="207" y="-50"/>
      <point x="185" y="-19"/>
      <point x="185" y="-4" type="curve"/>
      <point x="162" y="-4" type="line"/>
      <point x="162" y="-14"/>
      <point x="149" y="-21"/>
      <point x="127" y="-29" type="curve" smooth="yes"/>
      <point x="64" y="-52"/>
      <point x="20" y="-77"/>
      <point x="20" y="-128" type="curve" smooth="yes"/>
      <point x="20" y="-158"/>
      <point x="35" y="-184"/>
    </contour>
    <contour>
      <point x="215" y="316" type="curve" smooth="yes"/>
      <point x="220" y="316" type="line" smooth="yes"/>
      <point x="364" y="316"/>
      <point x="465" y="407"/>
      <point x="465" y="531" type="curve" smooth="yes"/>
      <point x="465" y="650"/>
      <point x="372" y="726"/>
      <point x="250" y="726" type="curve" smooth="yes"/>
      <point x="145" y="726"/>
      <point x="33" y="670"/>
      <point x="23" y="539" type="curve"/>
      <point x="46" y="539" type="line"/>
      <point x="56" y="617"/>
      <point x="114" y="678"/>
      <point x="207" y="678" type="curve" smooth="yes"/>
      <point x="302" y="678"/>
      <point x="376" y="615"/>
      <point x="376" y="510" type="curve" smooth="yes"/>
      <point x="376" y="405"/>
      <point x="302" y="344"/>
      <point x="216" y="344" type="curve" smooth="yes"/>
      <point x="173" y="344"/>
      <point x="129" y="357"/>
      <point x="93" y="394" type="curve"/>
      <point x="72" y="375" type="line"/>
      <point x="94" y="348"/>
      <point x="137" y="316"/>
    </contour>
  </outline>
</glyph>
<glyph name="Bscript" format="2">
  <advance width="838"/>
  <unicode hex="212C"/>
  <outline>
    <contour>
      <point x="153" y="-9" type="curve" smooth="yes"/>
      <point x="322" y="-9"/>
      <point x="426" y="93"/>
      <point x="486" y="221" type="curve" smooth="yes"/>
      <point x="496" y="243"/>
      <point x="507" y="273"/>
      <point x="514" y="295" type="curve" smooth="yes"/>
      <point x="530" y="342"/>
      <point x="543" y="386"/>
      <point x="555" y="428" type="curve" smooth="yes"/>
      <point x="571" y="484"/>
      <point x="589" y="534"/>
      <point x="614" y="577" type="curve" smooth="yes"/>
      <point x="639" y="620"/>
      <point x="671" y="655"/>
      <point x="718" y="680" type="curve"/>
      <point x="745" y="656"/>
      <point x="747" y="618"/>
      <point x="747" y="590" type="curve" smooth="yes"/>
      <point x="747" y="489"/>
      <point x="683" y="404"/>
      <point x="643" y="387" type="curve"/>
      <point x="636" y="389"/>
      <point x="620" y="393"/>
      <point x="599" y="393" type="curve" smooth="yes"/>
      <point x="588" y="393"/>
      <point x="558" y="391"/>
      <point x="558" y="371" type="curve" smooth="yes"/>
      <point x="558" y="359"/>
      <point x="575" y="357"/>
      <point x="586" y="357" type="curve" smooth="yes"/>
      <point x="594" y="357"/>
      <point x="620" y="361"/>
      <point x="638" y="370" type="curve"/>
      <point x="648" y="366"/>
      <point x="671" y="356"/>
      <point x="671" y="296" type="curve" smooth="yes"/>
      <point x="671" y="222"/>
      <point x="654" y="172"/>
      <point x="630" y="124" type="curve" smooth="yes"/>
      <point x="594" y="53"/>
      <point x="557" y="14"/>
      <point x="522" y="14" type="curve" smooth="yes"/>
      <point x="505" y="14"/>
      <point x="482" y="29"/>
      <point x="482" y="67" type="curve" smooth="yes"/>
      <point x="482" y="120"/>
      <point x="537" y="174"/>
      <point x="577" y="199" type="curve"/>
      <point x="565" y="216" type="line"/>
      <point x="466" y="149"/>
      <point x="460" y="88"/>
      <point x="460" y="68" type="curve" smooth="yes"/>
      <point x="460" y="36"/>
      <point x="474" y="-9"/>
      <point x="533" y="-9" type="curve" smooth="yes"/>
      <point x="636" y="-9"/>
      <point x="770" y="119"/>
      <point x="770" y="222" type="curve" smooth="yes"/>
      <point x="770" y="332"/>
      <point x="686" y="370"/>
      <point x="659" y="379" type="curve"/>
      <point x="738" y="415"/>
      <point x="835" y="474"/>
      <point x="835" y="568" type="curve" smooth="yes"/>
      <point x="835" y="622"/>
      <point x="811" y="667"/>
      <point x="749" y="694" type="curve"/>
      <point x="759" y="698"/>
      <point x="769" y="702"/>
      <point x="780" y="705" type="curve"/>
      <point x="772" y="722" type="line"/>
      <point x="754" y="718"/>
      <point x="737" y="712"/>
      <point x="720" y="704" type="curve"/>
      <point x="683" y="716"/>
      <point x="638" y="724"/>
      <point x="585" y="724" type="curve" smooth="yes"/>
      <point x="464" y="724"/>
      <point x="357" y="689"/>
      <point x="282" y="645" type="curve" smooth="yes"/>
      <point x="232" y="616"/>
      <point x="109" y="535"/>
      <point x="109" y="420" type="curve" smooth="yes"/>
      <point x="109" y="351"/>
      <point x="150" y="316"/>
      <point x="219" y="316" type="curve" smooth="yes"/>
      <point x="348" y="316"/>
      <point x="434" y="447"/>
      <point x="434" y="546" type="curve" smooth="yes"/>
      <point x="434" y="583"/>
      <point x="427" y="617"/>
      <point x="421" y="639" type="curve"/>
      <point x="406" y="639" type="line"/>
      <point x="406" y="470"/>
      <point x="283" y="339"/>
      <point x="191" y="339" type="curve" smooth="yes"/>
      <point x="155" y="339"/>
      <point x="128" y="365"/>
      <point x="128" y="420" type="curve" smooth="yes"/>
      <point x="128" y="532"/>
      <point x="253" y="607"/>
      <point x="292" y="630" type="curve" smooth="yes"/>
      <point x="348" y="663"/>
      <point x="463" y="706"/>
      <point x="585" y="706" type="curve" smooth="yes"/>
      <point x="631" y="706"/>
      <point x="667" y="702"/>
      <point x="695" y="692" type="curve"/>
      <point x="671" y="679"/>
      <point x="650" y="663"/>
      <point x="633" y="647" type="curve" smooth="yes"/>
      <point x="608" y="624"/>
      <point x="575" y="587"/>
      <point x="557" y="564" type="curve" smooth="yes"/>
      <point x="500" y="491"/>
      <point x="453" y="406"/>
      <point x="412" y="317" type="curve" smooth="yes"/>
      <point x="331" y="142"/>
      <point x="268" y="9"/>
      <point x="144" y="9" type="curve" smooth="yes"/>
      <point x="47" y="9"/>
      <point x="39" y="75"/>
      <point x="39" y="86" type="curve" smooth="yes"/>
      <point x="39" y="117"/>
      <point x="65" y="111"/>
      <point x="94" y="115" type="curve" smooth="yes"/>
      <point x="123" y="119"/>
      <point x="148" y="135"/>
      <point x="148" y="178" type="curve" smooth="yes"/>
      <point x="148" y="198"/>
      <point x="133" y="232"/>
      <point x="85" y="232" type="curve" smooth="yes"/>
      <point x="40" y="232"/>
      <point x="2" y="190"/>
      <point x="2" y="137" type="curve" smooth="yes"/>
      <point x="2" y="83"/>
      <point x="18" y="-9"/>
    </contour>
  </outline>
</glyph>
<glyph name="C-fraktur" format="2">
  <advance width="634"/>
  <unicode hex="212D"/>
  <outline>
    <contour>
      <point x="394" y="-24" type="curve" smooth="yes"/>
      <point x="425" y="-24"/>
      <point x="451" y="-22"/>
      <point x="470" y="-19" type="curve"/>
      <point x="618" y="103" type="line"/>
      <point x="605" y="120" type="line"/>
      <point x="548" y="84"/>
      <point x="483" y="67"/>
      <point x="412" y="67" type="curve" smooth="yes"/>
      <point x="226" y="67"/>
      <point x="118" y="200"/>
      <point x="118" y="436" type="curve" smooth="yes"/>
      <point x="118" y="609"/>
      <point x="177" y="703"/>
      <point x="256" y="703" type="curve" smooth="yes"/>
      <point x="300" y="703"/>
      <point x="336" y="674"/>
      <point x="346" y="622" type="curve"/>
      <point x="362" y="642" type="line"/>
      <point x="355" y="692"/>
      <point x="306" y="726"/>
      <point x="254" y="726" type="curve" smooth="yes"/>
      <point x="126" y="726"/>
      <point x="46" y="595"/>
      <point x="46" y="392" type="curve" smooth="yes"/>
      <point x="46" y="135"/>
      <point x="181" y="-24"/>
    </contour>
    <contour>
      <point x="283" y="29" type="line"/>
      <point x="440" y="189"/>
      <point x="452" y="213"/>
      <point x="452" y="239" type="curve" smooth="yes"/>
      <point x="452" y="259"/>
      <point x="444" y="282"/>
      <point x="384" y="389" type="curve" smooth="yes"/>
      <point x="317" y="508"/>
      <point x="310" y="524"/>
      <point x="310" y="541" type="curve" smooth="yes"/>
      <point x="310" y="554"/>
      <point x="326" y="579"/>
      <point x="354" y="611" type="curve" smooth="yes"/>
      <point x="376" y="636"/>
      <point x="393" y="649"/>
      <point x="407" y="649" type="curve" smooth="yes"/>
      <point x="418" y="649"/>
      <point x="433" y="644"/>
      <point x="464" y="628" type="curve" smooth="yes"/>
      <point x="502" y="609"/>
      <point x="529" y="593"/>
      <point x="538" y="593" type="curve" smooth="yes"/>
      <point x="546" y="593"/>
      <point x="551" y="596"/>
      <point x="564" y="612" type="curve" smooth="yes"/>
      <point x="577" y="628"/>
      <point x="594" y="653"/>
      <point x="615" y="678" type="curve"/>
      <point x="599" y="690" type="line"/>
      <point x="585" y="675"/>
      <point x="572" y="670"/>
      <point x="560" y="673" type="curve" smooth="yes"/>
      <point x="542" y="677"/>
      <point x="526" y="685"/>
      <point x="504" y="696" type="curve" smooth="yes"/>
      <point x="496" y="700"/>
      <point x="440" y="726"/>
      <point x="431" y="726" type="curve" smooth="yes"/>
      <point x="424" y="726"/>
      <point x="416" y="719"/>
      <point x="397" y="698" type="curve" smooth="yes"/>
      <point x="368" y="667"/>
      <point x="288" y="571"/>
      <point x="264" y="541" type="curve" smooth="yes"/>
      <point x="246" y="518"/>
      <point x="238" y="505"/>
      <point x="238" y="495" type="curve" smooth="yes"/>
      <point x="238" y="485"/>
      <point x="243" y="470"/>
      <point x="288" y="392" type="curve" smooth="yes"/>
      <point x="364" y="260"/>
      <point x="372" y="242"/>
      <point x="372" y="210" type="curve" smooth="yes"/>
      <point x="372" y="189"/>
      <point x="362" y="150"/>
      <point x="261" y="47" type="curve"/>
    </contour>
  </outline>
</glyph>
<glyph name="escript" format="2">
  <advance width="512"/>
  <unicode hex="212F"/>
  <outline>
    <contour>
      <point x="397" y="92" type="curve"/>
      <point x="384" y="105" type="line"/>
      <point x="327" y="47"/>
      <point x="266" y="8"/>
      <point x="219" y="8" type="curve" smooth="yes"/>
      <point x="196" y="8"/>
      <point x="188" y="29"/>
      <point x="188" y="54" type="curve" smooth="yes"/>
      <point x="188" y="79"/>
      <point x="195" y="108"/>
      <point x="205" y="128" type="curve"/>
      <point x="415" y="168"/>
      <point x="467" y="270"/>
      <point x="467" y="332" type="curve" smooth="yes"/>
      <point x="467" y="353"/>
      <point x="460" y="401"/>
      <point x="387" y="401" type="curve" smooth="yes"/>
      <point x="324" y="401"/>
      <point x="273" y="377"/>
      <point x="223" y="344" type="curve" smooth="yes"/>
      <point x="185" y="319"/>
      <point x="156" y="288"/>
      <point x="113" y="238" type="curve" smooth="yes"/>
      <point x="99" y="222"/>
      <point x="77" y="197"/>
      <point x="65" y="182" type="curve"/>
      <point x="80" y="169" type="line"/>
      <point x="109" y="203" type="line"/>
      <point x="97" y="175"/>
      <point x="89" y="155"/>
      <point x="89" y="118" type="curve" smooth="yes"/>
      <point x="89" y="74"/>
      <point x="114" y="-10"/>
      <point x="215" y="-10" type="curve" smooth="yes"/>
      <point x="280" y="-10"/>
      <point x="341" y="36"/>
    </contour>
    <contour>
      <point x="216" y="149" type="curve"/>
      <point x="247" y="228"/>
      <point x="319" y="383"/>
      <point x="385" y="383" type="curve" smooth="yes"/>
      <point x="403" y="383"/>
      <point x="411" y="374"/>
      <point x="411" y="356" type="curve" smooth="yes"/>
      <point x="411" y="325"/>
      <point x="374" y="199"/>
    </contour>
  </outline>
</glyph>
<glyph name="Escript" format="2">
  <advance width="603"/>
  <unicode hex="2130"/>
  <outline>
    <contour>
      <point x="226" y="-7" type="curve" smooth="yes"/>
      <point x="352" y="-7"/>
      <point x="470" y="87"/>
      <point x="470" y="208" type="curve" smooth="yes"/>
      <point x="470" y="236"/>
      <point x="460" y="302"/>
      <point x="387" y="302" type="curve" smooth="yes"/>
      <point x="307" y="302"/>
      <point x="247" y="235"/>
      <point x="247" y="156" type="curve" smooth="yes"/>
      <point x="247" y="132"/>
      <point x="248" y="108"/>
      <point x="253" y="84" type="curve"/>
      <point x="271" y="88" type="line"/>
      <point x="258" y="193"/>
      <point x="330" y="284"/>
      <point x="389" y="284" type="curve" smooth="yes"/>
      <point x="425" y="284"/>
      <point x="452" y="257"/>
      <point x="452" y="208" type="curve" smooth="yes"/>
      <point x="452" y="100"/>
      <point x="340" y="11"/>
      <point x="234" y="11" type="curve" smooth="yes"/>
      <point x="178" y="11"/>
      <point x="123" y="29"/>
      <point x="123" y="135" type="curve" smooth="yes"/>
      <point x="123" y="259"/>
      <point x="210" y="387"/>
      <point x="304" y="415" type="curve"/>
      <point x="332" y="387"/>
      <point x="375" y="374"/>
      <point x="401" y="374" type="curve" smooth="yes"/>
      <point x="423" y="374"/>
      <point x="446" y="379"/>
      <point x="446" y="400" type="curve" smooth="yes"/>
      <point x="446" y="430"/>
      <point x="384" y="441"/>
      <point x="331" y="443" type="curve"/>
      <point x="327" y="454"/>
      <point x="325" y="466"/>
      <point x="325" y="483" type="curve" smooth="yes"/>
      <point x="325" y="616"/>
      <point x="396" y="701"/>
      <point x="490" y="701" type="curve" smooth="yes"/>
      <point x="529" y="701"/>
      <point x="589" y="672"/>
      <point x="589" y="584" type="curve" smooth="yes"/>
      <point x="589" y="516"/>
      <point x="551" y="478"/>
      <point x="506" y="478" type="curve" smooth="yes"/>
      <point x="481" y="478"/>
      <point x="461" y="494"/>
      <point x="461" y="531" type="curve" smooth="yes"/>
      <point x="461" y="573"/>
      <point x="494" y="605"/>
      <point x="519" y="627" type="curve"/>
      <point x="514" y="637" type="line"/>
      <point x="454" y="613"/>
      <point x="434" y="569"/>
      <point x="434" y="530" type="curve" smooth="yes"/>
      <point x="434" y="491"/>
      <point x="459" y="460"/>
      <point x="504" y="460" type="curve" smooth="yes"/>
      <point x="578" y="460"/>
      <point x="613" y="535"/>
      <point x="613" y="582" type="curve" smooth="yes"/>
      <point x="613" y="636"/>
      <point x="585" y="728"/>
      <point x="458" y="728" type="curve" smooth="yes"/>
      <point x="331" y="728"/>
      <point x="235" y="637"/>
      <point x="235" y="548" type="curve" smooth="yes"/>
      <point x="235" y="492"/>
      <point x="259" y="458"/>
      <point x="277" y="440" type="curve"/>
      <point x="143" y="421"/>
      <point x="28" y="318"/>
      <point x="28" y="196" type="curve" smooth="yes"/>
      <point x="28" y="78"/>
      <point x="104" y="-7"/>
    </contour>
    <contour>
      <point x="396" y="390" type="curve" smooth="yes"/>
      <point x="386" y="390"/>
      <point x="362" y="398"/>
      <point x="341" y="423" type="curve"/>
      <point x="345" y="424"/>
      <point x="350" y="424"/>
      <point x="355" y="424" type="curve" smooth="yes"/>
      <point x="363" y="424"/>
      <point x="373" y="423"/>
      <point x="380" y="422" type="curve" smooth="yes"/>
      <point x="395" y="420"/>
      <point x="428" y="411"/>
      <point x="428" y="400" type="curve" smooth="yes"/>
      <point x="428" y="393"/>
      <point x="416" y="390"/>
    </contour>
  </outline>
</glyph>
<glyph name="Fscript" format="2">
  <advance width="824"/>
  <unicode hex="2131"/>
  <outline>
    <contour>
      <point x="153" y="-10" type="curve" smooth="yes"/>
      <point x="355" y="-10"/>
      <point x="462" y="138"/>
      <point x="512" y="287" type="curve" smooth="yes"/>
      <point x="514" y="293" type="line"/>
      <point x="535" y="295"/>
      <point x="554" y="296"/>
      <point x="565" y="296" type="curve"/>
      <point x="561" y="268"/>
      <point x="530" y="208"/>
      <point x="508" y="170" type="curve"/>
      <point x="586" y="192" type="line"/>
      <point x="593" y="210"/>
      <point x="622" y="292"/>
      <point x="609" y="311" type="curve"/>
      <point x="657" y="349"/>
      <point x="680" y="376"/>
      <point x="680" y="397" type="curve" smooth="yes"/>
      <point x="680" y="409"/>
      <point x="675" y="423"/>
      <point x="657" y="423" type="curve" smooth="yes"/>
      <point x="612" y="423"/>
      <point x="580" y="338"/>
      <point x="576" y="325" type="curve"/>
      <point x="569" y="319"/>
      <point x="556" y="314"/>
      <point x="549" y="313" type="curve" smooth="yes"/>
      <point x="520" y="309" type="line"/>
      <point x="533" y="351"/>
      <point x="544" y="394"/>
      <point x="554" y="435" type="curve" smooth="yes"/>
      <point x="566" y="482"/>
      <point x="591" y="546"/>
      <point x="635" y="589" type="curve"/>
      <point x="622" y="599" type="line"/>
      <point x="491" y="504"/>
      <point x="447" y="414"/>
      <point x="392" y="298" type="curve"/>
      <point x="299" y="291"/>
      <point x="233" y="242"/>
      <point x="209" y="207" type="curve"/>
      <point x="224" y="195" type="line"/>
      <point x="253" y="234"/>
      <point x="309" y="271"/>
      <point x="384" y="280" type="curve"/>
      <point x="352" y="216" type="line" smooth="yes"/>
      <point x="292" y="96"/>
      <point x="235" y="8"/>
      <point x="147" y="8" type="curve" smooth="yes"/>
      <point x="44" y="8"/>
      <point x="33" y="81"/>
      <point x="33" y="92" type="curve" smooth="yes"/>
      <point x="33" y="124"/>
      <point x="65" y="118"/>
      <point x="88" y="121" type="curve" smooth="yes"/>
      <point x="117" y="125"/>
      <point x="142" y="141"/>
      <point x="142" y="184" type="curve" smooth="yes"/>
      <point x="142" y="204"/>
      <point x="127" y="238"/>
      <point x="79" y="238" type="curve" smooth="yes"/>
      <point x="34" y="238"/>
      <point x="-4" y="196"/>
      <point x="-4" y="143" type="curve" smooth="yes"/>
      <point x="-4" y="120"/>
      <point x="0" y="-10"/>
    </contour>
    <contour>
      <point x="210" y="309" type="curve" smooth="yes"/>
      <point x="342" y="309"/>
      <point x="410" y="430"/>
      <point x="410" y="507" type="curve" smooth="yes"/>
      <point x="410" y="551"/>
      <point x="401" y="590"/>
      <point x="379" y="629" type="curve"/>
      <point x="365" y="622" type="line"/>
      <point x="372" y="591"/>
      <point x="372" y="578"/>
      <point x="372" y="565" type="curve" smooth="yes"/>
      <point x="372" y="493"/>
      <point x="280" y="328"/>
      <point x="199" y="328" type="curve" smooth="yes"/>
      <point x="182" y="328"/>
      <point x="134" y="337"/>
      <point x="134" y="414" type="curve" smooth="yes"/>
      <point x="134" y="559"/>
      <point x="295" y="694"/>
      <point x="440" y="694" type="curve" smooth="yes"/>
      <point x="500" y="694"/>
      <point x="552" y="669"/>
      <point x="600" y="646" type="curve" smooth="yes"/>
      <point x="642" y="626"/>
      <point x="678" y="613"/>
      <point x="723" y="613" type="curve" smooth="yes"/>
      <point x="782" y="613"/>
      <point x="829" y="666"/>
      <point x="848" y="706" type="curve"/>
      <point x="831" y="716" type="line"/>
      <point x="813" y="697"/>
      <point x="795" y="684"/>
      <point x="746" y="684" type="curve" smooth="yes"/>
      <point x="700" y="684"/>
      <point x="675" y="694"/>
      <point x="642" y="707" type="curve" smooth="yes"/>
      <point x="610" y="720"/>
      <point x="572" y="729"/>
      <point x="505" y="729" type="curve" smooth="yes"/>
      <point x="228" y="729"/>
      <point x="116" y="527"/>
      <point x="116" y="418" type="curve" smooth="yes"/>
      <point x="116" y="392"/>
      <point x="121" y="309"/>
    </contour>
  </outline>
</glyph>
<glyph name="Mscript" format="2">
  <advance width="1155"/>
  <unicode hex="2133"/>
  <outline>
    <contour>
      <point x="130" y="-10" type="curve" smooth="yes"/>
      <point x="209" y="-10"/>
      <point x="274" y="33"/>
      <point x="330" y="96" type="curve" smooth="yes"/>
      <point x="364" y="134"/>
      <point x="396" y="178"/>
      <point x="427" y="223" type="curve" smooth="yes"/>
      <point x="452" y="260"/>
      <point x="478" y="298"/>
      <point x="504" y="332" type="curve" smooth="yes"/>
      <point x="583" y="437"/>
      <point x="732" y="632"/>
      <point x="819" y="697" type="curve"/>
      <point x="803" y="676"/>
      <point x="711" y="549"/>
      <point x="663" y="474" type="curve" smooth="yes"/>
      <point x="523" y="257"/>
      <point x="498" y="142"/>
      <point x="498" y="99" type="curve" smooth="yes"/>
      <point x="498" y="60"/>
      <point x="502" y="-10"/>
      <point x="546" y="-10" type="curve" smooth="yes"/>
      <point x="573" y="-10"/>
      <point x="607" y="36"/>
      <point x="647" y="96" type="curve" smooth="yes"/>
      <point x="668" y="128"/>
      <point x="692" y="167"/>
      <point x="719" y="211" type="curve" smooth="yes"/>
      <point x="751" y="264"/>
      <point x="788" y="323"/>
      <point x="832" y="386" type="curve" smooth="yes"/>
      <point x="974" y="586"/>
      <point x="1092" y="671"/>
      <point x="1125" y="694" type="curve"/>
      <point x="1105" y="673"/>
      <point x="973" y="521"/>
      <point x="922" y="452" type="curve" smooth="yes"/>
      <point x="882" y="398"/>
      <point x="764" y="213"/>
      <point x="764" y="117" type="curve" smooth="yes"/>
      <point x="764" y="21"/>
      <point x="792" y="-10"/>
      <point x="838" y="-10" type="curve" smooth="yes"/>
      <point x="890" y="-10"/>
      <point x="966" y="78"/>
      <point x="1017" y="148" type="curve"/>
      <point x="1005" y="158" type="line"/>
      <point x="952" y="89"/>
      <point x="877" y="8"/>
      <point x="842" y="8" type="curve" smooth="yes"/>
      <point x="837" y="8"/>
      <point x="834" y="13"/>
      <point x="834" y="22" type="curve" smooth="yes"/>
      <point x="834" y="77"/>
      <point x="927" y="284"/>
      <point x="967" y="366" type="curve" smooth="yes"/>
      <point x="1016" y="467"/>
      <point x="1109" y="641"/>
      <point x="1154" y="706" type="curve"/>
      <point x="1137" y="722" type="line"/>
      <point x="1097" y="698"/>
      <point x="1024" y="641"/>
      <point x="949" y="561" type="curve" smooth="yes"/>
      <point x="904" y="513"/>
      <point x="868" y="466"/>
      <point x="810" y="386" type="curve" smooth="yes"/>
      <point x="772" y="333"/>
      <point x="727" y="260"/>
      <point x="687" y="193" type="curve" smooth="yes"/>
      <point x="674" y="171"/>
      <point x="658" y="146"/>
      <point x="645" y="126" type="curve" smooth="yes"/>
      <point x="619" y="86"/>
      <point x="597" y="57"/>
      <point x="576" y="36" type="curve"/>
      <point x="591" y="131"/>
      <point x="679" y="341"/>
      <point x="693" y="373" type="curve" smooth="yes"/>
      <point x="707" y="405"/>
      <point x="826" y="675"/>
      <point x="844" y="715" type="curve"/>
      <point x="828" y="725" type="line"/>
      <point x="758" y="676"/>
      <point x="627" y="532"/>
      <point x="501" y="360" type="curve" smooth="yes"/>
      <point x="470" y="318"/>
      <point x="440" y="276"/>
      <point x="412" y="235" type="curve" smooth="yes"/>
      <point x="382" y="191"/>
      <point x="351" y="150"/>
      <point x="320" y="115" type="curve" smooth="yes"/>
      <point x="263" y="51"/>
      <point x="203" y="8"/>
      <point x="131" y="8" type="curve" smooth="yes"/>
      <point x="58" y="8"/>
      <point x="35" y="66"/>
      <point x="35" y="78" type="curve" smooth="yes"/>
      <point x="35" y="90"/>
      <point x="39" y="97"/>
      <point x="56" y="99" type="curve" smooth="yes"/>
      <point x="117" y="107"/>
      <point x="143" y="137"/>
      <point x="143" y="168" type="curve" smooth="yes"/>
      <point x="143" y="194"/>
      <point x="131" y="223"/>
      <point x="87" y="223" type="curve" smooth="yes"/>
      <point x="34" y="223"/>
      <point x="-4" y="178"/>
      <point x="-4" y="122" type="curve" smooth="yes"/>
      <point x="-4" y="44"/>
      <point x="48" y="-10"/>
    </contour>
  </outline>
</glyph>
<glyph name="oscript" format="2">
  <advance width="530"/>
  <unicode hex="2134"/>
  <outline>
    <contour>
      <point x="453" y="125" type="curve"/>
      <point x="440" y="137" type="line"/>
      <point x="403" y="92"/>
      <point x="360" y="73"/>
      <point x="335" y="67" type="curve"/>
      <point x="402" y="141"/>
      <point x="449" y="249"/>
      <point x="449" y="308" type="curve" smooth="yes"/>
      <point x="449" y="349"/>
      <point x="426" y="401"/>
      <point x="341" y="401" type="curve" smooth="yes"/>
      <point x="264" y="401"/>
      <point x="174" y="330"/>
      <point x="114" y="258" type="curve" smooth="yes"/>
      <point x="34" y="163" type="line"/>
      <point x="49" y="150" type="line"/>
      <point x="93" y="203" type="line"/>
      <point x="81" y="175"/>
      <point x="73" y="155"/>
      <point x="73" y="118" type="curve" smooth="yes"/>
      <point x="73" y="74"/>
      <point x="98" y="-10"/>
      <point x="197" y="-10" type="curve" smooth="yes"/>
      <point x="239" y="-10"/>
      <point x="279" y="13"/>
      <point x="315" y="46" type="curve"/>
      <point x="379" y="51"/>
      <point x="425" y="90"/>
    </contour>
    <contour>
      <point x="199" y="8" type="curve" smooth="yes"/>
      <point x="178" y="8"/>
      <point x="168" y="22"/>
      <point x="168" y="47" type="curve" smooth="yes"/>
      <point x="168" y="76"/>
      <point x="182" y="120"/>
      <point x="211" y="176" type="curve" smooth="yes"/>
      <point x="284" y="318"/>
      <point x="333" y="376"/>
      <point x="372" y="376" type="curve" smooth="yes"/>
      <point x="390" y="376"/>
      <point x="412" y="370"/>
      <point x="412" y="321" type="curve" smooth="yes"/>
      <point x="412" y="263"/>
      <point x="380" y="183"/>
      <point x="337" y="118" type="curve"/>
      <point x="332" y="120"/>
      <point x="325" y="121"/>
      <point x="317" y="121" type="curve" smooth="yes"/>
      <point x="293" y="121"/>
      <point x="265" y="101"/>
      <point x="265" y="74" type="curve" smooth="yes"/>
      <point x="265" y="60"/>
      <point x="271" y="53"/>
      <point x="279" y="49" type="curve"/>
      <point x="252" y="24"/>
      <point x="224" y="8"/>
    </contour>
  </outline>
</glyph>
<glyph name="alephsymbol" format="2">
  <advance width="609"/>
  <unicode hex="2135"/>
  <outline>
    <contour>
      <point x="523" y="-26" type="curve"/>
      <point x="576" y="20" type="line"/>
      <point x="532" y="81"/>
      <point x="478" y="155"/>
      <point x="416" y="235" type="curve"/>
      <point x="508" y="333"/>
      <point x="558" y="473"/>
      <point x="566" y="583" type="curve"/>
      <point x="488" y="583" type="line"/>
      <point x="487" y="502"/>
      <point x="452" y="380"/>
      <point x="375" y="288" type="curve"/>
      <point x="285" y="403"/>
      <point x="183" y="520"/>
      <point x="97" y="601" type="curve"/>
      <point x="43" y="549" type="line"/>
      <point x="86" y="510"/>
      <point x="135" y="461"/>
      <point x="186" y="404" type="curve"/>
      <point x="81" y="272"/>
      <point x="41" y="124"/>
      <point x="37" y="-1" type="curve"/>
      <point x="110" y="-1" type="line"/>
      <point x="115" y="106"/>
      <point x="144" y="235"/>
      <point x="230" y="353" type="curve"/>
      <point x="339" y="224"/>
      <point x="446" y="79"/>
    </contour>
  </outline>
</glyph>
<glyph name="betsymbol" format="2">
  <advance width="530"/>
  <unicode hex="2136"/>
  <outline>
    <contour>
      <point x="34" y="0" type="line"/>
      <point x="490" y="0" type="line"/>
      <point x="490" y="61" type="line"/>
      <point x="413" y="61" type="line"/>
      <point x="413" y="347" type="line" smooth="yes"/>
      <point x="413" y="525"/>
      <point x="353" y="581"/>
      <point x="185" y="581" type="curve" smooth="yes"/>
      <point x="56" y="581" type="line"/>
      <point x="56" y="520" type="line"/>
      <point x="185" y="520" type="line" smooth="yes"/>
      <point x="305" y="520"/>
      <point x="344" y="475"/>
      <point x="344" y="358" type="curve" smooth="yes"/>
      <point x="344" y="61" type="line"/>
      <point x="34" y="61" type="line"/>
    </contour>
  </outline>
</glyph>
<glyph name="gimelsymbol" format="2">
  <advance width="376"/>
  <unicode hex="2137"/>
  <outline>
    <contour>
      <point x="8" y="-23" type="line"/>
      <point x="151" y="68" type="line" smooth="yes"/>
      <point x="186" y="90"/>
      <point x="214" y="134"/>
      <point x="214" y="180" type="curve"/>
      <point x="254" y="0" type="line"/>
      <point x="325" y="0" type="line"/>
      <point x="266" y="211" type="line" smooth="yes"/>
      <point x="258" y="238"/>
      <point x="250" y="267"/>
      <point x="250" y="294" type="curve" smooth="yes"/>
      <point x="250" y="400" type="line" smooth="yes"/>
      <point x="250" y="485"/>
      <point x="238" y="530"/>
      <point x="173" y="551" type="curve" smooth="yes"/>
      <point x="46" y="592" type="line"/>
      <point x="46" y="524" type="line"/>
      <point x="130" y="496" type="line" smooth="yes"/>
      <point x="169" y="483"/>
      <point x="181" y="465"/>
      <point x="181" y="421" type="curve" smooth="yes"/>
      <point x="181" y="265" type="line" smooth="yes"/>
      <point x="181" y="162"/>
      <point x="154" y="137"/>
      <point x="8" y="49" type="curve"/>
    </contour>
  </outline>
</glyph>
<glyph name="daletsymbol" format="2">
  <advance width="458"/>
  <unicode hex="2138"/>
  <outline>
    <contour>
      <point x="290" y="0" type="line"/>
      <point x="359" y="0" type="line"/>
      <point x="359" y="520" type="line"/>
      <point x="436" y="520" type="line"/>
      <point x="436" y="581" type="line"/>
      <point x="2" y="581" type="line"/>
      <point x="2" y="520" type="line"/>
      <point x="290" y="520" type="line"/>
    </contour>
  </outline>
</glyph>
<glyph name="pidoubleStruck" format="2">
  <advance width="777"/>
  <unicode hex="213C"/>
  <outline>
    <contour>
      <point x="541" y="-10" type="curve" smooth="yes"/>
      <point x="570" y="-10"/>
      <point x="616" y="-5"/>
      <point x="642" y="5" type="curve"/>
      <point x="668" y="129" type="line"/>
      <point x="652" y="122"/>
      <point x="635" y="119"/>
      <point x="619" y="119" type="curve" smooth="yes"/>
      <point x="596" y="119"/>
      <point x="578" y="128"/>
      <point x="578" y="152" type="curve" smooth="yes"/>
      <point x="578" y="167"/>
      <point x="581" y="185"/>
      <point x="587" y="213" type="curve" smooth="yes"/>
      <point x="646" y="483" type="line"/>
      <point x="754" y="483" type="line"/>
      <point x="765" y="536" type="line"/>
      <point x="132" y="536" type="line"/>
      <point x="53" y="501" type="line"/>
      <point x="49" y="483" type="line"/>
      <point x="164" y="483" type="line"/>
      <point x="62" y="0" type="line"/>
      <point x="235" y="0" type="line"/>
      <point x="337" y="483" type="line"/>
      <point x="473" y="483" type="line"/>
      <point x="414" y="213" type="line" smooth="yes"/>
      <point x="408" y="184"/>
      <point x="400" y="145"/>
      <point x="400" y="118" type="curve" smooth="yes"/>
      <point x="400" y="39"/>
      <point x="461" y="-10"/>
    </contour>
    <contour>
      <point x="125" y="49" type="line"/>
      <point x="217" y="483" type="line"/>
      <point x="284" y="483" type="line"/>
      <point x="192" y="49" type="line"/>
    </contour>
    <contour>
      <point x="548" y="40" type="curve" smooth="yes"/>
      <point x="492" y="40"/>
      <point x="455" y="67"/>
      <point x="455" y="118" type="curve" smooth="yes"/>
      <point x="455" y="149"/>
      <point x="461" y="177"/>
      <point x="467" y="204" type="curve" smooth="yes"/>
      <point x="527" y="483" type="line"/>
      <point x="592" y="483" type="line"/>
      <point x="534" y="213" type="line" smooth="yes"/>
      <point x="528" y="187"/>
      <point x="525" y="166"/>
      <point x="525" y="151" type="curve" smooth="yes"/>
      <point x="525" y="114"/>
      <point x="539" y="81"/>
      <point x="605" y="81" type="curve" smooth="yes"/>
      <point x="609" y="81" type="line"/>
      <point x="602" y="44" type="line"/>
      <point x="589" y="42"/>
      <point x="566" y="40"/>
    </contour>
  </outline>
</glyph>
<glyph name="gammadoubleStruck" format="2">
  <advance width="543"/>
  <unicode hex="213D"/>
  <outline>
    <contour>
      <point x="211" y="-240" type="curve"/>
      <point x="266" y="-240" type="line"/>
      <point x="266" y="-173"/>
      <point x="284" y="-68"/>
      <point x="315" y="13" type="curve" smooth="yes"/>
      <point x="515" y="536" type="line"/>
      <point x="458" y="536" type="line"/>
      <point x="360" y="271" type="line" smooth="yes"/>
      <point x="355" y="257"/>
      <point x="343" y="222"/>
      <point x="340" y="210" type="curve"/>
      <point x="336" y="224"/>
      <point x="323" y="253"/>
      <point x="314" y="272" type="curve" smooth="yes"/>
      <point x="188" y="536" type="line"/>
      <point x="5" y="536" type="line"/>
      <point x="262" y="6" type="line"/>
      <point x="232" y="-76"/>
      <point x="211" y="-185"/>
    </contour>
    <contour>
      <point x="281" y="60" type="line"/>
      <point x="272" y="95"/>
      <point x="237" y="171"/>
      <point x="213" y="222" type="curve" smooth="yes"/>
      <point x="86" y="487" type="line"/>
      <point x="154" y="487" type="line"/>
      <point x="315" y="154" type="line"/>
      <point x="301" y="114"/>
      <point x="288" y="76"/>
      <point x="285" y="60" type="curve"/>
    </contour>
  </outline>
</glyph>
<glyph name="GammadoubleStruck" format="2">
  <advance width="552"/>
  <unicode hex="213E"/>
  <outline>
    <contour>
      <point x="97" y="0" type="line"/>
      <point x="270" y="0" type="line"/>
      <point x="270" y="661" type="line"/>
      <point x="537" y="661" type="line"/>
      <point x="537" y="714" type="line"/>
      <point x="97" y="714" type="line"/>
    </contour>
    <contour>
      <point x="150" y="53" type="line"/>
      <point x="150" y="661" type="line"/>
      <point x="217" y="661" type="line"/>
      <point x="217" y="53" type="line"/>
    </contour>
  </outline>
</glyph>
<glyph name="summationdoubleStruck" format="2">
  <advance width="620"/>
  <unicode hex="2140"/>
  <outline>
    <contour>
      <point x="26" y="-240" type="line"/>
      <point x="620" y="-240" type="line"/>
      <point x="620" y="-74" type="line"/>
      <point x="191" y="-74" type="line"/>
      <point x="490" y="260" type="line"/>
      <point x="239" y="659" type="line"/>
      <point x="604" y="659" type="line"/>
      <point x="604" y="714" type="line"/>
      <point x="38" y="714" type="line"/>
      <point x="38" y="659" type="line"/>
      <point x="343" y="177" type="line"/>
      <point x="26" y="-177" type="line"/>
    </contour>
    <contour>
      <point x="87" y="-188" type="line"/>
      <point x="144" y="-126" type="line"/>
      <point x="571" y="-126" type="line"/>
      <point x="571" y="-188" type="line"/>
    </contour>
    <contour>
      <point x="379" y="217" type="line"/>
      <point x="101" y="659" type="line"/>
      <point x="176" y="659" type="line"/>
      <point x="424" y="266" type="line"/>
    </contour>
  </outline>
</glyph>
<glyph name="DitalicDoubleStruck" format="2">
  <advance width="730"/>
  <unicode hex="2145"/>
  <outline>
    <contour>
      <point x="36" y="0" type="line"/>
      <point x="296" y="0" type="line" smooth="yes"/>
      <point x="566" y="0"/>
      <point x="715" y="181"/>
      <point x="715" y="429" type="curve" smooth="yes"/>
      <point x="715" y="622"/>
      <point x="612" y="714"/>
      <point x="440" y="714" type="curve" smooth="yes"/>
      <point x="187" y="714" type="line"/>
    </contour>
    <contour>
      <point x="100" y="53" type="line"/>
      <point x="229" y="661" type="line"/>
      <point x="296" y="661" type="line"/>
      <point x="167" y="53" type="line"/>
    </contour>
    <contour>
      <point x="220" y="53" type="line"/>
      <point x="349" y="661" type="line"/>
      <point x="455" y="661" type="line" smooth="yes"/>
      <point x="506" y="661"/>
      <point x="547" y="649"/>
      <point x="579" y="626" type="curve"/>
      <point x="466" y="87" type="line"/>
      <point x="420" y="65"/>
      <point x="365" y="53"/>
      <point x="304" y="53" type="curve" smooth="yes"/>
    </contour>
    <contour>
      <point x="526" y="125" type="curve"/>
      <point x="620" y="582" type="line"/>
      <point x="645" y="544"/>
      <point x="657" y="492"/>
      <point x="657" y="430" type="curve" smooth="yes"/>
      <point x="657" y="304"/>
      <point x="612" y="193"/>
    </contour>
  </outline>
</glyph>
<glyph name="ditalicDoubleStruck" format="2">
  <advance width="579"/>
  <unicode hex="2146"/>
  <outline>
    <contour>
      <point x="154" y="-9" type="curve" smooth="yes"/>
      <point x="226" y="-9"/>
      <point x="277" y="32"/>
      <point x="329" y="101" type="curve"/>
      <point x="307" y="0" type="line"/>
      <point x="480" y="0" type="line"/>
      <point x="642" y="760" type="line"/>
      <point x="469" y="760" type="line"/>
      <point x="403" y="450" type="line"/>
      <point x="388" y="503"/>
      <point x="341" y="545"/>
      <point x="272" y="545" type="curve" smooth="yes"/>
      <point x="100" y="545"/>
      <point x="9" y="350"/>
      <point x="9" y="174" type="curve" smooth="yes"/>
      <point x="9" y="52"/>
      <point x="68" y="-9"/>
    </contour>
    <contour>
      <point x="106" y="54" type="line"/>
      <point x="79" y="71"/>
      <point x="62" y="110"/>
      <point x="62" y="172" type="curve" smooth="yes"/>
      <point x="62" y="324"/>
      <point x="127" y="433"/>
      <point x="195" y="476" type="curve"/>
    </contour>
    <contour>
      <point x="157" y="43" type="curve"/>
      <point x="248" y="491" type="line"/>
      <point x="254" y="492"/>
      <point x="260" y="493"/>
      <point x="266" y="493" type="curve" smooth="yes"/>
      <point x="355" y="493"/>
      <point x="378" y="428"/>
      <point x="378" y="364" type="curve" smooth="yes"/>
      <point x="378" y="231"/>
      <point x="283" y="43"/>
    </contour>
    <contour>
      <point x="370" y="49" type="line"/>
      <point x="511" y="707" type="line"/>
      <point x="577" y="707" type="line"/>
      <point x="437" y="49" type="line"/>
    </contour>
  </outline>
</glyph>
<glyph name="eitalicDoubleStruck" format="2">
  <advance width="499"/>
  <unicode hex="2147"/>
  <outline>
    <contour>
      <point x="232" y="-10" type="curve" smooth="yes"/>
      <point x="300" y="-10"/>
      <point x="358" y="3"/>
      <point x="416" y="29" type="curve"/>
      <point x="421" y="92" type="line"/>
      <point x="361" y="63"/>
      <point x="297" y="44"/>
      <point x="237" y="44" type="curve" smooth="yes"/>
      <point x="207" y="44"/>
      <point x="182" y="47"/>
      <point x="160" y="54" type="curve"/>
      <point x="199" y="244" type="line"/>
      <point x="410" y="262"/>
      <point x="500" y="336"/>
      <point x="500" y="424" type="curve" smooth="yes"/>
      <point x="500" y="507"/>
      <point x="428" y="546"/>
      <point x="332" y="546" type="curve" smooth="yes"/>
      <point x="124" y="546"/>
      <point x="9" y="362"/>
      <point x="9" y="192" type="curve" smooth="yes"/>
      <point x="9" y="68"/>
      <point x="86" y="-10"/>
    </contour>
    <contour>
      <point x="113" y="78" type="line"/>
      <point x="81" y="105"/>
      <point x="67" y="145"/>
      <point x="67" y="197" type="curve" smooth="yes"/>
      <point x="67" y="293"/>
      <point x="113" y="390"/>
      <point x="189" y="445" type="curve"/>
    </contour>
    <contour>
      <point x="210" y="298" type="curve"/>
      <point x="246" y="476" type="line"/>
      <point x="273" y="486"/>
      <point x="301" y="492"/>
      <point x="332" y="492" type="curve" smooth="yes"/>
      <point x="338" y="492"/>
      <point x="344" y="492"/>
      <point x="350" y="491" type="curve"/>
      <point x="313" y="314" type="line"/>
      <point x="282" y="307"/>
      <point x="247" y="301"/>
    </contour>
    <contour>
      <point x="369" y="333" type="curve"/>
      <point x="399" y="482" type="line"/>
      <point x="430" y="470"/>
      <point x="446" y="449"/>
      <point x="446" y="425" type="curve" smooth="yes"/>
      <point x="446" y="384"/>
      <point x="417" y="354"/>
    </contour>
  </outline>
</glyph>
<glyph name="iitalicDoubleStruck" format="2">
  <advance width="343"/>
  <unicode hex="2148"/>
  <outline>
    <contour>
      <point x="32" y="0" type="line"/>
      <point x="205" y="0" type="line"/>
      <point x="319" y="536" type="line"/>
      <point x="145" y="536" type="line"/>
    </contour>
    <contour>
      <point x="95" y="49" type="line"/>
      <point x="187" y="483" type="line"/>
      <point x="254" y="483" type="line"/>
      <point x="162" y="49" type="line"/>
    </contour>
    <contour>
      <point x="248" y="592" type="curve" smooth="yes"/>
      <point x="295" y="592"/>
      <point x="342" y="630"/>
      <point x="342" y="698" type="curve" smooth="yes"/>
      <point x="342" y="744"/>
      <point x="318" y="769"/>
      <point x="266" y="769" type="curve" smooth="yes"/>
      <point x="203" y="769"/>
      <point x="169" y="723"/>
      <point x="169" y="667" type="curve" smooth="yes"/>
      <point x="169" y="617"/>
      <point x="202" y="592"/>
    </contour>
    <contour>
      <point x="252" y="642" type="curve" smooth="yes"/>
      <point x="233" y="642"/>
      <point x="219" y="654"/>
      <point x="219" y="675" type="curve" smooth="yes"/>
      <point x="219" y="698"/>
      <point x="233" y="719"/>
      <point x="260" y="719" type="curve" smooth="yes"/>
      <point x="282" y="719"/>
      <point x="292" y="707"/>
      <point x="292" y="688" type="curve" smooth="yes"/>
      <point x="292" y="659"/>
      <point x="272" y="642"/>
    </contour>
  </outline>
</glyph>
<glyph name="jitalicDoubleStruck" format="2">
  <advance width="343"/>
  <unicode hex="2149"/>
  <outline>
    <contour>
      <point x="-65" y="-240" type="curve" smooth="yes"/>
      <point x="103" y="-240"/>
      <point x="180" y="-110"/>
      <point x="198" y="-25" type="curve" smooth="yes"/>
      <point x="319" y="536" type="line"/>
      <point x="145" y="536" type="line"/>
      <point x="9" y="-103" type="line" smooth="yes"/>
      <point x="-4" y="-166"/>
      <point x="-38" y="-185"/>
      <point x="-74" y="-185" type="curve" smooth="yes"/>
      <point x="-97" y="-185"/>
      <point x="-115" y="-179"/>
      <point x="-134" y="-171" type="curve"/>
      <point x="-145" y="-224" type="line"/>
      <point x="-118" y="-236"/>
      <point x="-92" y="-240"/>
    </contour>
    <contour>
      <point x="50" y="-163" type="curve"/>
      <point x="187" y="483" type="line"/>
      <point x="253" y="483" type="line"/>
      <point x="148" y="-18" type="line" smooth="yes"/>
      <point x="131" y="-98"/>
      <point x="90" y="-136"/>
    </contour>
    <contour>
      <point x="248" y="592" type="curve" smooth="yes"/>
      <point x="295" y="592"/>
      <point x="342" y="630"/>
      <point x="342" y="698" type="curve" smooth="yes"/>
      <point x="342" y="744"/>
      <point x="318" y="769"/>
      <point x="266" y="769" type="curve" smooth="yes"/>
      <point x="203" y="769"/>
      <point x="169" y="723"/>
      <point x="169" y="667" type="curve" smooth="yes"/>
      <point x="169" y="617"/>
      <point x="202" y="592"/>
    </contour>
    <contour>
      <point x="252" y="642" type="curve" smooth="yes"/>
      <point x="233" y="642"/>
      <point x="219" y="654"/>
      <point x="219" y="675" type="curve" smooth="yes"/>
      <point x="219" y="698"/>
      <point x="233" y="719"/>
      <point x="260" y="719" type="curve" smooth="yes"/>
      <point x="282" y="719"/>
      <point x="292" y="707"/>
      <point x="292" y="688" type="curve" smooth="yes"/>
      <point x="292" y="659"/>
      <point x="272" y="642"/>
    </contour>
  </outline>
</glyph>
<glyph name="upDownArrow" format="2">
  <advance width="436"/>
  <unicode hex="2195"/>
  <note>
arrowupdn
</note>
  <outline>
    <contour>
      <point x="70" y="481" type="line"/>
      <point x="128" y="508"/>
      <point x="172" y="535"/>
      <point x="198" y="561" type="curve"/>
      <point x="238" y="561" type="line"/>
      <point x="264" y="535"/>
      <point x="308" y="508"/>
      <point x="366" y="481" type="curve"/>
      <point x="366" y="525" type="line"/>
      <point x="304" y="578"/>
      <point x="258" y="634"/>
      <point x="229" y="692" type="curve"/>
      <point x="207" y="692" type="line"/>
      <point x="178" y="634"/>
      <point x="132" y="578"/>
      <point x="70" y="525" type="curve"/>
    </contour>
    <contour>
      <point x="207" y="-90" type="curve"/>
      <point x="229" y="-90" type="line"/>
      <point x="258" y="-32"/>
      <point x="304" y="24"/>
      <point x="366" y="77" type="curve"/>
      <point x="366" y="121" type="line"/>
      <point x="308" y="94"/>
      <point x="264" y="67"/>
      <point x="238" y="41" type="curve"/>
      <point x="198" y="41" type="line"/>
      <point x="172" y="67"/>
      <point x="128" y="94"/>
      <point x="70" y="121" type="curve"/>
      <point x="70" y="77" type="line"/>
      <point x="132" y="24"/>
      <point x="178" y="-32"/>
    </contour>
    <contour>
      <point x="191" y="11" type="line"/>
      <point x="245" y="11" type="line"/>
      <point x="245" y="591" type="line"/>
      <point x="191" y="591" type="line"/>
    </contour>
  </outline>
</glyph>
<glyph name="northWestArrow" format="2">
  <advance width="618"/>
  <unicode hex="2196"/>
  <note>
uni2196
</note>
  <outline>
    <contour>
      <point x="529" y="87" type="line"/>
      <point x="567" y="125" type="line"/>
      <point x="149" y="543" type="line"/>
      <point x="111" y="505" type="line"/>
    </contour>
    <contour>
      <point x="103" y="342" type="line"/>
      <point x="125" y="402"/>
      <point x="137" y="452"/>
      <point x="137" y="489" type="curve"/>
      <point x="165" y="517" type="line"/>
      <point x="202" y="517"/>
      <point x="252" y="529"/>
      <point x="312" y="551" type="curve"/>
      <point x="281" y="582" type="line"/>
      <point x="200" y="576"/>
      <point x="128" y="583"/>
      <point x="66" y="603" type="curve"/>
      <point x="51" y="588" type="line"/>
      <point x="71" y="526"/>
      <point x="78" y="454"/>
      <point x="72" y="373" type="curve"/>
    </contour>
  </outline>
</glyph>
<glyph name="northEastArrow" format="2">
  <advance width="618"/>
  <unicode hex="2197"/>
  <note>
uni2197
</note>
  <outline>
    <contour>
      <point x="89" y="87" type="line"/>
      <point x="507" y="505" type="line"/>
      <point x="469" y="543" type="line"/>
      <point x="51" y="125" type="line"/>
    </contour>
    <contour>
      <point x="515" y="342" type="curve"/>
      <point x="546" y="373" type="line"/>
      <point x="540" y="454"/>
      <point x="547" y="526"/>
      <point x="567" y="588" type="curve"/>
      <point x="552" y="603" type="line"/>
      <point x="490" y="583"/>
      <point x="418" y="576"/>
      <point x="337" y="582" type="curve"/>
      <point x="306" y="551" type="line"/>
      <point x="366" y="529"/>
      <point x="416" y="517"/>
      <point x="453" y="517" type="curve"/>
      <point x="481" y="489" type="line"/>
      <point x="481" y="452"/>
      <point x="493" y="402"/>
    </contour>
  </outline>
</glyph>
<glyph name="southEastArrow" format="2">
  <advance width="618"/>
  <unicode hex="2198"/>
  <note>
uni2198
</note>
  <outline>
    <contour>
      <point x="469" y="147" type="line"/>
      <point x="507" y="185" type="line"/>
      <point x="89" y="603" type="line"/>
      <point x="51" y="565" type="line"/>
    </contour>
    <contour>
      <point x="552" y="87" type="curve"/>
      <point x="567" y="102" type="line"/>
      <point x="547" y="164"/>
      <point x="540" y="236"/>
      <point x="546" y="317" type="curve"/>
      <point x="515" y="348" type="line"/>
      <point x="493" y="288"/>
      <point x="481" y="238"/>
      <point x="481" y="201" type="curve"/>
      <point x="453" y="173" type="line"/>
      <point x="416" y="173"/>
      <point x="366" y="161"/>
      <point x="306" y="139" type="curve"/>
      <point x="337" y="108" type="line"/>
      <point x="418" y="114"/>
      <point x="490" y="107"/>
    </contour>
  </outline>
</glyph>
